<?xml version="1.0" encoding="UTF-8"?>
<svg id="Ebene_1" xmlns="http://www.w3.org/2000/svg" version="1.1" viewBox="0 0 150 150">
  <!-- Generator: Adobe Illustrator 29.1.0, SVG Export Plug-In . SVG Version: 2.1.0 Build 142)  -->
  <g id="HxTj3Q">
    <path d="M86.964,24.461c44.157-3.704,73.629,43.368,49.87,81.077-20.841,33.078-57.512,22.494-90.571,24.186-19.961-1.438-37.427-16.55-41.289-36.226C-1.018,62.975,24.166,35.781,54.916,39.406c8.909-7.876,19.954-13.93,32.048-14.945ZM66.898,46.503c3.046.941,5.514,2.993,8.162,4.657,16.617-11.049,39.907-3.57,46.542,15.306,7.777,22.128-10.232,44.217-33.354,41.407-16.497-2.005-26.052-18.756-37.879-28.562-5.018-1.616-8.317,3.047-5.281,7.295,17.754,18.354,34.971,39.584,63.646,27.073,40.334-17.598,26.105-80.287-20.858-76.561-5.65.448-16.614,4.525-20.621,8.573-.273.276-.482.295-.357.812ZM63.206,116.976l-9.402-8.886c-9.17.42-17.705-1.958-23.287-9.599-13.955-19.103,5.356-44.395,27.407-36.132,9.105,3.412,14.139,12.977,21.381,18.551,4.644,3.575,10.209-1.48,6.559-6.223-3.154-4.099-14.705-15.22-18.995-17.917-26.752-16.815-59.556,10.648-47.682,39.964,3.901,9.632,15.917,20.241,26.738,20.241h17.282Z" fill="#fff"/>
  </g>
</svg>