<?xml version="1.0" encoding="UTF-8"?>
<svg id="Ebene_1" xmlns="http://www.w3.org/2000/svg" version="1.1" viewBox="0 0 150 150">
  <!-- Generator: Adobe Illustrator 29.1.0, SVG Export Plug-In . SVG Version: 2.1.0 Build 142)  -->
  <g id="q5HP02">
    <g>
      <path d="M147.333,26.912v95.801c-2.369,12.363-11.142,21.587-24.083,22.531-31.874,2.325-66.703-1.659-98.877-.194-11.454-1.94-19.255-10.566-21.705-21.694V26.269C4.964,15.131,12.92,6.466,24.373,4.575c32.173,1.465,67.003-2.519,98.877-.194,12.117.884,22.695,10.276,24.083,22.531ZM20.349,104.067h10.93c3.364-4.105,3.605-10.392,6.081-15.136.845-.564,18.182-.597,20.316-.331.789.098,1.295-.046,1.896.676,2.351,2.83,2.805,11.727,5.784,14.791h13.181l-22.8-63.7-15.748.08-20.496,61.535c-.338.736.214,1.895.856,2.085ZM95.896,55.845h-12.859v35.684c0,1.055,2.159,6.209,2.935,7.353,5.697,8.397,19.202,7.545,26.631,1.969l1.618,3.216h10.287c1.911,0,.332-5.561.295-6.724-.44-13.8.382-27.697.026-41.497h-12.859v34.398c-3.287,3.04-11.111,4.516-14.165.662-.547-.69-1.909-3.891-1.909-4.52v-30.54Z" fill="#fff"/>
      <polygon points="55.39 76.42 40.602 76.42 47.996 51.981 55.39 76.42" fill="#fff"/>
    </g>
  </g>
</svg>