<?xml version="1.0" encoding="UTF-8"?>
<svg id="Ebene_1" xmlns="http://www.w3.org/2000/svg" version="1.1" viewBox="0 0 150 150">
  <!-- Generator: Adobe Illustrator 29.1.0, SVG Export Plug-In . SVG Version: 2.1.0 Build 142)  -->
  <g id="NSTmxm">
    <g>
      <path d="M138.683,11.04c-.073.127-1.12-.024-.796.81.185.476,1.186.743,1.41,1.913.708,3.707-.497,12.419-1.006,16.52-.895,7.217-2.572,15.861-4.701,22.803-2.484,8.102-6.652,8.37-12.543,13.064-24.884,19.834-48.016,41.752-70.662,63.996-2.298,2.258-8.233,9.493-10.995,9.893-1.646.238-8.382-6.622-10.001-7.969-4.978-4.141-10.059-8.187-15.045-12.324-.801-1.768.12-1.495,1.669-1.437-1.619-2.933-2.661-1.171-4.109-1.005-2.346.269-.066-2.37.068-2.812.229-.751-.341-1.316.19-2.121.467-.71,1.932-1.376,2.677-2.106,8.426-8.252,16.29-16.845,24.219-25.572,17.019-18.732,36.945-40.264,51.615-60.773.55-.769.565-1.9.844-2.232.338-.403,1.573-.382,2.23-.856.69-.499.617-1.285,1.922-1.872,4.697-2.113,14.114-3.974,19.446-5.212,7.49-1.74,15.053-3.172,22.648-4.406.967-.042,1.364.923.919,1.698ZM104.859,36.449c-8.675,9.401,6.372,18.479,12.163,9.553,3.324-5.124-.888-11.372-6.152-12.819-3.664-1.007-2.515.575-3.674,1.694-.565.546-1.751.937-2.336,1.571ZM84.775,38.646c.453.449,1.888-.835,1.415-1.42-.077-.095-2.147.695-1.415,1.42ZM81.454,42.917c-20.054,24.515-41.123,48.056-64.523,69.438-.913,2.331-.727,2.814,1.218,1.218,1.821-1.494,4.066-3.806,5.871-5.509,21.02-19.839,41.204-41.209,57.908-64.673.789-1.108,3.122-2.411,2.843-4.265-1.014-.115-1.735,1.398-2.367,2.149-.462.548-.638,1.261-.95,1.642ZM79.794,40.546v.474c.308-.158.308-.316,0-.474ZM76.237,45.762c1.383-.879.69-.848,1.093-1.249.875-.87,2.319-1.244,2.222-3.016l-2.101,1.911c-.706.605-.848,1.729-1.214,2.354-.105.067-.531-.121-.806.153.338,1.061-2.174,2.058-1.562,2.689.915.944,2.214-2.579,2.369-2.843ZM119.867,64.726c2.29-1.098,9.761-5.953,10.854-7.87.315-.553,2.848-9.283,2.877-9.973.066-1.549-1.353-2.397-1.995-1-.785,1.707-.599,4.256-1.048,6.067-1.301,5.252-5.583,7.52-9.417,10.868l-1.273,1.908ZM73.866,49.086c-.511-.468-1.766,1.022-2.14,1.412-3.531,3.686-7.358,8.567-10.665,12.57-.441.534-1.149.768-.944,1.659l2.612-1.888,11.137-13.754ZM54.898,70.895c1.288-.842,1.999-.83,2.639-2.813l2.575-2.873c-2.331-.031-2.295,2.065-3.301,3.436-.506.69-1.158,1.218-1.913,2.25-.956.624-1.853.83-2.371,2.366.772.727,2.243-2.191,2.371-2.366ZM49.685,76.106c1.289.055,1.949-1.442,2.833-2.134-1.022.135-2.227,1.336-2.833,2.134ZM49.68,76.587c-.517-.517-1.461.426-.943.943s1.461-.426.943-.943ZM75.057,102.675l-.706.706c-.009.497,1.186-.282.706-.706ZM71.498,105.981c.799.375,1.739-1.126,2.359-1.66-.547.017-2.691,1.504-2.359,1.66ZM71.016,107.406c.341-.666-.3-1.265-.465-.944-.341.666.3,1.265.465.944ZM70.07,107.887c-.694-.156-.991.199-1.411.711.472.204,1.871-.49,1.411-.711Z" fill="#fff"/>
      <path d="M48.079,20.339c.861.586,1.771,2.236,2.531,2.92,3.708,3.339,11.784,9.903,14.491,13.483,1.679,2.219,1.13,3.103-.244,5.465-2.279,3.918-7.63,10.278-10.663,13.996-3.597,4.408-7.577,8.576-11.362,12.818-.668.537-1.565.598-2.377.456-.403-.07-5.799-4.081-6.662-4.745-4.584-3.527-8.667-7.852-13.238-11.42-4.709-13.116-7.329-26.827-10.271-40.437.11-.545,1.511-.72,2.046-.674,3.971.341,9.866,2.607,14.098,3.467,4.704.957,18.42,2.473,21.651,4.671ZM15.059,16.363c-1.152-.183-1.06.165-.913,1.149.279,1.858,1.395,5.591,2.009,7.486.161.497.119,1.432.802,1.32.314-3.464-.925-6.717-1.899-9.955ZM41.149,21.098l7.574,2.619c-1.186-2.461-2.853-2.932-5.429-3.103-.51-.034-2.234-.332-2.145.485Z" fill="#fff"/>
      <path d="M126.221,100.111c.552.647,1.589,1.316,2.15,1.987,4.331,5.178,8.12,10.754,12.385,15.965-2.217,2.665-16.601,19.724-18.347,20.07-1.849.366-4.291-3.035-5.641-4.157-3.993-3.322-8.29-6.233-12.305-9.508-6.007-4.901-11.668-10.192-17.733-15.022-.733-2.513,6.415-6.057,5.898-9.118,1.216-2.535,9.033-8.702,11.625-10.663,1.372-1.038,6.145-4.776,7.428-4.952,1.222-.167,2.378,1.422,3.209,2.298,3.959,4.174,7.6,8.726,11.33,13.101ZM97.097,101.715c.341-.666-.3-1.265-.465-.944-.341.666.3,1.265.465.944ZM96.151,101.72c-.47-.494-2.003,1.26-2.381,1.644-1.563,1.585-3.321,3.52-4.674,5.294l2.622,2.475,1.114.07c-.056-3.581,2.03-6.366,3.32-9.484ZM111.802,125.432c-.152.121.915,1.616,1.185,1.892,1.085,1.11,6.115,4.769,7.588,5.69.852.532,1.719.371,1.649-.237-.061-.537-7.414-5.87-8.504-6.661-.645-.468-.985-.886-1.919-.684Z" fill="#fff"/>
    </g>
  </g>
</svg>