<?xml version="1.0" encoding="UTF-8"?>
<svg id="Ebene_1" xmlns="http://www.w3.org/2000/svg" version="1.1" viewBox="0 0 150 150">
  <!-- Generator: Adobe Illustrator 29.1.0, SVG Export Plug-In . SVG Version: 2.1.0 Build 142)  -->
  <g id="POtzBW">
    <path d="M103.435,12.184c21.559,3.944,27.77,30.185,10.061,43.246,23.063,17.146,4.18,51.309-22.725,41.113l-6.879-4.007v25.389c0,1.125-1.847,5.743-2.489,6.998-3.704,7.232-10.411,11.132-18.17,12.811-1.954-.181-4.253.253-6.142,0-21.373-2.867-27.807-31.166-10.061-43.246-13.797-9.298-13.81-29.767,0-39.059-10.964-8.082-14.214-23.284-5.301-34.324,3.424-4.241,9.94-8.273,15.361-8.922h46.344ZM76.634,19.996h-19.822c-1.473,0-5.407,2.331-6.687,3.362-8.231,6.626-7.829,19.238.86,25.34,6.88,4.832,16.644,1.344,24.509,2.875l1.14-.607v-30.969ZM83.892,19.996v30.969l1.14.607c7.865-1.531,17.629,1.957,24.509-2.875,8.541-5.998,8.992-18.382,1.158-25.08-1.33-1.137-5.392-3.621-6.985-3.621h-19.822ZM76.634,59.056h-19.264c-7.126,0-13.339,9.771-13.153,16.478s6.684,15.328,13.711,15.328h18.705v-31.806ZM97.716,59.201c-20.2,2.715-16.811,33.767,4.265,31.598,21.003-2.161,17.804-34.564-4.265-31.598ZM76.634,115.693c.638-5.149-.471-11.45,0-16.74l-1.14-.607c-8.357,1.562-17.943-2.186-25.117,3.383-13.184,10.235-4.006,30.98,13.444,27.944,6.251-1.087,12.045-7.784,12.813-13.98Z" fill="#fff"/>
  </g>
</svg>