<?xml version="1.0" encoding="UTF-8"?>
<svg id="Ebene_1" xmlns="http://www.w3.org/2000/svg" version="1.1" viewBox="0 0 225 225">
  <!-- Generator: Adobe Illustrator 29.1.0, SVG Export Plug-In . SVG Version: 2.1.0 Build 142)  -->
  <g id="d7mZx9">
    <path d="M225,120.972c-2.29,10.003-3.496,20.413-7.069,29.935-12.184,32.478-34.678,55.09-67.432,67.125-7.116,2.615-9.831.66-9.877-7.068-.049-8.167-.043-16.336-.004-24.503.041-8.6-.538-17.018-6.701-23.854,7.346-2.012,14.527-3.398,21.274-5.937,18.263-6.873,26.452-21.427,28.568-39.908,1.615-14.099.281-27.644-9.563-39.089-.787-.914-.686-3.035-.327-4.42,2.079-8.002,1.293-15.786-.963-23.626-1.052-3.656-3.533-4.545-6.367-3.518-6.993,2.535-14.007,5.178-20.606,8.569-3.75,1.926-6.834,2.771-11.117,1.794-15.298-3.488-30.714-3.457-46.004.325-3.124.773-5.528.134-8.38-1.326-6.63-3.393-13.439-6.576-20.464-9.008-5.723-1.981-6.712-.951-8.405,4.945-2.114,7.364-2.299,14.723-.341,22.178.35,1.333.146,3.298-.63,4.37-24.084,33.247-5.596,77.373,34.857,83.049,1.792.251,3.563.65,4.903.898-1.817,4.604-3.47,9.057-5.365,13.405-.461,1.057-1.57,2.242-2.627,2.566-11.938,3.66-21.479,3.176-29.175-8.826-3.73-5.816-8.24-10.572-15.038-12.351-2.507-.656-5.33-.106-8.009-.106l-.676,1.387c1.473,1.611,2.981,3.193,4.413,4.84,3.66,4.208,8.977,7.879,10.617,12.775,5.459,16.295,18.94,19.11,34.863,17.991,1.445-.102,2.875-.406,5.159-.741,0,7.381.3,14.337-.105,21.252-.272,4.636-3.734,6.057-8.993,4.256-22.81-7.811-40.96-21.826-54.851-41.438C9.475,161.255,2.678,143.954.86,124.773c-.122-1.283-.566-2.535-.86-3.801,0-6.002,0-12.003,0-18.005.376-2.252.795-4.497,1.121-6.756C9.858,35.603,65.124-7.165,125.914.835c47.649,6.271,78.846,33.52,94.114,78.896,2.51,7.458,3.356,15.477,4.972,23.236v18.005Z" fill="#fff"/>
  </g>
</svg>