<?xml version="1.0" encoding="UTF-8"?>
<svg id="Ebene_1" xmlns="http://www.w3.org/2000/svg" version="1.1" viewBox="0 0 150 150">
  <!-- Generator: Adobe Illustrator 29.1.0, SVG Export Plug-In . SVG Version: 2.1.0 Build 142)  -->
  <g id="V5YGn0">
    <g>
      <path d="M11.397,24.932c2.032-9.583,15.896-11.333,18.782-1.61h31.661c.33-1.636-.83-7.415.88-7.975,5.978.322,12.878-.685,18.738-.106,4.728.467,2.425,4.486,2.92,8.081h28.978c2.88-9.782,16.813-8.058,18.782,1.61v3.22c-2.033,9.584-15.896,11.333-18.782,1.61h-15.026l9.13,6.7c9.457,8.74,15.294,20.352,17.773,32.94,3.213.245,5.576-.953,6.904,2.753v13.416c-.628.529-.719,1.747-1.29,2.199-1.133.897-15.723.853-16.948-.329-1.545-1.491-1.399-12.976-.848-15.321.786-3.347,2.796-2.68,5.672-2.646-2.269-18.322-16.74-34.058-34.342-39.176-.306,1.946.981,6.687-1.455,7.405l-20.209.033c-1.594-.521-.653-4.597-.877-6.113-.117-.796.317-.857-.81-.8-2.604.132-8.246,2.998-10.651,4.385-12.188,7.024-21.207,20.363-23.42,34.262,2.337.187,5.132-1.004,5.781,2.001.358,1.659.364,13.974-.161,15.162-.167.377-.964,1.175-1.342,1.342-1.42.626-15.149.526-16.316-.295-.821-.578-.771-.906-.875-1.809-.208-1.817-.175-14.359.296-15.327,1.061-2.181,5.391-.171,6.455-1.595,2.506-12.977,9.224-25.248,19.292-33.835,2.314-1.974,4.985-3.372,7.258-5.353h-17.172c-3.02,9.721-16.647,8.073-18.782-1.61v-3.22Z" fill="#fff"/>
      <path d="M71.5,52.837v42.126c0,.299-3.37,1.817-3.213,4.786.278,5.269,8.724,5.679,9.097.011.216-3.281-3.201-4.494-3.201-4.797v-41.589l5.428.312c4.084,16.371,11.375,31.712,19.571,46.362l.128,1.748-9.007,22.703-34.011.161c-1.029-.351-4.69-9.915-5.435-11.737-.909-2.222-4.744-10.902-4.491-12.455,8.125-15.185,15.995-30.822,20.356-47.578l4.778-.053Z" fill="#fff"/>
      <rect x="55.938" y="128.502" width="33.271" height="6.44" fill="#fff"/>
    </g>
  </g>
</svg>