<?xml version="1.0" encoding="UTF-8"?>
<svg id="Ebene_1" xmlns="http://www.w3.org/2000/svg" version="1.1" viewBox="0 0 150 150">
  <!-- Generator: Adobe Illustrator 29.1.0, SVG Export Plug-In . SVG Version: 2.1.0 Build 142)  -->
  <g id="_x36_Fb4mA">
    <g>
      <path d="M16.028,11.276v-2.795h117.945v2.795l-10.897,116.271-47.237,13.971h-1.677l-47.224-13.984L16.028,11.276ZM129.501,12.953H20.499l10.31,111.827,44.191,12.264,44.191-12.264,10.31-111.827Z" fill="#fff"/>
      <path d="M42.579,79.472c-1.462-.408-1.746-4.852-1.953-6.432-1.475-11.239-2.944-26.213-3.378-37.474-.035-.903.108-2.564.995-3.05l73.153-.098.822.46c.34.661.475,1.339.463,2.085-.055,3.314-.598,9.591-1.1,12.894-.156,1.023-.593,1.862-1.365,2.548h-52.824l.559,10.621h50.588c.098,0,.984.861,1.108,1.126.635,1.358-.118,8.211-.273,10.33-.753,10.283-1.675,21.576-2.862,31.794-.142,1.225-.489,2.495-.774,3.698l-31.257,8.915-30.205-8.929c-.365-.992-.655-2.071-.795-3.118-.763-5.692-1.577-13.853-1.768-19.534-.031-.923.534-3.041,1.425-3.041h15.651c2.175,0,1.54,9.854,2.459,11.516.512.64,12.968,4.122,14.182,4.015,1.139-.101,12.54-3.283,12.984-3.793l1.958-14.532h-47.793ZM108.259,36.43H41.741l3.354,38.57h47.234c2.501,0,2.039,4.744,1.978,6.452-.175,4.949-1.266,10.529-1.693,15.495-.479.873-15.644,4.887-17.616,4.927-1.804.037-15.946-3.625-17.223-4.477-1.42-.947-1.001-8.522-1.5-10.659h-10.062l2.016,18.507,26.771,7.205,27.052-7.324,3.413-40.188h-50.867l-1.587-17.52.749-.926h53.383l1.118-10.062Z" fill="#fff"/>
    </g>
  </g>
</svg>