<?xml version="1.0" encoding="UTF-8"?>
<svg id="Ebene_1" xmlns="http://www.w3.org/2000/svg" version="1.1" viewBox="0 0 150 150">
  <!-- Generator: Adobe Illustrator 29.1.0, SVG Export Plug-In . SVG Version: 2.1.0 Build 142)  -->
  <g id="qQEVTC">
    <g>
      <path d="M120.256,9.286c3.135.791,5.751,1.184,8.694,2.693,6.991,3.585,10.368,10.317,11.744,17.745v90.512c-.742,2.142-.825,3.97-1.65,6.233-2.277,6.242-8.207,11.759-14.661,13.368-1.382.344-3.14-.151-4.127.837H29.744c-.988-1-2.747-.477-4.127-.837-7.09-1.851-13.693-8.329-15.474-15.474-.344-1.382.151-3.14-.837-4.127V29.14c1.494-10.496,9.834-18.778,20.438-19.854h90.512ZM107.993,41.403h-11.679v25.694c-.924-.098-.896-1.342-1.72-2.076-10.139-9.039-25.681-1.92-29.924,9.849-6.783,18.817,6.9,41.979,27.746,30.666l5.059-5.151.006,7.004h10.511V41.403ZM53.686,44.907h-11.679v62.483h11.679v-62.483Z" fill="#fff"/>
      <path d="M84.5,70.165c6.636-.818,11.166,3.669,11.807,10.077.764,7.634.212,18.261-9.64,18.988-15.502,1.144-15.698-27.397-2.167-29.065Z" fill="#fff"/>
    </g>
  </g>
</svg>