<?xml version="1.0" encoding="UTF-8"?>
<svg id="Ebene_1" xmlns="http://www.w3.org/2000/svg" version="1.1" viewBox="0 0 150 150">
  <!-- Generator: Adobe Illustrator 29.1.0, SVG Export Plug-In . SVG Version: 2.1.0 Build 142)  -->
  <g id="ap2EDG">
    <g>
      <path d="M34.377,10.845c4.076,1.115,7.656,2.517,10.831,5.382,1.151,1.039,1.432,2.912,3.117,3.141l80.228-.015,3.025.676.118,116.88-1.177,1.937H30.964c-1.096-.542-1.083-.793-1.177-1.937-1.302-15.847,1.08-33.475.007-49.515-1.817-4.31-5.831-7.578-8.38-11.531l-.136-28.877c-.253-1.851-2.345-2.259-3.393-3.433-8.848-9.907-6.286-25.456,5.954-31.013l5.418-1.693h5.12ZM33.808,37.299v12.231l4.303-.533.375-5.605c9.956-4.765,10.893-19.552,1.77-25.625-14.67-9.765-31.481,9.373-19.546,22.391,3.162,3.449,5.724,2.968,4.563,9.374l4.305-.535c.077-3.277,1.045-9.402-.393-12.195-.806-1.565-5.57-4.545-4.797-6.041l2.309-2.269,5.12,5.099c1.249-.754,3.942-5.043,5.4-4.29l2.269,2.309-5.678,5.689ZM127.675,23.93H49.737c3.156,7.889-.459,17.469-7.406,22.019l-.11,29.345-8.413,10.929v48.64h93.867V23.93ZM38.359,53.512h-13.084v4.551h12.231l.764-.941.09-3.61ZM29.826,62.045h-4.551v10.809h4.551v-10.809ZM38.359,62.045h-4.551v10.809h4.551v-10.809ZM35.512,76.84c-2.08.188-4.534-.273-6.55-.004-.789.105-.985-.313-.836.845l3.691,4.266,3.695-5.107Z" fill="#fff"/>
      <path d="M110.608,92.197h7.964c.588,5.431,1.11,12.492.602,17.953-.089.962.047,1.888-.831,2.582-1.714,1.354-24.904.434-28.784-.055v-24.462l8.533-.569v-7.964c1.907-.712,12.516-1.37,12.516.853v11.662ZM102.075,109.263l3.61-.09.941-.764v-24.462c-1.019-1.275-3.45-1.329-4.551,0v25.316ZM93.541,109.263l3.61-.09.941-.764v-15.929c-1.019-1.275-3.45-1.329-4.551,0v16.782ZM115.159,96.179h-4.551v13.084l3.61-.09.941-.764v-12.231Z" fill="#fff"/>
      <path d="M55.3,79.276c22.868-2.557,25.856,32.201,3.249,33.964-21.853,1.705-24.947-31.538-3.249-33.964ZM55.426,83.663c-10.157,1.28-14.369,13.405-7.68,21.038l7.68-9.376v-11.662ZM59.408,83.663v10.24h10.24c-.136-5.206-5.368-9.47-10.24-10.24ZM69.648,98.454h-11.947l-6.243,8.274c-.35,1.503,4.36,2.291,5.478,2.322,5.994.168,12.399-4.387,12.712-10.596Z" fill="#fff"/>
      <path d="M86.58,46.551l-28.5.18c-1.429-.909-1.355-14.202-.337-15.648.613-.871.96-.817,1.917-.927,8.037-.922,18.245.52,26.488.314.948.526,1.036,1.283,1.161,2.252.251,1.945.218,12.872-.73,13.829ZM82.732,34.17h-21.049v8.533h21.049v-8.533Z" fill="#fff"/>
      <path d="M58.648,53.606c4.516.714,24.869-1.371,27.504.184,1.659.979,1.582,14.385.521,15.894-.613.871-.96.817-1.917.927-2.703.31-25.351.363-26.492-.31-1.595-.941-1.354-10.939-1.158-13.118.107-1.192.206-3.13,1.543-3.577ZM82.732,57.494h-21.049v9.102h21.049v-9.102Z" fill="#fff"/>
      <rect x="87.284" y="126.33" width="34.133" height="3.982" fill="#fff"/>
      <rect x="40.066" y="126.33" width="34.133" height="3.982" fill="#fff"/>
      <rect x="91.266" y="64.321" width="30.151" height="3.982" fill="#fff"/>
      <rect x="91.266" y="40.997" width="30.151" height="3.982" fill="#fff"/>
      <rect x="48.599" y="117.797" width="25.6" height="3.982" fill="#fff"/>
      <rect x="95.817" y="117.797" width="25.6" height="3.982" fill="#fff"/>
      <rect x="99.799" y="55.788" width="21.618" height="3.982" fill="#fff"/>
      <rect x="99.799" y="32.463" width="21.618" height="3.982" fill="#fff"/>
      <rect x="91.263" y="55.785" width="4.557" height="3.988" fill="#fff"/>
      <rect x="91.263" y="32.46" width="4.557" height="3.988" fill="#fff"/>
      <rect x="40.063" y="117.794" width="4.557" height="3.988" fill="#fff"/>
      <rect x="87.281" y="117.794" width="3.988" height="3.988" fill="#fff"/>
    </g>
  </g>
</svg>