<?xml version="1.0" encoding="UTF-8"?>
<svg id="Ebene_1" xmlns="http://www.w3.org/2000/svg" version="1.1" viewBox="0 0 150 150">
  <!-- Generator: Adobe Illustrator 29.1.0, SVG Export Plug-In . SVG Version: 2.1.0 Build 142)  -->
  <g id="e0oLuy">
    <path d="M133.489,8.188l-10.58,119.557-46.727,13.374h-1.772l-47.185-13.963L16.511,8.188h116.979ZM71.455,31.82h-33.085c.575,1.794.734,14.179,2.068,14.179h16.247v50.218c-1.886-.317-4.985-.212-6.672-.713-2.917-.868-1.775-9.626-2.781-12.284h-14.77l1.85,22.962c9.985,2.384,20.125,4.117,30.217,6.023.488.092.396,1.07.697,1.058,2.068-.084,4.018-.214,6.229.089V31.82ZM118.129,31.82h-38.993v44.31h20.087c-1.143,3.681-.303,15.598-1.94,18.148-1.435,2.234-15.431,2.426-18.147,4.598v14.475l32.207-7.672,3.832-44.319h-20.678v-14.77h21.564c.408,0,.803-.983.889-1.475.714-4.095.024-9.177,1.179-13.295Z" fill="#fff"/>
  </g>
</svg>