<?xml version="1.0" encoding="UTF-8"?>
<svg id="Ebene_1" xmlns="http://www.w3.org/2000/svg" version="1.1" viewBox="0 0 150 150">
  <!-- Generator: Adobe Illustrator 29.1.0, SVG Export Plug-In . SVG Version: 2.1.0 Build 142)  -->
  <g id="anpFss">
    <g>
      <path d="M37.542,11.278c23.331-2.798,51.451,1.698,75.278-.101,13.96,2.155,25.147,13.781,26.305,27.965,1.884,23.084-1.381,48.606,0,71.949-1.148,15.118-13.644,26.899-28.608,28.022-23.03,1.728-48.113-1.268-71.36-.002-13.688-.927-26.754-13.067-28.02-26.84-2.194-23.872,1.495-51.126.143-75.344,2.335-12.982,12.972-24.054,26.262-25.648ZM38.118,19.523c-9.72,1.54-17.817,9.698-18.723,19.62-2.088,22.866,1.537,48.766-.005,71.953,1.253,10.204,9.423,18.575,19.732,19.791,23.042-1.903,50.009,2.456,72.585-.021,9.561-1.049,18.311-10.211,19.193-19.74,2.127-22.99-1.636-49.239-.032-72.575-1.405-9.823-9.816-18.216-19.759-19.174-23.01-2.215-49.613,1.522-72.991.146Z" fill="#fff"/>
      <path d="M45.931,97.828h23.891c2.804,0,4.633,7.302-1.213,8.225-4.707.743-20.962.595-25.922.033-3.526-.4-4.723-1.463-5.043-4.985-1.527-16.835,1.169-36,.063-53.084.922-5.926,8.224-3.472,8.224-.625v50.436Z" fill="#fff"/>
      <path d="M92.539,65.383c5.046-2.949,10.849-4.959,16.835-4.158,3.895.521,4.334,5.862,1.024,7.571-2.43,1.255-6.372.479-9.593,1.616-13.203,4.66-6.402,22.4-8.287,32.415-.763,4.051-7.412,4.503-8.209-.61,1.051-11.495-1.556-25.936.022-37.072.133-.939.447-2.337,1.132-2.997,3.372-2.04,7.021-1.04,7.076,3.235Z" fill="#fff"/>
    </g>
  </g>
</svg>