<?xml version="1.0" encoding="UTF-8"?>
<svg id="Ebene_1" xmlns="http://www.w3.org/2000/svg" version="1.1" viewBox="0 0 225 225">
  <!-- Generator: Adobe Illustrator 29.1.0, SVG Export Plug-In . SVG Version: 2.1.0 Build 142)  -->
  <g id="Tr0WgM">
    <path d="M109.438.374c2.042,0,4.083,0,6.125,0,1.134.185,2.262.42,3.402.547,4.472.5,9.007.659,13.414,1.496,27.233,5.169,49.728,18.462,67.17,40.025,13.751,17,21.767,36.455,23.988,58.252.293,2.875.642,5.745.964,8.618v6.125c-.186,1.134-.406,2.265-.554,3.404-.699,5.393-1.03,10.86-2.123,16.171-5.174,25.125-17.692,46.017-37.203,62.597-17.377,14.767-37.483,23.422-60.23,25.782-2.945.306-5.886.654-8.828.983h-6.125c-1.132-.186-2.259-.409-3.397-.551-5.255-.654-10.602-.874-15.756-1.991-32.878-7.127-57.895-25.273-74.884-54.311-7.813-13.355-12.387-27.828-13.922-43.244-.294-2.95-.651-5.894-.98-8.841,0-2.042,0-4.083,0-6.125.182-1.063.395-2.123.542-3.191.853-6.175,1.213-12.463,2.614-18.511,7.072-30.525,24.187-54.014,50.693-70.582,14.139-8.838,29.624-14.023,46.255-15.675,2.948-.293,5.889-.651,8.834-.978ZM175.569,175.429c.05-.712.107-1.145.106-1.578-.008-19.104.187-38.211-.155-57.309-.111-6.192-1.174-12.467-2.612-18.511-2.392-10.054-8.283-17.481-18.815-19.688-5.128-1.074-10.582-1.291-15.827-.952-7.91.511-15.336,2.556-18.759,11.194v-11.187h-28.05v98.008h28.224v-2.715c0-16.552-.016-33.104.018-49.655.005-2.324.161-4.656.404-6.968.508-4.829,3.562-8.368,8.207-9.708,3.147-.907,6.332-.964,9.496-.243,4.881,1.111,7.918,4.195,8.963,9.074.393,1.836.522,3.759.527,5.643.038,17.281.023,34.562.023,51.843,0,.91,0,1.819,0,2.752h28.25ZM77.546,175.421v-98.087h-28.092v98.087h28.092ZM49.32,56.27c-.012,8.1,6.1,14.278,14.132,14.284,7.99.006,14.202-6.094,14.228-13.971.027-8.153-6.033-14.371-14.024-14.389-8.127-.019-14.324,6.067-14.336,14.077Z" fill="#fff"/>
  </g>
</svg>