<?xml version="1.0" encoding="UTF-8"?>
<svg id="Ebene_1" xmlns="http://www.w3.org/2000/svg" version="1.1" viewBox="0 0 150 150">
  <!-- Generator: Adobe Illustrator 29.1.0, SVG Export Plug-In . SVG Version: 2.1.0 Build 142)  -->
  <g id="MoAwqn">
    <g>
      <path d="M130.255,13.757c3.093,1.275,4.712,2.89,5.988,5.988v110.51c-1.275,3.093-2.89,4.712-5.988,5.988H19.745c-3.098-1.276-4.713-2.895-5.988-5.988V19.201c1.583-2.669,3.061-4.267,5.988-5.444h110.51ZM49.142,81.26h11.16c16.111,0,27.269-18.281,19.774-32.839-7.818-15.183-32.218-11.105-46.176-10.168v66.959h15.243v-23.953ZM118.281,57.861c-10.139-4.616-28.164-4.439-32.933,7.617-2.851,7.206-.279,13.312,6.091,17.307,2.925,1.835,12.944,4.638,13.659,7.025,2.811,9.377-15.401,4.572-19.477,2.336l-2.73,10.879c13.832,6.117,39.869,4.919,36.972-16-.438-3.159-3.237-6.565-5.764-8.39-2.879-2.078-14.105-5.398-14.768-7.55-2.559-8.308,12.343-4.936,16.22-2.889l2.73-10.335Z" fill="#fff"/>
      <path d="M49.142,69.284v-20.142c7.741-1.354,18.004-.465,17.994,9.527-.01,10.025-9.927,11.668-17.994,10.616Z" fill="#fff"/>
    </g>
  </g>
</svg>