<?xml version="1.0" encoding="UTF-8"?>
<svg id="Ebene_1" xmlns="http://www.w3.org/2000/svg" version="1.1" viewBox="0 0 100 100">
  <!-- Generator: Adobe Illustrator 29.1.0, SVG Export Plug-In . SVG Version: 2.1.0 Build 142)  -->
  <g id="Pg29wc">
    <path d="M56.353,15.318c1.507.181,5.64,1.416,7.248,1.968,5.077,1.743,9.646,4.742,13.505,8.435l11.147-9.906v31.313h-31.9c1.581-3.018,13.325-12.146,13.9-14.256.211-.775-.007-.884-.454-1.389-1.06-1.198-5.055-3.6-6.625-4.329-15.541-7.21-34.434.702-39.19,17.271-5.746,20.016,11.712,38.384,31.98,34.872,8.351-1.447,15.309-6.598,19.578-13.779h9.719c-3.102,9.813-12.94,18.354-22.709,21.342C28.043,97.416-.313,59.034,21.254,29.773c5.281-7.165,15.675-13.499,24.632-14.454,2.449-.261,8.05-.29,10.467,0Z" fill="#5e4a9d"/>
  </g>
</svg>