<?xml version="1.0" encoding="UTF-8"?>
<svg id="Ebene_1" xmlns="http://www.w3.org/2000/svg" version="1.1" viewBox="0 0 150 150">
  <!-- Generator: Adobe Illustrator 29.1.0, SVG Export Plug-In . SVG Version: 2.1.0 Build 142)  -->
  <g id="pWF57C">
    <g>
      <path d="M91.402,9.646c7.619-.595,13.661,5.245,14.106,12.702.692,11.607-.537,23.892,0,35.57-1.098,16.412-24.288,16.986-26.139.618.577-12.016-.746-24.717-.001-36.653.403-6.465,5.578-11.733,12.035-12.237Z" fill="#fff"/>
      <path d="M21.06,44.584l37.837-.051c16.18,2.46,15.437,25.268-1.545,26.14-11.923.612-24.511-.334-36.474-.18-14.928-2.483-14.8-23.61.182-25.909Z" fill="#fff"/>
      <path d="M92.174,79.368c11.424-.766,23.557.485,35.054-.052,16.679.916,17.52,23.601,1.52,26.113l-37.553.026c-16.044-2.118-15.689-24.969.979-26.087Z" fill="#fff"/>
      <path d="M57.235,79.369c6.833-.262,12.771,5.166,13.334,11.929v37.27c-1.908,15.609-24.067,15.619-25.984,0v-37.424c.625-6.562,6.116-11.524,12.65-11.774Z" fill="#fff"/>
      <path d="M114.158,70.666c.314-4.788-.492-10.195.173-14.901,1.418-10.027,13.502-14.881,21.318-8.214,8.563,7.303,4.655,21.297-6.46,22.918-4.756.694-10.194-.112-15.032.197Z" fill="#fff"/>
      <path d="M35.78,79.322c-.22,4.484.289,9.236.006,13.689-.548,8.619-8.777,14.498-17.133,11.864-8.23-2.594-11.58-12.781-6.652-19.881,5.616-8.092,15.346-5.1,23.78-5.672Z" fill="#fff"/>
      <path d="M79.375,114.261h14.455c4.056,0,8.786,3.968,10.413,7.52,5.495,11.999-8.133,23.675-19.041,16.413-2.706-1.801-5.827-6.139-5.827-9.478v-14.455Z" fill="#fff"/>
      <path d="M70.563,35.726h-14.455c-2.934,0-7.142-2.759-8.863-5.051-8.658-11.528,4.705-26.561,17.122-19.131,2.762,1.653,6.196,6.095,6.196,9.418v14.764Z" fill="#fff"/>
    </g>
  </g>
</svg>