<?xml version="1.0" encoding="UTF-8"?>
<svg id="Ebene_1" xmlns="http://www.w3.org/2000/svg" version="1.1" viewBox="0 0 150 150">
  <!-- Generator: Adobe Illustrator 29.1.0, SVG Export Plug-In . SVG Version: 2.1.0 Build 142)  -->
  <g id="_x31_jsxIP">
    <g>
      <path d="M124.752,130.28h-5.853V48.335h-28.012c-.148,0-2.09-1.943-2.09-2.09v-28.012H31.101v112.047h-5.853V15.307c0-2.448,3.595-2.806,5.4-2.96,19.648-1.68,41.829,1.18,61.741.205l32.364,32.021v85.708ZM93.814,22.414v20.068h20.904l-20.904-20.068Z" fill="#fff"/>
      <path d="M85.452,143.659h-5.017v-25.503c0-1.574-4.181-1.574-4.181,0v19.65h-5.017v-20.904h-4.181v26.758h-5.017v-33.029c0-.903,9.648-13.683,11.333-13.838,2.645-.243,12.08,12.9,12.08,13.838v33.029ZM74.566,104.366l-1.725.528-4.108,6.987h10.026l-4.193-7.515Z" fill="#fff"/>
      <path d="M83.78,75.093v-5.853h17.142c3.559,0,3.559-9.198,0-9.198h-33.865v-5.853h32.193c8.643,0,13.4,10.415,7.961,17.159-.982,1.218-5.071,3.745-6.289,3.745h-17.142Z" fill="#fff"/>
      <path d="M82.944,39.974v5.017h-34.701c-4.833,0-6.941,8.185-1.649,9.174,1.862.348,10.064-.351,10.433.019l-.004,5.858h-12.125c-3.008,0-7.262-7.083-7.143-10.424.113-3.192,4.005-9.644,7.143-9.644h38.046Z" fill="#fff"/>
      <path d="M77.927,69.24v5.853h-32.193c-.325,0-1.734,1.648-1.923,2.268-2.12,6.937,5.766,7.508,10.707,6.926l.011,4.541c-7.758,2.25-17.057-.626-16.772-9.942.108-3.531,4.517-9.646,7.978-9.646h32.193Z" fill="#fff"/>
      <path d="M76.258,93.492l-5.85-.011-.84-9.19c5.233-.558,7.317,4.649,6.689,9.201Z" fill="#fff"/>
      <rect x="25.243" y="133.621" width="5.862" height="5.026" fill="#fff"/>
      <rect x="118.895" y="133.621" width="5.862" height="5.026" fill="#fff"/>
      <polygon points="42.811 133.621 42.812 138.647 36.95 138.642 37.735 133.99 42.811 133.621" fill="#fff"/>
      <polygon points="54.517 133.621 54.518 138.647 48.657 138.642 49.442 133.99 54.517 133.621" fill="#fff"/>
      <polygon points="101.343 138.642 95.482 138.647 95.483 133.621 100.558 133.99 101.343 138.642" fill="#fff"/>
      <polygon points="113.05 138.642 107.188 138.647 107.189 133.621 112.265 133.99 113.05 138.642" fill="#fff"/>
      <rect x="59.527" y="84.287" width="4.189" height="5.026" fill="#fff"/>
    </g>
  </g>
</svg>