<?xml version="1.0" encoding="UTF-8"?>
<svg id="Ebene_1" xmlns="http://www.w3.org/2000/svg" version="1.1" viewBox="0 0 150 150">
  <!-- Generator: Adobe Illustrator 29.1.0, SVG Export Plug-In . SVG Version: 2.1.0 Build 142)  -->
  <g id="FVhpNp">
    <g>
      <path d="M21.104,3.32c3.644,1.463,6.957,2.567,9.242,6.024,1.106,1.674,1.743,5.476,3.523,5.823l81.667.026c2.583,0,2.739-3.763,4.12-5.85,2.286-3.457,5.592-4.559,9.242-6.024h4.362c6.376,1.865,9.965,5.431,11.838,11.838v4.362c-1.465,3.649-2.567,6.955-6.024,9.242-2.087,1.38-5.849,1.537-5.85,4.12l.026,81.667c.347,1.78,4.149,2.417,5.823,3.523,3.457,2.285,4.561,5.597,6.024,9.242v4.362c-1.873,6.407-5.463,9.973-11.838,11.838h-4.362c-3.644-1.463-6.957-2.567-9.242-6.024-1.106-1.674-1.743-5.476-3.523-5.823l-81.667-.026c-2.583,0-2.739,3.763-4.12,5.85-2.286,3.457-5.592,4.559-9.242,6.024h-4.362c-6.407-1.873-9.973-5.463-11.838-11.838v-4.362c1.465-3.649,2.567-6.955,6.024-9.242,2.087-1.38,5.849-1.537,5.85-4.12l-.026-81.667c-.347-1.78-4.149-2.417-5.823-3.523-3.457-2.285-4.561-5.597-6.024-9.242v-4.362c1.865-6.376,5.431-9.965,11.838-11.838h4.362ZM33.339,19.606c-1.722,2.494-1.913,4.657-4.12,7.096-1.104,1.22-2.387,2.222-3.814,3.04-1.556.892-4.033.564-4.309,2.545l.292,83.214c4.384,1.433,7.591,3.419,9.936,7.511.892,1.556.564,4.033,2.545,4.309l83.214-.292c1.433-4.384,3.419-7.591,7.511-9.936,1.556-.892,4.033-.564,4.309-2.545l-.292-83.214c-4.384-1.433-7.591-3.419-9.936-7.511-.892-1.556-.564-4.033-2.545-4.309l-82.791.092Z" fill="#fff"/>
      <path d="M82.165,106.128h19.004c.206,0,.946.825,1.558.623v12.15l-.935.935h-53.585l-.935-.935v-12.15c.612.202,1.352-.623,1.558-.623h19.004v-61.996l-.935-.935h-15.577c-3.097,0-10.551,11.23-13.704,11.276-.716.01-1.43-.042-1.911-.648-.653-.933-.638-20.776-.274-22.778.344-1.89,2.361-2.18,4.021-2.209l72.79.168c1.23.326,2.074.708,2.32,2.041.367,1.982.379,21.845-.274,22.778-.482.606-1.196.658-1.911.648-3.153-.046-10.607-11.276-13.704-11.276h-15.577l-.935.935v61.996Z" fill="#fff"/>
    </g>
  </g>
</svg>