<?xml version="1.0" encoding="UTF-8"?>
<svg id="Ebene_1" xmlns="http://www.w3.org/2000/svg" version="1.1" viewBox="0 0 150 150">
  <!-- Generator: Adobe Illustrator 29.1.0, SVG Export Plug-In . SVG Version: 2.1.0 Build 142)  -->
  <g id="M6b2U3">
    <g>
      <path d="M16.194,127.91c-6.21-.597-9.901-6.005-10.188-11.883-.237-4.851.009-10.09,0-14.989-.031-18.199-.019-36.695,0-54.904.007-6.905-.343-14.326,0-21.162.333-6.628,4.435-11.286,11.108-11.883l115.746-.007c6.526.576,10.74,5.185,11.101,11.758.536,9.768-.294,20.156-.149,29.959.18,17.343.229,34.938.148,52.279-.008,1.824.289,6.553-.473,7.948-.963,1.764-3.564,1.97-4.786.336-.119-.159-.526-.926-.526-1.05v-9.262H11.793v11.889c0,2.24,2.578,4.949,4.794,5.19,3.368.366,7.929-.015,11.436-.008,30.74.062,61.472-.182,92.224.103,1.95.018,4.08-.286,6.039.035,2.194.359,3.108,2.798,1.83,4.591-.299.419-1.197,1.06-1.699,1.06h-36.916l-.197.197v5.386l.197.197h11.955c.431,0,1.438.815,1.7,1.191,1.337,1.921.111,4.249-2.108,4.575l-51.753.02c-2.417-.036-3.922-2.535-2.482-4.595.263-.376,1.267-1.191,1.7-1.191h12.152v-5.583l-.197-.197H16.194ZM11.793,24.32v74.753l.197.197h125.989l.197-.197V24.32c0-2.743-2.954-5.541-5.709-5.458l-115.227.002c-2.92.231-5.181,2.554-5.447,5.457ZM83.524,127.91h-17.013c-.197.253-.19.874-.201,1.241-.045,1.477-.059,3.093.136,4.54h17.013l.187-.324-.121-5.457Z" fill="#fff"/>
      <path d="M79.933,111.531c1.598,1.599.681,4.512-1.526,4.89-1.148.197-5.981.204-7.055-.054-2.975-.714-2.656-5.162.182-5.637,1.235-.207,5.361-.173,6.669-.032.491.053,1.388.49,1.73.832Z" fill="#fff"/>
      <path d="M136.568,120.85c3.441-.459,4.627,4.248,1.656,5.466-2.876,1.179-5.252-2.053-3.463-4.383.408-.531,1.143-.994,1.807-1.083Z" fill="#fff"/>
      <path d="M25.95,87.743l97.714-.039c4.069.349,3.746,5.491.395,5.791H25.91c-3.323-.297-3.559-5.267.039-5.752Z" fill="#fff"/>
      <path d="M125.915,29.466c-1.252,1.322-3.093.833-4.656.865-14.759.301-29.599.096-44.377.103-15.904.007-31.997.145-47.939-.12-1.729-.029-3.627.62-4.935-.997-1.478-1.827-.407-4.432,1.903-4.672l98.709.095c1.972.525,2.693,3.251,1.295,4.727Z" fill="#fff"/>
      <path d="M38.508,45.583c1.463-1.585,4.294-.932,4.886,1.132.568,1.978.214,7.801.199,10.193-.033,5.242.774,10.527-3.754,14.245-6.166,5.063-15.898,1.107-16.49-6.889-.414-5.602.272-11.764.063-17.42.722-2.976,5.32-2.765,5.596.331.443,4.966-.314,10.596-.011,15.644.099,1.654.465,3.028,1.88,4.032,2.749,1.949,6.731.126,6.877-3.271.218-5.045-.467-10.592-.087-15.617.059-.779.297-1.793.839-2.38Z" fill="#fff"/>
      <path d="M97.677,44.78c1.687-.31,3.001.45,3.524,2.064.407,5.339-.343,11.076.053,16.369.403,5.397,7.198,6.064,8.669,1.028.295-5.26-.363-10.917.002-16.146.266-3.818,4.034-4.703,5.724-1.378l.028,18.165c-2.563,12.172-19.535,11.087-20.203-1.8-.082-1.577.014-3.275,0-4.872-.028-3.327-.027-6.774-.006-10.11.009-1.38.712-3.045,2.21-3.32Z" fill="#fff"/>
      <path d="M57.25,52.631l3.546-6.765c2.238-2.713,6.205-.266,4.924,2.954l-5.157,10.205,5.325,10.783c.618,3.107-3.065,4.925-5.089,2.461l-3.421-6.761-3.129,6.13c-1.631,3.253-6.313,1.69-5.478-1.931l5.295-10.593-5.295-10.682c-.692-2.925,2.474-4.882,4.792-2.953,1.379,2.281,2.531,4.741,3.687,7.152Z" fill="#fff"/>
      <path d="M88.613,36.111c2.358-.359,3.962,1.881,3.151,4.07l-14.483,40.169c-1.543,3.181-6.289,1.527-5.383-2.1l14.854-40.98c.391-.545,1.198-1.058,1.862-1.159Z" fill="#fff"/>
      <path d="M125.912,45.583c.366.392.675,1.18.708,1.723l-.005,23.653c-.746,3.642-5.687,3.075-5.772-.678-.173-7.699.383-15.508.122-23.233.3-2.31,3.398-3.125,4.947-1.465Z" fill="#fff"/>
    </g>
  </g>
</svg>