<?xml version="1.0" encoding="UTF-8"?>
<svg id="Ebene_1" xmlns="http://www.w3.org/2000/svg" version="1.1" viewBox="0 0 150 150">
  <!-- Generator: Adobe Illustrator 29.1.0, SVG Export Plug-In . SVG Version: 2.1.0 Build 142)  -->
  <g id="vtNblh">
    <g>
      <path d="M6.616,19.001c1.375-2.43,3.267-5.253,6.369-5.484l114.32-.015c3.599-.011,6.758,3.53,6.961,7.02l.025,74.726c-5.203,2.06-3.533-.002-6.125-1.764-1.156-.786-3.017-.773-3.017-.931v-51.668H15.734v79.022h80.845l1.704,2.821c-.657,2.345-1.56,3.835-.491,6.293l-84.808.018c-3.102-.231-4.994-3.054-6.369-5.484V19.001ZM98.259,24.007c-1.603-.95-6.038-1.383-7.209.101-1.326,4.86-1.507,8.955,4.637,8.309,4.19-.441,3.943-5.469,2.572-8.41ZM105.52,23.387c-3.418.991-3.05,8.286.496,8.976,8.876,1.728,8.652-11.629-.496-8.976ZM117.39,31.622c1.195,1.194,6.54,1.107,7.461-.457,1.55-6.808-.5-9.763-7.461-7.157-1.096,1.097-1.096,6.518,0,7.614Z" fill="#fff"/>
      <path d="M143.384,118.081c-1.702.874-3.519,1.333-5.449,1.238l-.371,4.238c5.774,2.055,4.272,5.612.15,8.423l-4.057-2.059-2.894,2.42,1.67,5.163c-1.836.286-5.523,3.049-6.981,1.246-.621-.768-1.042-4.058-1.929-4.279-5.102-1.269-4.302,4.701-5.444,4.935l-5.701-1.562c-1.594-3.353,2.909-5.297-2.114-8.045l-4.812,2.219c-6.661-7.9-.833-5.604.561-8.464.627-1.286.222-2.626-.255-3.889l-4.96-1.325.676-6.301c2.935-.444,6.289,1.703,7.152-2.318.459-2.136-1.94-3.052-2.256-4.226-.421-1.567,2.972-4.367,4.496-4.817,1.799-.138,3.161,5.736,6.992,2.512,1.634-1.376-.815-5.229,2.119-5.775.926-.172,4.577-.174,5.207.264,1.232,3.544-.733,6.501,4.721,6.336l2.925-3.517c.552-.093,5.812,3.593,5.015,4.999l-2.898,3.659,1.772,3.448,5.174-.677,1.488,4.33v1.824ZM120.108,112.133c-8.927,2.058-3.695,17.191,4.991,12.277,6.782-3.837,3.116-14.146-4.991-12.277Z" fill="#fff"/>
      <path d="M76.363,50.097c2.251-.401,4.876,1.549,4.944,3.831.027.921-.597,2.357-.845,3.364-3.243,13.175-9.578,26.669-12.931,39.948-1.483,3.78-6.74,3.415-7.774-.408-.298-1.101.382-2.554.662-3.669,3.371-13.412,9.549-26.965,13.026-40.462.352-1.236,1.664-2.383,2.917-2.606Z" fill="#fff"/>
      <path d="M95.362,75.524c-2.328-3.526-19.45-6.041-13.652-12.737,2.341-2.704,6.48-.074,9.202,1.088,5.671,2.421,11.2,5.561,16.845,8.077,2.78,2.877,1.348,5.528-1.63,7.353-3.724,2.283-14.467,7.18-18.678,8.672-2.345.831-3.92,1.509-5.807-.848-4.777-5.966,10.397-9.488,13.72-11.604Z" fill="#fff"/>
      <path d="M45.52,75.524c3.245,1.921,14.399,4.834,14.644,8.816.372,6.04-4.946,4.256-8.369,2.846-4.49-1.849-13.572-5.711-17.433-8.098-2.826-1.747-3.499-4.718-1.176-7.237l21.437-10.027c4.254-1.698,7.487,3.685,4.237,6.686-.996.919-14.06,6.06-13.341,7.013Z" fill="#fff"/>
    </g>
  </g>
</svg>