<?xml version="1.0" encoding="UTF-8"?>
<svg id="Ebene_1" xmlns="http://www.w3.org/2000/svg" version="1.1" viewBox="0 0 150 150">
  <!-- Generator: Adobe Illustrator 29.1.0, SVG Export Plug-In . SVG Version: 2.1.0 Build 142)  -->
  <g id="VyP6Po">
    <g>
      <path d="M9.176,21.783c1.336-2.361,3.174-5.104,6.188-5.329l111.078-.015c3.497-.011,6.566,3.429,6.764,6.821l.025,72.607c-5.055,2.001-3.433-.002-5.951-1.714-1.123-.764-2.932-.751-2.932-.905v-50.203H18.036v76.781h78.553l1.656,2.741c-.639,2.279-1.516,3.726-.477,6.114l-82.403.017c-3.014-.225-4.852-2.968-6.188-5.329V21.783ZM98.221,26.648c-1.557-.923-5.867-1.344-7.005.098-1.288,4.722-1.464,8.701,4.505,8.073,4.072-.429,3.832-5.314,2.499-8.171ZM105.276,26.044c-3.321.963-2.964,8.051.482,8.722,8.625,1.679,8.407-11.299-.482-8.722ZM116.81,34.046c1.161,1.16,6.355,1.076,7.25-.444,1.506-6.615-.486-9.486-7.25-6.954-1.065,1.065-1.065,6.333,0,7.398Z" fill="#fff"/>
      <path d="M142.067,118.054c-1.654.849-3.419,1.295-5.294,1.202l-.361,4.118c5.61,1.997,4.151,5.453.146,8.184l-3.942-2.001-2.812,2.351,1.623,5.016c-1.783.278-5.366,2.963-6.783,1.211-.604-.747-1.012-3.943-1.874-4.158-4.958-1.233-4.18,4.568-5.29,4.795l-5.539-1.518c-1.549-3.257,2.827-5.147-2.054-7.817l-4.676,2.156c-6.472-7.676-.81-5.445.545-8.224.609-1.249.215-2.552-.248-3.778l-4.819-1.288.657-6.122c2.852-.432,6.111,1.655,6.95-2.252.446-2.075-1.885-2.965-2.192-4.106-.409-1.522,2.888-4.243,4.369-4.68,1.748-.134,3.072,5.573,6.793,2.441,1.588-1.337-.792-5.08,2.059-5.612.899-.168,4.447-.169,5.06.257,1.198,3.444-.713,6.317,4.587,6.156l2.842-3.417c.536-.09,5.647,3.492,4.873,4.857l-2.816,3.555,1.722,3.35,5.028-.658,1.445,4.207v1.772ZM119.45,112.274c-8.674,1.999-3.59,16.704,4.85,11.929,6.59-3.728,3.028-13.745-4.85-11.929Z" fill="#fff"/>
      <path d="M76.946,51.997c2.187-.389,4.737,1.505,4.804,3.723.027.895-.58,2.29-.821,3.269-3.151,12.801-9.306,25.913-12.564,38.815-1.441,3.673-6.549,3.318-7.553-.396-.289-1.07.371-2.481.643-3.565,3.276-13.032,9.278-26.2,12.657-39.314.342-1.201,1.617-2.315,2.834-2.532Z" fill="#fff"/>
      <path d="M95.406,76.703c-2.262-3.426-18.898-5.87-13.265-12.376,2.275-2.627,6.296-.072,8.941,1.057,5.51,2.352,10.883,5.404,16.367,7.848,2.701,2.795,1.31,5.371-1.584,7.145-3.619,2.218-14.057,6.976-18.148,8.426-2.279.807-3.809,1.466-5.642-.824-4.642-5.797,10.102-9.219,13.331-11.275Z" fill="#fff"/>
      <path d="M46.978,76.703c3.153,1.867,13.991,4.697,14.229,8.567.361,5.868-4.806,4.135-8.131,2.766-4.363-1.797-13.187-5.549-16.938-7.868-2.746-1.697-3.4-4.584-1.143-7.031l20.829-9.742c4.134-1.65,7.275,3.58,4.117,6.496-.967.893-13.662,5.888-12.963,6.814Z" fill="#fff"/>
    </g>
  </g>
</svg>