<?xml version="1.0" encoding="UTF-8"?>
<svg id="Ebene_1" xmlns="http://www.w3.org/2000/svg" version="1.1" viewBox="0 0 150 150">
  <!-- Generator: Adobe Illustrator 29.1.0, SVG Export Plug-In . SVG Version: 2.1.0 Build 142)  -->
  <g id="WaPEYm">
    <g>
      <path d="M125.64,34.645v2.661l-8.482,93.512-37.638,10.7h-2.217l-37.638-10.7-8.482-93.512v-2.661h94.456ZM107.902,54.601h-58.98l.887,11.53h45.233l-.887,11.973h-43.015l.887,11.973h40.798l-1.389,15.462c-4.493.331-9.841,3.53-14.236,3.054-3.661-.396-7.985-2.66-11.775-3.084l-.981-9.667h-11.973l2.059,18.651,23.883,6.571,24.125-6.638,5.365-59.825Z" fill="#fff"/>
      <path d="M102.137,8.481v5.321h-8.426v.887h8.426v11.973h-13.969l-.617-.7c.448-1.564.735-3.11-.048-4.621h8.426v-.887h-7.761c-.453-.332-.481-.388-.483-.905-.011-3.647.547-7.399.261-11.068h14.191Z" fill="#fff"/>
      <path d="M84.842,8.481v5.321h-8.426c-.034.288.588.887.665.887h7.761v11.973h-14.191v-5.321h7.761c.077,0,.699-.599.665-.887h-8.426v-11.973h14.191Z" fill="#fff"/>
      <path d="M67.991,8.481c-.271,1.971.69,4.673-.665,6.208h-7.761v5.765h8.426c-.276,1.969.693,4.672-.665,6.208h-13.969V8.481h14.634Z" fill="#fff"/>
    </g>
  </g>
</svg>