<?xml version="1.0" encoding="UTF-8"?>
<svg id="Ebene_1" xmlns="http://www.w3.org/2000/svg" baseProfile="tiny" version="1.2" viewBox="0 0 97.8 99.4">
  <!-- Generator: Adobe Illustrator 30.0.0, SVG Export Plug-In . SVG Version: 2.1.1 Build 123)  -->
  <path d="M84.4,11.9c3,1,11,3.1,12.6,5.9l.7,2v4.9c-.2,0-.3,0-.5,0-.6-.1-.7-.5-1.2-.5.2,4.2-.2,8.5,0,12.7s.2.9.3,1.1c.1,2,0,3.2,0,5.2l-.5.2c0-1-.4-2.6-.5-3.7-.3-3.7-1.1-7-1.5-10.5s-.2-.8-.5-.4c0,.9.1,1.9,0,2.8-.3,1.9-.8.9.1,3.1s.3,2.8.1,3.3-.5,0-.5.3c-.1.6.3.3.4.4s0,4-.2,4.5-.5.2-.5.7c-.1,1.1.4,2.1.3,3s-.4.3-.5.5c-1.5,5.6-.4,11-1.8,16.4-.8,2.9-2.6,5.3-5.8,5.4.3-.9.5-2.1.8-3s.6-.2.6-1.3c0-4.2-1.5-8.3-1.3-12.3s.3-.8.3-1-.9,0-.2-1.2.6-.4.7-.6c.2-.9-.3-2.4.2-3.4s.7,0,.5-.8-.5-.1-.5-.3c0-.6.5-2.1.3-2.9.2-.6,1.1-.5,1.4-.7.9-.8-.8-3.8-.8-4.8s.4-1.5.4-2.2c0-1.4,0-2.9,0-4.3l1.5.2c-.3-1.4.5-2.3,1-3.5,0,0,.2-.1.2-.2,1.6-.2.4,1.2.3,1.7s.2.8.2,1.1c-.4,2.3-.5,3.7-.7,6s.4.1.4.3c.3,1,0,2.4,1.5,2.3.5-2.9-.3-5.2.4-8.1s.2-2,1.9-2.1c.2-.8-.2-1.5-.3-2.2s.7-1.8-.9-2.1-.5.2-.5.2c-2,.2-2.1.7-3.5,2s-.4.5-.9,1c-1.5,1.6-1.3-.1-2.8-.7,0-.7.2-1.3.2-2s0-.5,0-.7c2.2-.6,4.4-1.5,6.7-2.2s2.8-1,4.3-1.3c1.2-1.6,0-1-.4-1.2s.3-.2-.5-.5-.9,0-1.6.5-1.6.7-1.6,1.3c-2.8,1.1-5.5,1.7-8.4,2.5-4.4,1.2-6.1,1.6-10.1,3.7s-.2,0-.2,0c-.2,0-.3.2-.5.2-.5.2-1.1.2-1.5.7-.3,0-.7,0-1,0,3.4-1.7,6.4-3.5,10-4.7s.3-.4.4-1c2-.6,3.9-1.1,5.9-1.7s2.4-.2,2.2-1c0,0,.2,0,.2,0,.9.3.7-.5.7-.5.1,0,2-.3,2.5-.5.4,0,.4.8.6.7s1.8-1,2-1.2c.3-.5,0-.5-.4-.7-1.5-1.3-3.9-1.4-5.6-2.1s-.7-.5-1.3-.8-1-.5-1.7-.7-1.7-.5-2.5-.7c.4-.6,1.2.5,1-.5ZM93.9,22.2c-.6.2-.4,1.2.5,1s.4-1.2-.5-1ZM91.6,49.1c-.7-.2-1.8,1.7-1.5,2,.6.6,1.9-1.3,1.5-2ZM87.7,57.2c.8,0,1.3-.2,1.7-.9s.6-1.9-.4-2c-2-.2-2.7,2.8-1.2,3Z" fill="#63a3c9"/>
  <path d="M97.8,24.7v8.1l-.5,4.1c0,.5.2,1.1.3,1.6s0,.4.2.5v.7c-.7-.1-.4.3-.5.5-.5,1.2-.6,2.4-.5,3.7s.3.9.2,2.2c-.7,0-.4.1-.5.5h-.2c0-1.1,0-2.3,0-3.5,0-2,.1-3.2,0-5.2.7.1.5-.4.5-.9,0-1,.2-2.4.2-3.2v-6.4c0-.9,0-1.9.2-2.8.1,0,.3,0,.5,0Z" fill="#d0e5f4"/>
  <path d="M97.8,38.5h-.2c-.1-.5-.2-1.1-.3-1.6l.5-4.1v5.7Z" fill="#63a3c9"/>
  <path d="M97.8,39.7v.5h-.5c0-.2-.2-.6.5-.5Z" fill="#b2d3e9"/>
  <path d="M97.8,39c-.2,0-.2-.3-.2-.5h.2v.5Z" fill="#b2d3e9"/>
  <path d="M88.6,26.2l-.5,2.2c1,.2.9-.8,1-.9s.4,0,.4,0c-.5,1.2-1.3,2-1,3.5l-1.5-.2c0,1.4,0,2.9,0,4.3s-.5,1.5-.4,2.2c0,1,1.8,4,.8,4.8s-1.2,0-1.4.7c.2.9-.3,2.3-.3,2.9s.5.2.5.3c.2.7-.4.6-.5.8-.6,1,0,2.4-.2,3.4s-.5.3-.7.6c-.7,1.2.2,1.1.2,1.2,0,.2-.2.6-.3,1-.1,4,1.3,8.1,1.3,12.3s-.5,1-.6,1.3c-.3.9-.4,2.1-.8,3,3.3-.1,5.1-2.4,5.8-5.4,1.4-5.4.4-10.8,1.8-16.4s.5-.1.5-.5c0-.9-.4-1.9-.3-3s.5-.2.5-.7.3-4.3.2-4.5-.5.1-.4-.4.4,0,.5-.3c.1-.5,0-2.8-.1-3.3-.9-2.3-.4-1.2-.1-3.1s0-1.9,0-2.8c.3-.4.4,0,.5.4.4,3.5,1.2,6.8,1.5,10.5-.6,1.2-.4,2.6-.5,3.8s-.9,1.2-.2,2.4,1.2-1.9,1.2-2.5l.5-.2c0,1.1,0,2.3,0,3.5s-.4,2.8-.5,4.2,0,.5-.2.7c-.6-1.3-1,.9-1.2,1.7-1,.2,0-1.2-.2-1.5s-.9,0-1,0c-.5.5-.6,6.9-.5,8s.5,1.9.5,3-.4,1.9-.3,2.7.7.9.8,1.6c-1.2.3-1.9,1.3-2.8,2s-2.9,1.2-4.2,1.4-1.2,0-1.8,0c.8,1.3,5.1.4,5.7,1,0,1.4-1.6.3-2.3.5s-.1.5-.3.5c-.5,0-2-.5-2.1.7,1.9,0,3.8.4,5.7.7l-.5.4c.4,1,.5.4,1,.5s1,.5,1.7.4l-1.6,1.7c-7.3,4.6-14.7,9-22,13.5s-1.8.5-2.5,1.8-.4.5-1.2,1c-.2-.5-.8-.2-1.2,0-4.4,2-8.7,5.4-13.8,5.5s-1,.2-.9-.5c.2,0,.3,0,.5,0,.4,0,1,0,1.3,0s.2-.5.4-.8.4-.5.5-.5c.3,0,.7,0,1.1,0s.2-.5.3-.5c2,0,3.2-.3,5.1-1s.8,0,.7-.7c0,0,.3,0,.5,0,.7,0,2.5-.8,2.5-1.5,1.9-.5,4.6-2.4,6.4-3.5s.2-.2.2-.2c.1,0,.3-.1.5-.2,2-1.1,5.8-3,7.4-4.3s.8-1.2,1.2-1.8c1.1-1.8,2.1-5.8,2.7-6.7s.8.4.2-1.2c.1,0,.4-.7.7-.7.5.1,1.5.8,1.5-.2,0,0,1,.8,1,.9s-.8.9-.9,1.5-.5,4-.3,4.3l8.1-4.8c-.2-.3-.5-.5-.8-.6-2.2-1.1-6.1-1.7-8.5-1.7-.9-1.2,1.1-1.9,1-2.3s-1.6-.5-2-.1c-.2-.3-.9-.4-.7-1,1.1-.1,1.5-.8,1.7-1.9.4-2.6.6-6.2.8-8.9.4-6.3-.2-13.2.8-19.2.7-4.2,2-6,1-10.5h.2c-.2-.7,0-1.7-.7-1.5,0-.6,0-1.3,0-2,0,0,.2,0,.2,0,1.5.6,1.3,2.3,2.8.7s.3-.5.9-1ZM86.7,37.8c-1.9-.3-.5,4,.2,2.3s-.5-.2-.5-.7,0-1.1.3-1.6Z" fill="#8dbcd9"/>
  <path d="M5.3,18.5c0,.2-.9.2-.2,1s3.3,1.2,4.3,1.5c1.7.6,3,1.4,4.9,1.7s.9,0,1.2,0v.2c0,1,1.3.7,2,1-.1.6,1.6,1.2,2.2,1.4s1.2.4,1-.4c.3,0,.7,0,1,0l-.5.6c1.6,1.2,1.7,2.7,4.1,2.4s.3-.5.5-.5c.7-.2.6.4.8.5.6.3.7.2,1,.2.6.2,1.2.4,1.7.7,0,0,0,.3,0,.4s-.5.2-.7.3-.4,0-.5,0c-.7.9,1.3,1.5,1.9,1.6s.5-.2.5-.2c.4,0,.7.2,1,.2-.2.7.9.6,1.5.7s1.6.3,2.2.5,2.2,1.2,1.7.1-1.3-1-2-1.4-1.9-1-2.9-1.4-.9,0-1.5-.8c2.1.2,5.2,1.8,6.9,3.1s.6,1.1,1.5,1.3v.2c-3.2-.7-7.2-.9-10.4-2.6s-.5-1.1-1-1.7c-.7-1-3.2-.9-4.5-1.4-4.4-1.6-9.1-4.2-13.5-5.9-.6-1.3-6.5-1.8-7.2-1.4s-.3.8-.2,1.1c3.2,1.2,6.5,2.3,9.6,3.7s1,.5,1.5.7c.1.9.2,1.1,1.2,1v1c-.1,0,2,2.2,2,2.2,0,.3,0,.7,0,1-1.3-.4-1.1,0-1.4.2s-.5,0-.6,0c-.4-.8,1.1-1.2-.6-1.4s-.4.2-.4.2c-.4,0-2-1.7-2.4-1.9-1.4-.7-1.4.2-2,.4s-.7-.6-1.1-.8c-.8-.3-1.5.2-1.7-.9,1.5.5.1-1.9,0-2-.4-.3-.8.6-1.2.7s-1.4,0-1.5,0c-.2-.1-1.8-3-2.1-3.4-.8,1.1-.8,1.7-.9,3-.1,2.2,0,5,.4,7.2.9,4.3,1.5,8,2.1,12.4s1.5,4.6.4,5.1-1-1.5-1.1-2c-.2-1-.2-2-.4-3-.2,0-.1,2.6-.1,3,.3,7.3.3,14.4.5,21.7s0,7.2.8,8.5.8.5,1,.6,0,1,.5.5-.5-.5-.5-.5c-.2-.2-.7-1.8-.7-2.2,1.1.3.6-.6.8-.7s.9,0,1.3-.3c.8-.4,2.2-1.7,3.1-2.3,2.1-1.3,5.2-3.8,7.6-2.9-.1,0-.3.5-.6.7-.8.5-3.5,1.2-2.8,2.3-.7-.5-4.4,2.4-5.1,3s-.3.7-.4.7c-.1,0-1.8-.7-1.9,1.1,0,.7,2.4-.2,2.8-.4,2.9-1.3,5.9-3.4,8.9-5s1.5-.2,1.5-.9c.5,0-.2.7.1,1.2s1.1.4,1.1.6c.2,1.2-1.2,2.4-.8.4s-2,.7-2.2,1c-.7.8-.1,1.2-1.6,1.3s-.6-.2-.9-.2-1.6,1.3-2.2,1.5-4.6,2.1-5.1,2.3-1.6-.4-1.2.2,6.7,3.7,7.7,4.1.7.1.9.2c1.6.7,2.7,1.4,4.4,1.7s.2,0,.2,0c-.1.7.3.5.7.6,2.7,1.1,5.4,2.1,8.2,3.1s.5.2.7.2.2.2.5.2c.5.2,1.4.2,1.5.2.2.1-.4.3.5.5,6,1,13.4,6.3,19.5,6.4-.1.7.4.5.9.5,5.1,0,9.4-3.5,13.8-5.5s.9-.4,1.2,0c-1.3.8-2.6,1.6-4,2.3-3.8,2-8.4,4.7-13.1,3.5-14.6-5.6-30-9.9-43.8-17.3s-3.3-3.6-3.5-6.6c-.6-8.3.2-17.5-.2-25.9-.3-5.6-1.3-11.4-1.5-17s-.4-8.7,1-11,2.6-2.4,4.2-3.4c-.3.2,0,.7,0,.7Z" fill="#63a3c9"/>
  <path d="M84.4,11.9c.2,1-.6-.1-1,.5-1.5-.5-3.1-1-4.7-1.2-.8-.5-1.8-.7-2.7-1,0-.7-2-1.1-2.7-1.2s-.9,0-1,0c-.1-.1.4-.5-.5-.5s-.3,0-.5,0c-.7-.4-2.4-1.1-3.1-1.2s-1.2.2-1.8.2c-1.6,0-2.4-.7-3.9-1l.7,1-1.9-.2c-.3.2.5.9-.2.7s-1.7-.7-2.6-.5l.5-.4c-.1-.9-.6-.7-.7-.9-.7-.5-1.7-.8-1.7-1.5,1.2.4,2.3,1.1,3.6,1.2s-.9-1-1.1-1.1c-1-.4-2.4-.8-3.4-.9l.5.7c-.5-.1-.9-.5-1-.5l.2-.7c-.5,0-1,0-1.5,0-.5-.7-3.4-1.2-3.9-1,0-.3-.4-.4-.5-.5s.2-.5-.7-.7c-1.7-.3-2.7.3-3,1.9-.8,0-2.2,1-3,.7s-.4-.5-1-.6c-2.1-.5-2.3.6-3.7,1.2s-.8.1-1.2.3c-.7.4-1.3,1-2.2,1.1-.2,1.6.8,0,1.8.5s.3.5,1.4.5c0,.6.8,1,1.3.9s.9-1,1.6-.9c.6.5-2.3,2.1-2.5,2.2-1.8-1.5-2.7-.3-4.3.3-3.8,1.2-7.2,3.8-11.1,4.1s-1.9-.1-2.8,0-1.2,0-1,.6c-.5,0-1.6.3-1.7.7-.5,0-.9.4-1.5.5-1.6.2-3.3.3-4.9.5-.1-.7.2-.4.5-.6.8-.4,2.5-.7,3-1.1s.1-.6-.3-.5c2-.8,4.2-1.8,6-2.5s3-1,3.6-.9c1.1.1,1.7.1,2.8-.3s3.2-1.3,3.3-1.5.1-.6-.3-.5c-1.6.4-3.3,1.7-5.1,1.7,2.9-1.8,8.3-3.5,11.7-5s1.5-1,2.3-1.4c2.2-1,5.9-2.8,8.2-3.2s3.8.4,5.4.9c5.4,1.6,11.1,4.1,16.5,5.9s10.6,3.2,15.8,5ZM34.6,6.9c-1.2.3-2.8.6-3.7,1.5,1.2-.1,2.9-.5,3.7-1.5Z" fill="#8dbcd9"/>
  <path d="M95.5,51.6c.2.3,0,1.1.5,1v-1.5h.2c0,.1.3.8.2,1.1-.3,5.5-.4,11-.7,16.5-.4,6.7-2,8.1-7.4,11.4s-11.7,7.1-17.2,10.4-2.5,1.5-3.8,1.7c.8-1.3,1.4-1.1,2.5-1.8,7.3-4.6,14.7-8.9,22-13.5l1.6-1.7c-.7.2-1.2-.2-1.7-.4s-.6.5-1-.5l.5-.4c-1.9-.4-3.7-.8-5.7-.7,0-1.2,1.5-.7,2.1-.7s.1-.5.3-.5c.7-.1,2.2,1,2.3-.5-.6-.6-4.9.3-5.7-1,.6,0,1.2,0,1.8,0,1.3-.2,3.2-.8,4.2-1.4s1.6-1.7,2.8-2,.5,0,.7,0,.6,0,.9-.2,0-.7.1-1,0-.3,0-.5c0-.5.2-1.1.2-1.5s0-.5,0-.7c0-.9,0-1.8,0-2.7l.2-7.6c-.4,0-.5.5-.5.9-.1,1.2,0,2.9,0,4.1h-.3c-.3.3-.4.8-.9.7-.3-2.1-.3-3.1.2-5.2s.6-3,1.2-1.7Z" fill="#63a3c9"/>
  <path d="M14.2,13.6c.5-.1.8.2.3.5s-2.2.8-3,1.1-.7-.1-.5.6c1.6-.1,3.3-.3,4.9-.5l-.2.7c0,0-.2,0-.2,0-.6,0-1.2,0-1.7,0v1.2c1,0,2.1,0,3.1,0s1,.3.9-.5c.4,0,.8,0,1.2,0v.5c-1.3.3-2.5.9-4.1,1s-.8-.7-1.3-.8-4.1,0-4.3.3,0,1.1,0,1.5l-1.5.5c1.4.7,2.2.3,3.5.2.1,1,2.4,1.2,3.2,1.2l1,1.2-1.2.2c-1.9-.3-3.2-1.1-4.9-1.7s-3.7-.8-4.3-1.5l2.6-1.2.8-.7c0-.5-.2-.4-.6-.3-.9.3-1.7,1-2.6,1.2,0,0-.3-.5,0-.7,3-1.9,5.6-2.8,8.9-4.2ZM18.2,17v.2c.2,0,.2-.2,0-.2Z" fill="#b2d3e9"/>
  <path d="M24.5,9.6c1.8,0,3.5-1.3,5.1-1.7s.5.3.3.5-2.9,1.3-3.3,1.5c-1.2.4-1.7.4-2.8.3.2-.3.5-.3.7-.5Z" fill="#b2d3e9"/>
  <path d="M96.5,46.6c-.3,1.3-.1,1.5,0,2.7s0,.7,0,1l-.5.5h-.2c0-1.4.4-2.8.5-4.2h.2Z" fill="#b2d3e9"/>
  <path d="M97.5,40.2c0,.9-.2,1.9-.2,2.8s.3,1-.5.9c-.2-1.3,0-2.5.5-3.7h.2Z" fill="#63a3c9"/>
  <path d="M97,46.1c0,1.1.2,2.3-.5,3.2-.1-1.2-.3-1.4,0-2.7s-.2-.6.5-.5Z" fill="#63a3c9"/>
  <path d="M96.5,50.3c0,0,.3.3.3.6s-.5.1-.5.2h-.2v-.2l.5-.5Z" fill="#8dbcd9"/>
  <path d="M62.7,12.1c1.9.4,4.5,1.3,6.2,2.1s1.6,2.1,1.2,2.8c.6.3.4-.5.6-.5.4,0,.9.3,1.3.4,1.2.2,5.4.9,6.3,1.3s-.2,1,1.3,1,1-.3,1.4-.2.8.5,1.3.5.1-.5.3-.5c.3,0,.7.3.8.2s0-.5.3-.6c.8-.6,2.4.8,3,1.4-2,.6-3.9,1.2-5.9,1.7s-1.7.6-1.7.5c0-.5.3-1.4-.5-1.2l.2,1.5c-1.4.2-2.6,1.2-3.9,1.6s-.9.4-.7-.4c.4-.2.8-.5.2-.9s-.9.1-1.2.3c-2,.8-5.1,2.1-6.4,3.6s-4,3-6.7,3c-.1.3.3.9.2,1,0,0-1.6.4-2,.6-1.4.6-2.7,1.3-4.1,1.9s-1.6,1.2-2,1.8c-1,.2-1.2,1.1-2.6,1.2s-3.9-.5-4.8-.7-1.1-.7-1.2-.7c-.2-.9-.9-1.6-1.9-1.7s-.8.2-1.3.1-2.4-1-2.5-1.1c-.5-.5.9-.4.4-1s-2.7-1.1-3.3-1.4-.5-.6-.5-.6c0-.2,0-.3,0-.5l.5-.2c.6.5,1.4.5,1.5.5.1.1-.1.8,0,.9.2.3,4.9,1.5,5.5,1.5s1.1-.3,1.6-.4.6,0,1-.2c.3,1.1,1.4.7.7,2.2.8-.2,1.7.2,2.2.2-1.2-.5-2.2,1.4-.6,1.2s1.1-1,.6-1.2c1.3.1,4.3.2,5.5,0s2.4-1.6,3.4-2.3,2.3-.9,1.7-1.6-.7.3-1.1.2-.7-.5-1.3-.5-1.7.5-2.6.3-1.4-.7-1.5-.7.1-.4-.2-.5c-.7-.2-2.5,0-3.4,0s-2.6,0-2.7,0c-.3,0-.3-.6-.6-.7-1.7-.4-3.9-.6-5.8-1.1s-6.7-2.4-8.7-2.2-.8.2-.4.5c1.4.2,2.8.5,4.2.9s3.5,1,4.7,1.7,1.1,0,.6.6c-.6-.3-1.1,0-1.7,0s-1.6-.9-2.3-1.2c-3.5-1.2-9.1-2.7-12.7-3.4,0-.4,0-.9,0-1.2l2,.2c.4-.6-1-.5-.5-1s1.2-.2,1.5-.3.8-.8,1.4-.7c.2-1-1.8,0-2.4,0s-1,.3-.8-.5c.9-.3,2.5-.7,3.2-1,1-.2,1,.3,1.4.8s.5.1.6.2c.3.3.2,1.2,1.4,1.2s2-.4,1.3-1c.1,0,.4,0,.5,0,.4-.2.5-.9,1-1-.6,1.8,1.4,1.2,1.9,2s0,1.1.2,1.4,1.5,1.2,1.7,1.3c.8.5,3.5,1.6,4.1.8s-.1-1.1,2-.9c-.5.9.3,1.3.2,2.2,1-.6,2.3,0,3.3-.3s.2-.5.3-.5c.3,0,.6.3.9.3s.2-.6.6-.7,1.9-.3,2.2-.3.5.8,1.6.7,3.2-1.3,3.4-1.2c0,1.8.5.3.8,0,.5-.5,2.3-.7,1.6,0s-1.2,0-1,.7c.8,0,1.9-.6,2.6-.7s1.3.2,1.7.2.6-.6,1-.8.8,0,1.2,0c.6-.2,3.3-2.3,3.4-2.7.1-.5-.7-.5-.8-.8-.3-1.2,1.1-2.3,1.3-3.2s-2.5-2.9-3.3-2.6l-1.7-1.5ZM70.1,17.3c-.3-.3-.8.2-.5.5s.8-.2.5-.5ZM69.6,18c-.3-.2-.7.2-.5.2.3.2.7-.2.5-.2ZM26.2,21.5c-.6-.5-1.8.7-1.5,1.5,1.5-.2,2.8.7,4.2,1,0-1.1-2.5-1.6-2.7-1.8s0-.6,0-.7ZM65.9,23.7c0,0-.9,0-1,0-.2.2.3,1.4.3,1.7.5.1,1.3-.1,1.5-.6s-.5-.2-.7-.4,0-.6,0-.7Z" fill="#d0e5f4"/>
  <path d="M56.8,7.7c0,.6.3.6.8.8,4.7,1.8,9.5,3.2,14.3,5s.9,0,.7.6c-.9,0-2.2.9-1.1,1.2s2.4,0,3.3-.5.8.4.2-.7c1.5,0,3.2-.1,4.7,0,2.9.2,5.6,1.7,8.4,2.5,0,0,.5-.1.5.1,0,.4-.6.6-.3,1.1,0,0-.4.4-.7.3-.2.9.4,1.1,1.2,1,.2.8-1.6.8-2.2,1-.6-.6-2.2-1.9-3-1.4s-.2.5-.3.6-.5-.3-.8-.2-.1.5-.3.5c-.5,0-.9-.4-1.3-.5s-.9.2-1.4.2c-1.4,0-1-.8-1.3-1-.9-.5-5-1.2-6.3-1.3s-.9-.5-1.3-.4,0,.8-.6.5c.3-.8-.6-2.5-1.2-2.8-1.7-.8-4.3-1.7-6.2-2.1s-1.2,0-1.7,0-1.7-.7-2.2-.7c-.3-1.3,1.3-.7,1.9-.5s.4-.3.3-.4-1.8-.4-2.3-.5c-1-.4-1-.8-2.4-.9s-2.2,0-3.2,0c.2-1.3-1.1-.2-.7-1.7,1.4.1,3.1.3,4.4.5Z" fill="#b2d3e9"/>
  <path d="M64.2,9.1c0,0,.2,0,.2,0,.5.6,1.1.3,1.5.2s.2,0,.2,0c-.2.8.8.4,1.5.5s1.9.8,1.7-.2c.2,0,.5,0,.7,0,0,.8,0,.6.5.8,1.4.5,3.4,1,4.9,1.3,2.7.6,6.7,1.5,9.3,1.8s1.2.3,1.1-.5c.8.3,1,.4,1.7.7-.2.7,0,.6.4.9,1.5,1.3,4.5,1.8,6.5,2.1.3.3.7.2.4.7s-1.8,1.2-2,1.2-.2-.7-.6-.7l1.2-.7c-.7,0-1.8-.5-2.3-.5s-.8,1.2-1.4,1.2-.9-.3-1.5-.2c-.4-.5.2-.7.3-1.1s-.5,0-.5-.1c0,0,0-.5-.2-.6l.5-.4c-2.5-.7-5.3-1.5-7.8-1.9s-.9-.3-.8.4c-1.5-.1-3.2,0-4.7,0,.5,1.1,0,.6-.2.7l-.4-1c-.3,1-1.2.3-1.9.2.1-.7-.4-.5-.7-.6-4.7-1.8-9.5-3.2-14.3-5s-.8-.2-.8-.8c2.6.4,4.8,1.3,7.4,1.5ZM75.6,13.3c-.1-1.1-1.7-1.1-2.4-1.4s-.8-.6-1.2-.7c-1.2-.4-2.7-.4-3.9-.6-.4.4,1.6,1.4,1.8,1.5.7.3,5.4,1.6,5.8,1.2ZM90.1,16.5c-.3-.2-.7.2-.5.2.3.2.7-.2.5-.2Z" fill="#8dbcd9"/>
  <path d="M74.1,23.7c-.1.7.3.5.7.4,1.3-.4,2.5-1.4,3.9-1.6l-.2-1.5c.8-.2.4.7.5,1.2,0,0,1.4-.4,1.7-.5,0,.6.3.8-.4,1-3.6,1.2-6.6,3-10,4.7s-4.1,1.7-6.2,2.6-4.3,2.3-6.4,3.1-2.4.9-3.2,1c-1.3.2-1.4.5-2.5.7.4-.5,1.5-1.5,2-1.8,1.4-.6,2.7-1.2,4.1-1.9s2-.5,2-.6-.4-.7-.2-1c2.7,0,4.9-1,6.7-3,.4,0,.8.5,1.3.4s3-1.3,3.1-1.4c.2-.2.3-.7.8-1s1.6-.6,2.2-.9Z" fill="#8dbcd9"/>
  <path d="M92.1,24.2s.2-.3.5-.2c1.6.3.9,1.3.9,2.1s.4,1.4.3,2.2c-1.7,0-1.5.7-1.9,2.1-.7,2.9.1,5.3-.4,8.1-1.4.1-1.2-1.3-1.5-2.3s-.5-.2-.4-.3c.2-2.2.3-3.7.7-6s-.3-.7-.2-1.1,1.3-1.9-.3-1.7c.2-.3.4-1.2.7-1.6s1.2-.7,1.5-1.4Z" fill="#8dbcd9"/>
  <path d="M71.4,27.4c.2,0,.7.3,1,.5-2.7,1.5-5.7,2.8-8.6,3.9s-1.8.6-2.7,1-1.9.4-2.7.7l-.5-.5c2.1-.8,4.3-2.2,6.4-3.1s4.1-1.6,6.2-2.6c.3,0,.7,0,1,0Z" fill="#e0eef8"/>
  <path d="M95.3,18.5c.8.2.4.5.5.5l-3.9,2.5c-2.3.7-4.4,1.6-6.7,2.2s-.6.2-.7.2c-.2,0-.5,0-.7,0-1.9.4-3.7.8-5.7,1.5s-.8.3-1.2.5-.7.1-1,.2l-1-.2c2.7-1,5.4-1.8,8.1-2.7s.9.2.8-.6c2.9-.8,5.6-1.4,8.4-2.5s2.4-.9,3.2-1.7Z" fill="#e0eef8"/>
  <path d="M78.8,11.1c1.6.2,3.1.8,4.7,1.2s1.8.5,2.5.7c.2.8-.7.5-1.1.5-2.6-.3-6.6-1.2-9.3-1.8s-3.5-.8-4.9-1.3-.6,0-.5-.8c2.9.4,5.9,1.1,8.6,1.5Z" fill="#b2d3e9"/>
  <path d="M97.3,24.7c-.3,1-.2,1.9-.2,2.8v6.4c0,.8-.2,2.2-.2,3.2s.3,1-.5.9c0-.2-.2-.6-.3-1.1-.2-4.2.2-8.5,0-12.7.5,0,.7.4,1.2.5Z" fill="#8dbcd9"/>
  <path d="M84.4,23.9c-.6.4-.6,1.4,0,1s0-.8.7-.5c0,.7-.3,1.3-.2,2,0,0-.2,0-.2,0-1.4-.6-1.5-.6-3-.4s-2.7.3-3.5.5-2,1.5-2.9.9c.7-.4,1.6-.6,1.5-1.5.4-.2.8-.3,1.2-.5,0,.8.2.4.7.3,1.8-.2,3.3-1.2,5-1.8.2,0,.5,0,.7,0ZM83.6,24.9l-.4.4c0,.3.6-.1.4-.4Z" fill="#b2d3e9"/>
  <path d="M83.7,22.7c.1.7-.4.4-.8.6-2.7.8-5.4,1.7-8.1,2.7l1,.2c-.3.1-.2.3-1,.5s-.2.1-.2.2c-.5.2-1.1.3-1.5.5l-.2-.7c.2,0,.3-.2.5-.2v.2c.1,0,.2-.2.2-.2,4-2.1,5.8-2.5,10.1-3.7Z" fill="#d0e5f4"/>
  <path d="M92.1,24.2c-.3.7-1.1.9-1.5,1.4s-.5,1.3-.7,1.6-.2.2-.2.2-.3,0-.4,0,0,1.1-1,.9l.5-2.2c1.4-1.2,1.4-1.8,3.5-2Z" fill="#b2d3e9"/>
  <path d="M95.8,43.4c0,.7-.3,4-1.2,2.5s0-1.6.2-2.4c.1-1.2-.1-2.6.5-3.8,0,1.1.5,2.7.5,3.7Z" fill="#b2d3e9"/>
  <path d="M87.7,13.8c.6.3,1,.7,1.3.8,1.7.8,4.1.9,5.6,2.1-1.9-.2-4.9-.8-6.5-2.1s-.6-.2-.4-.9Z" fill="#b2d3e9"/>
  <path d="M88.9,54.3c0,1.1-.6,2.1-1.2,3-1.5-.2-.7-3.1,1.2-3Z" fill="#e0eef8"/>
  <path d="M95.8,19c.3.2,1.5-.4.4,1.2-1.5.2-2.9.8-4.3,1.3l3.9-2.5Z" fill="#8dbcd9"/>
  <path d="M89.9,18c.6,0,1.3-1.2,1.4-1.2.6,0,1.6.6,2.3.5l-1.2.7c-.4.2-2.4.4-2.5.5s.1.8-.7.5c0,0,.7-.5.7-.5,0,0,0-.4,0-.5Z" fill="#b2d3e9"/>
  <path d="M87.7,57.2c.6-.9,1.2-1.9,1.2-3,1,0,.7,1.4.4,2s-.9,1-1.7.9Z" fill="#8dbcd9"/>
  <path d="M89.9,18c0,.1,0,.4,0,.5s-.7.5-.7.5c0,0-.2,0-.2,0-.8,0-1.4,0-1.2-1,.4.1.7-.3.7-.3.6,0,1.1.3,1.5.2Z" fill="#d0e5f4"/>
  <path d="M91.6,49.1c.4.7-.9,2.5-1.5,2s.8-2.1,1.5-2Z" fill="#e0eef8"/>
  <path d="M95.3,18.5c-.8.9-2.1,1.3-3.2,1.7,0-.5,1.2-1.1,1.6-1.3.7-.4.9-.7,1.6-.5Z" fill="#8dbcd9"/>
  <path d="M72.9,26.7l.2.7c-.1,0-.4.3-.7.5-.2-.1-.8-.4-1-.5.4-.5,1-.5,1.5-.7Z" fill="#b2d3e9"/>
  <path d="M93.9,22.2c.8-.2,1.1.8.5,1s-1.1-.8-.5-1Z" fill="#b2d3e9"/>
  <path d="M85.2,23.7c0,.2,0,.5,0,.7-.8-.3-.7.5-.7.5-.6.5-.5-.6,0-1,.1,0,.5-.2.7-.2Z" fill="#8dbcd9"/>
  <path d="M73.3,26.4c0,0,.2,0,.2,0v.2c-.1,0-.2-.2-.2-.2Z" fill="#e0eef8"/>
  <path d="M84.7,26.4c0,.6,0,1.4,0,2s.4,1.1.5,1.5c1,4.5-.3,6.3-1,10.5-1,6-.4,12.9-.8,19.2s-.4,6.3-.8,8.9-.6,1.7-1.7,1.9c-.2.6.5.7.7,1s.5.6.5.8l-1.5,1.6c-1.1,0-2.1.2-3.2.2s-1.3-.2-1.5.5c-.3-.3-.8-.7-1.1-.7-.8-.2-.5.5-.6.5s-1.2.2-1.5.2c-2.9.9-5.1,1.5-7.9,2.7s-1.1,0-1.5,1c-.1,0-.4,0-.5,0-.2,0-.5.4-.7.5,1.6-3.5-.3-1.8-.5.5-4,2.8-4.5,2.7-9.4,2.7-.1-1.7-.3-3.2-.2-4.9s.2-.3.3-.6c0-1.7,0-3.4,0-5.1l1,1.2c.7-1.9,0-3.9.2-5.9-.8-.2-.3.5-.6.8s-.7.3-.8.2c0-.6-.1-1.5,0-2s1.8-1.2,1.9-1.8-.6-1.9-.7-2.7c-.4-3,.8-5.8,1.2-8.5s-.1-2.2.2-3,1.7-1.7,1.9-2.6c.3-1.4-.9-2.5-.5-3.9s.5-.3.8-.8.6-2,.7-2.6-.4-.7,0-1.5c.2.2.4.3.5.5s-.1.4.1.5c1.2.3,2.8-1.5,1.6-2.2s-.4-.3-.7-.2c0-.1,0-.3,0-.5s2.2-.7,2.4-1.1-.3-.8-.2-1.1.7-.3.9-.5.2-.5.4-.7c.5-.3.3.9.9.4s.2-.9.2-1.4c.2,0,.5,0,.7,0,.2.2,0,1.5.6,1.2s1.4-1.4,1.9-1.7.7-.3,1-.5.5,0,.7-.1c.5-.3,1.8-.9,1.7-1.4.4-.2.6-.3,1-.5v.2c.7,0,1.2-.3,1.2-1,1-.4,1.7-.4,2.7-1,.9.6,2.1-.7,2.9-.9s2.6-.4,3.5-.5c1.5-.1,1.6-.2,3,.4ZM76.6,31.3c-1.4.2-2.6.3-4.1,0l-3.8,1.7c2.8-.6,5.9,1,7.9-1.7ZM81.2,40.7c1.5-.5,2.3-2.3,1.7-3.8s-1.3-.6-1.4-.7c-.4-.4,1.3-2.2-.1-3.2s-.7.3-1.4.3v-.7c-.1,0-1.4.5-1.4.5l-.2-1.2c-.8.6-1.7.7-2.6,1.1s-1,.9-1.4,1c-1.3.4-2.3-.2-3.3-.1-1.9.2-3.8,2.1-5.2,2.9-2.6,1.5-2.1.6-4.3,3.1s-4.2,4.2-4.2,7.9-.3,5.4-.5,8.4-.3,1-.4,1.8.2.8.2,1.2c0,1.8-.5,3.8-.2,5.7s1.6,2.9,1.7,3.8-.8.7-.7,1.2c.2.8,1.3,0,1.7.2s.2.8.5,1,.7.4.9.6c.5.6.6,1.6,1.4,1.7.3,0,2.8-3,3-3.4s0-.6,0-.9c.6-1.4,1-3,1.9-4.3-.3,2-1.6,3.7-1.6,5.7,0,0,2-.6,2.1-.7.3-.2,0-.7.1-.8s.6.4,1,.1,1.3-1.9,2-2.2l-.7-.4c.3-1,.9-1.1,1.5-1.5,0,.1-.3.9-.2,1,1,0,1.6-.8,1.5-1.7-.2-.2-.8.3-1,.5,0-.3-.1-.9,0-1.2l5.6-4.4v-.8s-1-.5-1-.5c2.4,0,2-3.5,2.7-5.2h-.7c0-.1.7-2,.7-2l-1.5,1c-.3-.4,1.1-3.8,1.5-4.3s.9-.8,1.2-1.3c.4-.6.3-1.4.5-1.9s.9-.2.5-.7-.9.4-1,.2c-.1-1.2.4-2,1-3-.2.6.4.7.2,0ZM54.8,55.8h-.5v.7h.5v-.7ZM53.2,73v.2c.2,0,.2-.2,0-.2ZM63.2,76c.5-.1.6-.5.5-1-.5.1-.6.5-.5,1ZM56.1,78.2c-1.3-.2-2.5-.6-1.7,1.2.7.4,1.9-1,1.7-1.2Z" fill="#d0e5f4"/>
  <path d="M71.1,64.9c0-.1.2-.2.2-.2,0,.2-.1.2-.2.2Z" fill="#d0e5f4"/>
  <path d="M81.2,40.7s-.2,0-.2,0c0-.1-.1-.5.1-.5.2,0,.2.4.1.5Z" fill="#d0e5f4"/>
  <path d="M81.7,76.5c-.7.9-1.6,4.8-2.7,6.7l-2.9,1.9c-1.5.4-2.6,2.1-3.9,2.9s-1.9.3-1.9,1.3c-.2.1-.4.2-.5.2l-.2.2c-1.8,1-4.6,2.9-6.4,3.5s-1.7.3-2.5.5-1.1-.3-1,.5c-.4,0-1.3,0-1.7,0l-1-.4c0-.6.6-.9.5-1.5s-.5,0-.5-.5c0-4.4,7.3-5.7,10.1-7.8,1.7-.4,5.1-1.6,6.6-2.4s2.6-1.7,2.7-1.9c.2-.4-.2-.4-.5-.3-.7.2-1.2.6-1.9.6l2.7-2.7c1.6,0,3.4-1.6,4.9-1ZM69.4,85.6c-.3-1.8-2.2.2-2.4,1.1-.2.5.4.3.5.3s0,.2,0,.2c0,0,.1.2.2.2.5,0,1.3-.4,1.7-.7s.9-1.1,0-1c0,0,0-.2,0-.2ZM63.7,88.3c-.4,0-1.4,0-1.5,0,0,.2,0,.9,0,1-.2.2-1.1-.9-1.2.7,0,0-.2,0-.2,0-.8,0-.7.3,0,.2-.6,1.2,1.5.6,2.2.4,1.3-.5,2.3-1,2-2.6-.4.6-1.2-1.1-1.2.2Z" fill="#e0eef8"/>
  <path d="M26.5,89.5c-.6-.3-1.5-.7-.5-1.2s.9.2,1.2.5c.5.5,3.4,1.5,4.2,1.9,1.9.9,2,1,4,1.6s3.1,1.3,4.8,1.4c.5-.4,0-.4-.2-.6-2.9-1.7-6.6-2.5-9.3-4s2,0,2.1,0c.5,0,1,0,1.4,0s.5.7,1,1c1.7,1,5.2,2.1,7.1,2.5s3,1.5,4.2,1.8,1.7,0,2.5.4c-.2,0-1,.8-1.4.7h-2c.9,0,4.6,1.1,5,1s.5-.4.4-.7l-1.2-1c.5,0,1,0,1.5,0,0,1.1.7,2.1-.2,3.2-.2,0-.3,0-.5,0-6-.2-13.5-5.4-19.5-6.4,0-.5,0-.6-.5-.5,0,0-1,0-1.5-.2,0-.6,0-.7-.5-.2-.2,0-.5-.2-.7-.2.2-.5-.6-.6-1.2-1Z" fill="#d0e5f4"/>
  <path d="M82.7,73.8c2.4,0,6.3.6,8.5,1.7s.6.3.8.6l-8.1,4.8c-.2-.2.2-3.7.3-4.3s.9-1.5.9-1.5-1-.8-1-.9c0,1-1,.4-1.5.2s-.2-.2-.2-.2v-.5c0,0,.2,0,.2,0Z" fill="#63a3c9"/>
  <path d="M93.6,67.1c0-.7-.7-.8-.8-1.6s.3-1.8.3-2.7-.5-2-.5-3,0-7.5.5-8,.9,0,1,0c.3.3-.8,1.7.2,1.5-.5,2-.5,3.1-.2,5.2s0,.5,0,.7l.7-.2c0,1.2,0,2.4,0,3.6s-.1.6.7.6c0,.2,0,.5,0,.7l-.7-.2c.1.7-.4,1.9.5,1.7,0,.2,0,.3,0,.5-.6-.1-.8.7-1,1.2-.2,0-.5,0-.7,0Z" fill="#b2d3e9"/>
  <path d="M53.1,93.7l1.2-.2c.1.1-.4,1.9.7,1.7.4-1.9.5-3.7.6-5.7,1,.5.7,4.5,1.1,4.9.4.3,1.1-.2,1.2-.2.4,0,1.4,0,1.7,0s.5.5.5.5c.1.6-.3.5-.7.7-1.9.8-3.2,1-5.1,1s-.1.4-.3.5c-.3,0-.8,0-1.1,0,0-1.1,0-2.1,0-3.2Z" fill="#b2d3e9"/>
  <path d="M52.4,81.9c0,.5,0,1,0,1.5.2.3,2.4-1.6,2,.5-.6,0-1.3,0-2,0-.3.3.2,2.7.2,3.2.1,2.2.4,4.4.5,6.7s0,2.1,0,3.2c0,0-.4.4-.5.5-.2-.5-.2-1-.2-1.5-.2-4.7-.3-9.4-.5-14.1h.5Z" fill="#63a3c9"/>
  <path d="M77.5,74c.8,2,3.5,0,4.9.2s.2.2.2.2c-.4,0-.6.7-.7.7-1.1.6-3.9.9-5.2,1.2,0-.3,0-.8,0-1s-.7-.9-.7-1c.2-.7.9-.5,1.5-.5Z" fill="#b2d3e9"/>
  <path d="M79,83.1c-.4.6-.7,1.3-1.2,1.8-1.6,1.3-5.4,3.2-7.4,4.3,0-1,1.3-.9,1.9-1.3,1.2-.8,2.3-2.5,3.9-2.9l2.9-1.9Z" fill="#fdfefe"/>
  <path d="M82,75.2c.6,1.6-.1,1.1-.2,1.2-1.6-.6-3.3.9-4.9,1,0-.3,0-.7,0-1,1.3-.3,4.1-.7,5.2-1.2Z" fill="#d0e5f4"/>
  <path d="M51.4,93.7c.5.6,0,2.4,1,2.2,0,.5,0,1,.2,1.5-.2.2-.2.7-.4.8s-.9,0-1.3,0c.9-1.1.2-2.1.2-3.2s.2-1.1.2-1.2Z" fill="#b2d3e9"/>
  <path d="M82.7,73.8c0,0-.2,0-.2,0-.6,0-1.2,0-1.7,0l1.5-1.6c0-.2-.3-.6-.5-.8.4-.3,1.9-.4,2,.1s-1.8,1.1-1,2.3Z" fill="#b2d3e9"/>
  <path d="M63.2,93.2c0,.7-1.8,1.5-2.5,1.5v-1c.8-.2,1.9-.3,2.5-.5Z" fill="#b2d3e9"/>
  <path d="M86.7,37.8c-.2.5-.3,1.1-.3,1.6s.7.3.5.7c-.7,1.7-2.2-2.7-.2-2.3Z" fill="#b2d3e9"/>
  <path d="M60.8,93.7v1c-.1,0-.4,0-.5,0s-.2-.4-.5-.5c-.1-.8.6-.4,1-.5Z" fill="#d0e5f4"/>
  <path d="M84.7,28.4c.7-.2.5.7.7,1.3h-.2c0-.3-.4-.6-.5-1.3Z" fill="#b2d3e9"/>
  <path d="M96,51.1v1.5c-.4,0-.3-.7-.5-1,.2-.2.2-.5.2-.7h.2v.2Z" fill="#d0e5f4"/>
  <path d="M69.6,89.8l.2-.2c0,0-.1.2-.2.2Z" fill="#fdfefe"/>
  <path d="M.6,25.7c0-1.3,0-1.9.9-3,.3.4,2,3.3,2.1,3.4s1.4,0,1.5,0c.4-.1.8-.9,1.2-.7s1.5,2.5,0,2c.2,1.1.9.6,1.7.9s.4,1,1.1.8.5-1.1,2-.4,2,1.9,2.4,1.9c-.7.7-.3.9,0,1.7.5.2.7-.4,1-.5s.4,0,.6,0c.3-.1,0-.7,1.4-.2,0,.2,0,.3,0,.5-.2,3.4-.8,5.1-.5,8.9-.7.2-.4-.4-.6-.8s-.3-.9-.4-1.4c-.5.1-.5.7-.5,1.1-.1,2.5,1.3,5.4,1.3,8s-.4.8-.1,1.2.8.6,1.1.2c.8-.1.4.4.5.9.4,3.3,1.3,6,2,9.2-2.4-.5-1.2.6-1,1.5.3,1.3.2,2.4.2,3.5-1.4-1.7-2.5,1.5,0,.5,0,.6.5,1,0,2.2s-1.1,1.7-1.2,1.8c-.4.3-1.1.2-1.4.6s1.3.3,1,1.1c-.2.2-.6.2-.7.2-2.4-.9-5.5,1.6-7.6,2.9s-2.3,1.9-3.1,2.3-1.2.2-1.3.3c-.2.1.3,1-.8.7-.4-2-.4-3.5-.2-5.4.2,0,.6,0,.7,0s.3.5.8.4.8-.4,1.2-.6c.7-.2,2.2-.1,2-1.2s-.8-.3-.4-1.4l-1.6-1.5c-.2-.4-.4-.7-.5-1-.2-.6-.6-.9-.7-1.2s-.3-1.1-.2-1.2c.3,0,.8-.3,1.1-.3s.8,2.5,1.4,2c.1-1.8,1.6-3.6,1.5-5.3s-.8-2.2-.8-3.2h.7c.2-.5-.4-.3-.5-.5-.3-1.4-.8-1.4-1.1-2.8-.7-3-.2-5.5-1-8.4s-1.4-2.4-.9-3.5c1.4,1.2,2.1-.4,2.2-.2.1,1.1.8,2.7,1.5,3.5s2.1.6,2.2,2.5c-1.1-.6-.9,1-.3,1.1s1.7-.2,1.9-.3c1.2-.4,1.5-4,1.4-5.1l-1.2.2c0-.6,0-1.2,0-1.8s-.6-2.1-.7-2.2c-.8-.9-.3,1.9-.3,2.1,0,.2-.1,1.5-.2,1.6-.2.4-1.7-.2-1.2,1.5-1.8-.6-1.6-3.7-2.2-4.5s-.8,0-1-.2-.9-3.7-1.8-3.9c-.5-1.7-1.1-1.3-1.4-1.7-.4-.6,0-2.3.2-3.1s-.2-.8-.2-1.2.7-.7.4-1.5-1.2-.7-1.4-1,0-.7-.2-.9c-.4-.5-1.1-1.3-1.8-1.3ZM10.4,36.8c-.4-.2-1.8.1-1.9.6s.8,1.7,1.3,1.6.1-.4.2-.4c.1,0,.4.2.4.2,0,0,0-.4,0-.6s.4,0,.4-.2-.5-1-.5-1.1ZM9.7,71c.9-1.2.8-1.3.2-2.7,1.5-.5,1.2.7,1.4.8.6.1,3.3-.9,3.9-1.2s1-1.8.3-2-2,1.8-1.8,0c-.3-.3-1.4,1-1.7.1s.7-.2.9-.4.4-1.6.3-1.7h-1c.2-1.6,1.4-3.1.7-4.7-.6.3-.6,1.1-1.1,1.6-.8.9-2.1,1.2-2.9,2.6s-.8,2.8-.7,4.6-.3.3-.3.8c.3,1.8,2.3.2.8-.8,1.3.2,1.8,1.9.5,2.7s-.8.6-1.2.9c-.6.4-3.4,1.5-3.6,1.9s.3,1.4.5,1.5c1.8-.9,3.6-2.3,4.8-3.9Z" fill="#8dbcd9"/>
  <path d="M17.1,27.6c1.4.7,2.8,1.8,4.4,2l-2,.7c1,.2,1.8.6,2.7,1,4.1,1.7,8.4,3.5,12.8,4.2.4.4,2.3.8,3,1s1.5.3,2.2.2c1.3.4,2.6.7,3.9,1.2s1.3.7,3,1c.5.7,1.3,1.4,1.5,2.2s.4,3.4.5,4.7c.4,4.8.4,9.6.7,14.4s-.1.6.7.6v3.2c-3.3,1.1-2-2.3-2-4.1s-.4-3-1-2.4c0,.9.2,1.1-.7,1-.1-1.2.1-2.6,0-3.8s-.8-1.6-.9-2.6.1-2.2-.1-3.1-.5-.6-.6-1.1c-.2-.9.2-2.2.4-3l-1,.2c-.2-.7.6-.5.9-1s-.5-1.3-1.2-1.2-.2.3-.3.4c-.2.1-.5,0-.6.2s0,1.2-.5.7-1.1-3.6-2-4.2c0,0,.5-.4.5-.5.3-.6.4-1.1-.2-1.5s-.7-.2-1,0,0,.3-.2.3v-.7s-.2,0-.2,0c.2.6-.2.9-.2,1.2s-.5.5,0,1c0,0-.3.4-.8.2s-1.4-1.4-2.1-1.6-.9.2-1.5,0c-1.5-.3-4.5-2.1-6.5-2.4s-1,.3-1.4.2-3-2-3.8-2.5-2.5-.8-3-1.2-.7-1.1-1.7-1.1v.7c-.6-.7-1.5-.5-2.2-.5,0-.2,0-.3,0-.5,0-.3,0-.7,0-1-.2-1.8-1.1-3.4-2.8-4.2s-.3,0-.4,0c-.5-.2-1-.5-1.5-.7.3-.4,1.4.1,1.8.3,1.2.5,2.4,1.1,3.6,1.7Z" fill="#b2d3e9"/>
  <path d="M19.1,71.8c0,0,.2,0,.2,0l.4,1c.3-.3.5-.7,1-.7s2.9,1.1,3.6,1.3.8.5.7-.3c5.3,2,10.6,3.9,15.8,5.9v.2c-1.3,0-1.3-.2-1.2,1.2l1.2-.2c2.7.2,5.9,2,8.5,2.2s1.7-.5,1.9-2,0-.5,0-.7c.3.8.4,2.2.5,3.2-1.1-.1-2.5.2-3,1.3s.3,1.5-1.7.9c-.1.7.8.7,1,1.1.4.8-1.7-.2-1.9-.3-2.7-1.4-5.3-3.5-8.1-5s-2.5-1.3-3.9-1.7l.5-1.7c-.9.5-1.7-.8-2.7-.7l.2,1.2c-.9.3-2.2-.5-2.8-.5s-.2.4-.3.5c-.8.4-3.5-.8-4.5-1.1s-.7.1-1.2,0c-.7-.3-1.3-2.1-2.5-1.6-.3,1.8-.6,4.5-1.4,6.2s-1.3,1.6-1.6,2.7c0,0-.6.3-.5-.6.2-1.2,1.1-1.7,1.5-2.7s.6-3.3.4-4.5-.1-.7-.5-.4c-.4,2.4-4,6.8-2.7,9.1h-.2c-1-.5-2.9-1.3-3.7-2s-.6-.8-.7-1c-.6-.8-1.2-1.1-1-2.2l-3,.7c-.1.5.2.5.5.7,1.1.8,3,1.6,4.2,2.2s1.5,1,2,1.2v.2c-.2,0-.6,0-.9-.2-1-.4-7.5-3.7-7.7-4.1-.3-.6,1-.1,1.2-.2.6-.1,4.4-1.9,5.1-2.3s1.9-1.5,2.2-1.5.7.2.9.2c1.5,0,.9-.6,1.6-1.3s2.4-1.8,2.2-1c-.4,1.9,1,.8.8-.4s-.9-.1-1.1-.6.4-1.2-.1-1.2c0,.7-.9.6-1.5.9-2.9,1.6-5.9,3.7-8.9,5s-2.8,1.1-2.8.4c.1-1.8,1.8-1,1.9-1.1s.1-.5.4-.7c.7-.6,4.4-3.5,5.1-3s0,.4,0,.4c.4.4,3-1.6,3.6-1.8.9-.4,1.9-.4,2.8-.6ZM24.7,74c-.9.2-.6,1.6.2,1.4s.6-1.6-.2-1.4ZM18.1,76.2c-.5-.1-.6.5-1,.6-1,.4-4.1,1-4.6,2.1s1.1,4.4,2.8,3.9l2.7-6.6Z" fill="#8dbcd9"/>
  <path d="M.6,25.7c.7,0,1.5.7,1.8,1.3s0,.7.2.9,1.2.5,1.4,1c.3.8-.3,1.1-.4,1.5s.2.8.2,1.2c0,.8-.6,2.5-.2,3.1s.9,0,1.4,1.7,1.2,5.2,1,5.4l-1.1-.5-1.4-1.9c.2.8.7,2.2,1.2,2.7-.6,1.1.5,2.4.9,3.5.8,2.9.3,5.4,1,8.4s.8,1.4,1.1,2.8.7,0,.5.7h-.7c0,.9.7,2.2.8,3.1,0,1.7-1.4,3.5-1.5,5.3-.5.6-1.1-1.9-1.4-2s-.7.2-1.1.3c0,.1.1,1,.2,1.2-.4.5,0,1.1,0,1.5s0,.9,0,1.2c-.7-.2-.6.9-.6,1.2,0,.8.4,1.8-.1,2.5-.2,0-.5,0-.7,0,0-.9.3-1.7-.7-1.5-.2-7.3-.2-14.4-.5-21.7h.5c0,.5.2,2.3,1.1,2s-.2-4.2-.4-5.1c-.7-4.4-1.3-8.1-2.1-12.4s-.5-4.9-.4-7.2ZM4.8,38.5l-.9-3.2c-.9.3-.6.9-.6,1.8l1.5,1.4ZM4.8,61.7c0,0-1,0-1.2,0-.1.1,0,1.8.3,2,.6.6.4-.9.5-1.1s.9-.5.5-.9ZM3.3,68.8c0-.7.7-1.9-.5-2l.5,2Z" fill="#b2d3e9"/>
  <path d="M19.3,86.8c.2,0,.4.2.7.2,1.6.7,3.3,1.1,4.9,1.7s.9.8,1.5.7c.6.4,1.4.5,1.2,1-2.7-1-5.5-2-8.2-3.1s-.9,0-.7-.6c.1,0,.3,0,.5,0Z" fill="#b2d3e9"/>
  <path d="M17.9,84.1c.3-1.1,1.2-1.8,1.6-2.7.7-1.7,1.1-4.3,1.4-6.2,1.3-.6,1.8,1.3,2.5,1.6s.8,0,1.2,0c1,.3,3.7,1.6,4.5,1.1s.2-.5.3-.5c.6,0,1.9.8,2.8.5l-.2-1.2c1.1,0,1.8,1.2,2.7.7l-.5,1.7c1.4.4,2.6,1,3.9,1.7,2.7,1.5,5.3,3.6,8.1,5s2.3,1.2,1.9.3-1.1-.4-1-1.1c2,.6,1.2.2,1.7-.9s1.9-1.4,3-1.3c.1,2.4-.5,4.5-.5,6.7l-.5.5c-.3-1.7-2.6-1.9-3.9-2.5-1.5-1.2-3.3-2-4.9-3.1s-5-4.1-7-4.6-4.4.5-6.6,1.3c-.5-.4-1.7,0-2.3,0-1.7.3-6.5,1-7.2,2.6s0,.8.1,1.2c.4,1.1,1,1.3,2,1.7v.2c-.2,0-.5,0-.7,0-.3-.1-.5-.2-.7-.2s-.5-.5-.7,0c-1.7-.4-2.8-1.1-4.4-1.7v-.2c.4.1,1.5.5,1.7.2h.2c.1.3,1.8,1.1,2,1-.3-.4-.2-1.9-.2-2ZM21.4,78.2c-.7.2,0,1.3.5,1.2,1-.2.4-1.4-.5-1.2Z" fill="#b2d3e9"/>
  <path d="M9.5,22.2c4.4,1.7,9.1,4.3,13.5,5.9s3.8.4,4.5,1.4-.6.9,1,1.7c3.1,1.7,7.2,1.9,10.4,2.6s4.8,1.6,5.9,2,2.7,1.5,4.4,2,1.2.5,2.2.2c-.2.2-.3.6-.5.7s-.3,0-.4,0c-.6.6-.7,5.1-.8,6.3s.3,1-.5.9c0-1.3-.2-3.6-.5-4.7.5-.6,0-2-.7-2.2,0-.5,0-.7-.5-1s-1.9-.5-2.6-.7c-3.7-1.4-6.7-2.2-10.5-3.2s-4.4-1-5.2-1.4-.6-1.3-2.2-1.6c-3.1-1.4-6.2-2.8-9.4-4.2s-.8-.6-1.3-.8c-3.5-1.5-7.1-2.7-10.8-3.5l-.3-.6c1.5-.3,2.9.4,4.2.2Z" fill="#fdfefe"/>
  <path d="M28,27.9c.4.1.9.5,1.5.7,0,.1-.2.2-.2.2-.5-.3-1.1-.5-1.7-.7,0-.2.4-.3.5-.2Z" fill="#e0eef8"/>
  <path d="M21.3,21.2c.2,0,.9.7.7-.2.3,0,.7.2.7.5s0,.9,0,1.2c-.7-.1-2.4-.7-2.2.2-.2,0-.4,0-.6-.2v.5c1.7.3,3.3,1.4,5.1,2.1s3.7,1.4,5.4,1.8c0,.7,1.4,1.1,2,1.4s1.6.2,2,.4.2.5.5.6c.6.3,3.1,1.1,3.3,1.4.6.6-.9.5-.4,1s2.3,1.1,2.5,1.1c.5,0,.9-.2,1.3-.1.9,0,1.7.8,1.9,1.7-1.5-.4-3.3-.6-4.7-1s-.8-.8-1.5-1.3c-1.7-1.3-4.8-2.9-6.9-3.1-.4-.5-.6-.3-1-.5,0-.6-1.1-.6-1.5-.7s-.6-1.1-1.5,0c-.2-.1-.1-.7-.8-.5s0,.5-.5.5c-2.4.3-2.5-1.2-4.1-2.4l.5-.6c-.3,0-.7,0-1,0s-.3,0-.4,0c-.3,0-.1-.5-.1-.8-.4,0-.2.4-.3.5s-1.2-.2-1.2-.2c-.1-.1,0-.7,0-1-.4-.2-1.1.3-1.2.2s-1.5-.8-2-.7v-.2c.8,0,3.8.5,4.2,0,.8-.9-1.7-.6-1.2-1.7.9,0,2,.1,3,.2Z" fill="#e0eef8"/>
  <path d="M9.5,22.2c-1.3.2-2.7-.5-4.2-.2l.3.6c3.7.9,7.3,2,10.8,3.5s1,.6,1.3.8l-.5.7c-1.2-.6-2.4-1.2-3.6-1.7s-1.4-.7-1.8-.3c-3.1-1.4-6.4-2.5-9.6-3.7,0-.3,0-.9.2-1.1.6-.4,6.5,0,7.2,1.4Z" fill="#e0eef8"/>
  <path d="M20.1,67.8c0,1.6-.6,2.5-1,3.9-.9.2-1.9.2-2.8.6s-3.2,2.2-3.6,1.8,0-.4,0-.4c-.7-1.1,2-1.8,2.8-2.3s.5-.6.6-.7.5,0,.7-.2.4,0,.6-.2c.9-.6,1.5-2.1,2.6-2.5Z" fill="#b2d3e9"/>
  <path d="M28,27.9c-.1,0-.5,0-.5.2-.3,0-.4,0-1-.2.8-1.1,1.2,0,1.5,0Z" fill="#d0e5f4"/>
  <path d="M29.4,28.6c-.6-.2-1.1-.6-1.5-.7.3.1,1.5,0,1.5.7Z" fill="#d0e5f4"/>
  <path d="M30.4,29.1c.7.8.5.3,1.5.8s2,1,2.9,1.4c0,.1,0,.4,0,.5-.6,0-1.1-.4-1.7-.4s-.5.2-.6.2c-.4,0-.8-.2-1.2-.2s-.6-.2-1-.2c0,0-.2-.2-.2-.2-.4-.8-.5-.8-1.5-1,0,0-.2-.1-.2-.2.2,0,.6-.2.7-.3.1-.1,0-.3,0-.4s.2-.1.2-.2c.4.2.6,0,1,.5Z" fill="#d0e5f4"/>
  <path d="M2.3,70.1c1-.3.8.6.7,1.5-.2,2-.2,3.4.2,5.4s.5,2,.7,2.2,1,0,.5.5-.5-.5-.5-.5c-.2-.2-.6,0-1-.6-.7-1.3-.7-6.7-.8-8.5Z" fill="#d0e5f4"/>
  <path d="M43.5,34.5c.2,0,.9.6,1.2.7v.5c-1.1-.4-5-1.8-5.9-2v-.2c1.4.4,3.2.6,4.7,1Z" fill="#8dbcd9"/>
  <path d="M13.2,26.4s0-.2.4,0c1.7.8,2.6,2.4,2.8,4.2l-2.1-2.2v-1c-.9.2-1,0-1.1-1Z" fill="#8dbcd9"/>
  <path d="M17.4,23.7c.2,0,.8-.4,1.2-.2,0,.2,0,.9,0,1s1.2.3,1.2.2c.1,0-.2-.6.3-.5,0,.2-.1.7.1.8s.2,0,.4,0c.2.8-.6.5-1,.4-.6-.2-2.3-.8-2.2-1.4v-.2Z" fill="#b2d3e9"/>
  <path d="M5.3,18.5c.9-.2,1.7-.9,2.6-1.2s.7-.2.6.3l-.8.7-2.6,1.2c-.6-.8.2-.8.2-1Z" fill="#d0e5f4"/>
  <path d="M13.4,30.6c0,0,.3-.2.4-.2,1.6.2.2.6.6,1.4-.2.1-.5.6-1,.5-.4-.8-.8-1,0-1.7Z" fill="#d0e5f4"/>
  <path d="M34.9,31.3c.7.3,1.5.2,2,1.4s-1.6,0-1.7-.1c.5-.5-.2-.6-.2-.7s0-.3,0-.5Z" fill="#8dbcd9"/>
  <path d="M34.9,31.8c0,.2.7.2.2.7-.7-.2-1.5-.3-2.2-.5l-.2-.5s.3-.2.6-.2c.5,0,1.1.5,1.7.4Z" fill="#b2d3e9"/>
  <path d="M28.5,29.6c0,.1.2.2.2.2.4.8.5.8,1.5,1,0,0,.2.2.2.2,0,0-.1.2-.5.2-.7-.1-2.6-.7-1.9-1.6s.4,0,.5,0Z" fill="#8dbcd9"/>
  <path d="M2.3,48.4h-.5c0-.4,0-3,.1-3,.2,1,.2,2,.4,3Z" fill="#8dbcd9"/>
  <path d="M17.4,23.7v.2c-.7-.3-2,0-2-1,.5,0,1.8.7,2,.7Z" fill="#d0e5f4"/>
  <path d="M32.7,31.6l.2.5c-.6-.1-1.7,0-1.5-.7.4,0,.8.2,1.2.2Z" fill="#8dbcd9"/>
  <path d="M28.5,90.8c.4-.4.6-.3.5.2-.2,0-.4-.2-.5-.2Z" fill="#b2d3e9"/>
  <path d="M30.4,91.3c.5,0,.6,0,.5.5-.9-.2-.3-.4-.5-.5Z" fill="#b2d3e9"/>
  <path d="M19.3,86.8c-.1,0-.3,0-.5,0s-.2,0-.2,0c.2-.5.6,0,.7,0Z" fill="#e0eef8"/>
  <path d="M20.1,87.1c-.3,0-.6-.2-.7-.2.3,0,.4.1.7.2Z" fill="#e0eef8"/>
  <path d="M31.2,80.7c1.2,1.3,4.1.6,4.7,2.7-2.3-.8-5-.6-7.4-.2-.2,1.1,1.1.2,1.4.2h3.7c0,0,1.3.5,1.3.5.1.2,0,.5,0,.7.2.6,3.2,1.9,3.9,1.9l2.1,1.9c1,.7,2,1.5,3.3,1.8.8.6,5.6,3.3,6.3,3.2s.4-.4.4-.6c-.4-.9,0-2-.2-2.9l.5-.5c0,1.3.2,2.8.2,4.2s-.2.7-.2,1.2c-.5,0-1,0-1.5,0s-.5,0-.7,0c-.7-.5-1.6-.2-2.5-.4s-3-1.5-4.2-1.8c-1.8-.4-5.4-1.5-7.1-2.5s-.9-1-1-1c-.4,0-.9,0-1.4,0s-3.4-.8-2.1,0c2.7,1.5,6.4,2.3,9.3,4s.7.2.2.6c-1.7-.1-3.2-.9-4.8-1.4s-2.2-.7-4-1.6-3.7-1.5-4.2-1.9.1-1.2-1.2-.5,0,.9.5,1.2c-.6,0-1.1-.6-1.5-.7h.2c0-.7-.6-.8-1-.7l.7.7c-1.6-.6-3.3-1-4.9-1.7.2,0,.5,0,.7,0s3,1.6,3,.9c-.9-.6-2.1-.7-3-1.1s-1.6-.6-2-1.7c.5-.6,1.4-2.2,2.1-2.4s2.9-.1,4.1-.4,1.3-.5,1.9-.7c.2.4.8.1,1.1,0,1-.3,2-.7,3-1Z" fill="#e0eef8"/>
  <path d="M38.3,9.1c-1.6,1.2-3.2,2.6-5.2,3.2,0,0,0-.4.2-.6.5-.4,1.6-.5,2-1.2,0-.2-.2-.1-.4-.1-.6,0-3.8,1.5-4.5,1.9s-.6.4-.8.8c-.6,0-1.3.5-1.7.7-.8.6-.5.6-.6.8s-2.5,1.2-2.7,1.2l-.4-.7-1,1.5c-1.7.3-1.1.8-1.4,1-.5.3-2.5.7-3.2.9s-.7-.2-.6.8c-1.5.3-2.7.4-4.2.5v-.5c.7,0,2.3-.4,3-.6,1.4-.3,2.9-1.3,4.4-1.4,0-.5-1.2,0-1.5,0v-.5c.7,0,4.8-.7,3.9-2s-4-.8-4.7-.7c-.2-.6.6-.6,1-.6.9,0,1.8.2,2.8,0,3.9-.4,7.3-2.9,11.1-4.1s2.5-1.7,4.3-.3Z" fill="#b2d3e9"/>
  <path d="M42.8,4c0,.6-.3,1.7-.5,2.2-.4.9-1.4,2-1.5,3-.1,0-.3,0-.5,0s-.5,0-.5,0c0,0,0,.6,0,.7,0,0-.1.4-.4.4-.4,0-.8-.3-1.4-.1s-2.6,1.6-3.4,2.1-2.5.8-3,1.4c-.3-.1-.5.2-.7.2-.7.3-1.3.5-2,.7-.2-.2-.9-.3-1-.7.4-.3,1.1-.8,1.7-.7s.4.5.9.5,2.2-.9,2.6-1.2c2-.6,3.6-2,5.2-3.2s3-1.7,2.5-2.2c-.7,0-1,.8-1.6.9s-1.4-.3-1.3-.9c.7,0,.7,0,1.2-.2.8-.2,2.3-.6,1.8-1.7-.3,0-.8,0-1.1,0-.7.1-1.9,1.4-2,2-1.1,0-1-.2-1.4-.5-.9-.6-2,1.2-1.8-.5.9,0,1.5-.7,2.2-1.1s.8-.1,1.2-.3c1.4-.7,1.7-1.7,3.7-1.2s.9.6,1,.6Z" fill="#63a3c9"/>
  <path d="M71.4,8.4c.2,0,.3,0,.5,0,0,.5,0,.6.5.5,0,0,.7,0,1,0,0,.1,0,.4,0,.5s2.2.6,2.7.8c.9.3,1.9.5,2.7,1-2.7-.4-5.7-1.1-8.6-1.5s-.5,0-.7,0-.5-.4-1-.2v-.7c.9,0,2.1-.2,3-.2Z" fill="#d0e5f4"/>
  <path d="M19.1,14.1c.7,0,4.4.4,4.7.7.9,1.3-3.2,1.9-3.9,2s-.7,0-1,0-.8,0-1.2,0c-.7,0-1.9,0-2.2-.7,0,0,.2,0,.2,0,2,0,3.7.2,5.7,0s1.7-.3,1.9-.9c-2.1-.5-3.6-.3-5.6,0s-.3-.2-.3-.2c.2-.5,1.3-.7,1.7-.7Z" fill="#63a3c9"/>
  <path d="M45.7,3.2c.3-1.6,1.4-2.2,3-1.9s.6.5.7.7l-1.7.2c-.3.7.4.7.5.9s0,.4,0,.6,0,.2,0,.2c-.8.8-1.2,1-2.2,1.5-.6-.5-.4-1.5-.2-2.2Z" fill="#63a3c9"/>
  <path d="M17.4,14.8s0,.2.3.2c2-.2,3.5-.4,5.6,0-.3.6-1.3.8-1.9.9-2,.3-3.8.1-5.7,0l.2-.7c.5,0,1-.4,1.5-.5Z" fill="#e0eef8"/>
  <path d="M45.7,3.2c-.1.7-.3,1.7.2,2.2-.7.3-1.5.6-2.2.7s-.9.1-1.5,0c.2-.5.5-1.6.5-2.2.7.2,2.2-.7,3-.7Z" fill="#b2d3e9"/>
  <path d="M53.9,3.5c-.1,0-.2.1-.2.2-.1,0-.3,0-.5,0s-.3,0-.5,0l-.2.2c-.1,0-.7,0-.7,0,0,0,.3-.6-.7-.5s-1.9.6-2,1.5c-.1,0-.3,0-.5,0,0-.4-.2-.7-.2-1s0-.2,0-.2c.6.1,1.6-1.2,1.7-1.2.6-.2,3.5.3,3.9,1Z" fill="#e0eef8"/>
  <path d="M71.4,8.4c-.9,0-2.1.2-3,.2s-1.7-.8-2-1.2c.6,0,1-.3,1.8-.2s2.4.8,3.1,1.2Z" fill="#b2d3e9"/>
  <path d="M56.1,4.7l-.5-.7c1,.1,2.5.5,3.4.9s2.2,1.2,1.1,1.1-2.4-.8-3.6-1.2-.4,0-.5,0Z" fill="#b2d3e9"/>
  <path d="M49.4,2c0,.1.4.2.5.5-.1,0-1.1,1.4-1.7,1.2,0-.1,0-.4,0-.6s-.8-.2-.5-.9l1.7-.2Z" fill="#d0e5f4"/>
  <path d="M34.6,6.9c-.8,1-2.5,1.4-3.7,1.5.9-.8,2.5-1.1,3.7-1.5Z" fill="#b2d3e9"/>
  <path d="M73.3,8.9c.7.1,2.8.5,2.7,1.2-.4-.1-2.6-.7-2.7-.8s0-.3,0-.5Z" fill="#b2d3e9"/>
  <path d="M53.9,3.5c.5,0,1,0,1.5,0l-.2.7c-.4-.1-1.2-.5-1.5-.5,0-.1.1-.2.2-.2Z" fill="#b2d3e9"/>
  <path d="M71.9,8.4c.9,0,.4.4.5.5-.5,0-.6,0-.5-.5Z" fill="#b2d3e9"/>
  <path d="M53.6,3.7c.2,0,1.1.4,1.5.5s.5.3,1,.5.4,0,.5,0c0,.7,1,.9,1.7,1.5-.2-.2-3.2-.3-3.5.5l3.4.5c0-.2,0-.9,0-1,.2.1.6,0,.7.9l-.5.4c1-.2,1.8.3,2.6.5s0-.5.2-.7l1.9.2-.7-1c1.5.3,2.3,1,3.9,1,.2.4,1.6,1.2,2,1.2v.7s-.3.6-.7.5c-.7,0-1.7.3-1.5-.5.4,0,.8,0,1.2,0-.6-1.7-3.8-1.8-5.3-1.5s-.8,0-.4.5,2.1.3,2.5.7c-2.6-.2-4.8-1.1-7.4-1.5s-3-.4-4.4-.5-3.6-.4-5.4-.2v-.5c.7,0,1.4-.2,2.2-.2,1.5,0,3,0,4.4,0l-1.9-.5c-1.2.2-1.6-.2-2.3-.5.3,0,.8-.6,1-.7.3-.1.9-.3,1.2-.2.7,0,1.7.9,1.5-.5.2,0,.3,0,.5,0Z" fill="#63a3c9"/>
  <path d="M95.3,57.7c0,.9.2,2.1.2,2.7,0,.9,0,1.8,0,2.7-.9,0-.7.2-.7-.6,0-1.2,0-2.4,0-3.6l-.7.2c0-.2,0-.5,0-.7.6,0,.6-.4.9-.7h.3Z" fill="#8dbcd9"/>
  <path d="M95.5,60.4c0-.6-.2-1.8-.2-2.7s-.1-2.9,0-4.1,0-.8.5-.9l-.2,7.6Z" fill="#b2d3e9"/>
  <path d="M95.5,63.9c0,.4-.2,1-.2,1.5-.9.2-.4-1-.5-1.7l.7.2Z" fill="#8dbcd9"/>
  <path d="M95.3,65.9c0,.3,0,.7-.1,1s-.6.2-.9.2c.2-.5.4-1.4,1-1.2Z" fill="#8dbcd9"/>
  <path d="M28.7,16.5c-.5.6-.3,1.2-1.5,1.7s-2.3.7-3.2,1-2.1.8-2.4.9c-.8.2-2,.2-2.9.4s-1-.3-.9.5c-1,0-2.2.3-3.5.2s-3.1-.3-3.2-1.2c.9,0,1.8-.2,2.7-.2,1.5-.1,2.7-.2,4.2-.5s4.1-1.3,5.8-1.5,1,.3,1.6.1.6-1,.7-1.1.5.2.7.1c.6-.3.2-1.4,1.7-.4Z" fill="#8dbcd9"/>
  <path d="M19.8,17.3c.3,0,1.4-.5,1.5,0-1.5.1-3,1.1-4.4,1.4s-2.3.5-3,.6c-1.6.1-3.1-.4-4.7,0,0-.3-.1-1.3,0-1.5.2-.3,3.8-.4,4.3-.3s-.6.9,1.3.8,2.8-.7,4.1-1,.7,0,1,0Z" fill="#8dbcd9"/>
  <path d="M13.9,19.3v.5c-.9,0-1.8.2-2.7.2-1.3,0-2.1.4-3.5-.2l1.5-.5c1.6-.4,3.1.1,4.7,0Z" fill="#d0e5f4"/>
  <path d="M15.4,16c.4.7,1.5.7,2.2.7.1.7-.4.5-.9.5-1,0-2.1,0-3.1,0v-1.2c.6,0,1.2,0,1.7,0Z" fill="#d0e5f4"/>
  <path d="M19.8,16.8v.5c-.3,0-.7,0-1,0v-.5c.3,0,.7,0,1,0Z" fill="#d0e5f4"/>
  <path d="M17.9,21c.2,0,.3,0,.5,0-.5,1.2,2,.8,1.2,1.7s-3.4,0-4.2,0-.5.1-1.2,0l1.2-.2-1-1.2c1.3,0,2.4-.2,3.5-.2Z" fill="#d0e5f4"/>
  <path d="M18.2,17c.2,0,.2.2,0,.2v-.2Z" fill="#d0e5f4"/>
  <path d="M48.4,8.6c-1,.1-1.7.4-2.5,1s-.5.5-1,.9c-.7.6-1.1,0-1,1.4-.2,0-2.7,1.2-3,1.3-2.1,1.2-.3,2,.3,2.9s.2.6.5,1-.1.3.2.5,2.9,1,3.2,1c2,0,3.6-2.3,5.8-1.5-1.1.5-.9,1.3-1.2,1.7-.6.8-1.9,1.5-.9,2.7s1.4-.8,1.8-.5c0,1,.9.9,1.6,1.2,1.4-1.7,5.5-.4,4.8-3.7.5.3,1.1-.4.7-.7s-1.3.2-1.6.2-.3-.2-.4-.2c1-.7,2.2-.7,3.3-1.3s1.8-.9,1.2-1.4c0,0,0-.5,0-.5.2-.2,2.5-.3,3-.2-.1-1.2-2.1-.9-2.2-2.2.5,0,1.2-.1,1.7,0l1.7,1.5c.8-.3,3.4,2.2,3.3,2.6-.1.9-1.6,2-1.3,3.2s.9.3.8.8c-.1.5-2.9,2.6-3.4,2.7s-.7-.1-1.2,0-.7.7-1,.8-1-.3-1.7-.2-1.8.8-2.6.7c-.2-.8.8-.6,1-.7.7-.7-1.1-.5-1.6,0s-.7,1.8-.8,0c-.1-.1-2.8,1.1-3.4,1.2-1.1.1-1.3-.7-1.6-.7s-2,.2-2.2.3c-.3.1-.3.7-.6.7s-.7-.3-.9-.3-.1.5-.3.5c-1,.2-2.3-.3-3.3.3,0-.9-.7-1.3-.2-2.2-2.1-.3-1.3,0-2,.9s-3.3-.3-4.1-.8-1.7-1.2-1.7-1.3c-.2-.3,0-1-.2-1.4-.4-.8-2.5-.1-1.9-2-.5.1-.6.8-1,1l-1.1-1.2c-.9-.2-.4.5-.7.7s-.4,0-.4,0c-.6-.4-.7-.3-1,.2,0,0-.4,0-.6-.2-.5-.4-.4-1-1.4-.8,1.2-.5,1-1.1,1.5-1.7s1.3,0,.2-1.7,0-.2,0-.2c.7-.2,1.3-.5,2-.7l.7.2c0-.1,0-.4,0-.5.5-.6,2.1-.9,3-1.4s2.7-1.9,3.4-2.1,1,.2,1.4.1.4-.4.4-.4c.2,0,.4.6.5-.2,1.4,0,2.3-.9,3.7-1.2s.4-.2.5-.2c.9-.1,3.4-.3,3.9.5ZM64.2,13.8c-.3-.3-.8.2-.5.5s.8-.2.5-.5Z" fill="#e0eef8"/>
  <path d="M22.8,22.7c3.6.7,9.2,2.2,12.7,3.4s1.7,1.1,2.3,1.2,1.1-.3,1.7,0c.5-.6-.2-.4-.6-.6-1.2-.7-3.2-1.3-4.7-1.7s-2.8-.7-4.2-.9c-.4-.3,0-.5.4-.5,2-.3,6.5,1.6,8.7,2.2s4.1.6,5.8,1.1.3.6.6.7,2.1,0,2.7,0c.9,0,2.7-.2,3.4,0s.1.5.2.5v.2c0,.8-1.1.6-.7,1.7s1.7.4,2-.5c0,0,.2-.2.2-.2,0-.1,0-.3,0-.5.9.2,1.8-.3,2.6-.3s.9.4,1.3.5,1-.3,1.1-.2c.6.7-1.4,1.4-1.7,1.6-.9.7-2.1,2.1-3.4,2.3s-4.2.1-5.5,0-1.5-.5-2.2-.2c.6-1.5-.4-1.2-.7-2.2.2,0,.5-.2.7-.3,0-2.7-3-1-1.7.5-.5.1-1,.4-1.6.4s-5.3-1.2-5.5-1.5,0-.8,0-.9-.9,0-1.5-.5c-2.4-2-6-2.6-8.8-3.4s-3.9-1.4-5.5-1.7c-.2-1,1.5-.4,2.2-.2Z" fill="#b2d3e9"/>
  <path d="M20.6,23c1.6.3,3.8,1.2,5.5,1.7,2.8.9,6.4,1.4,8.8,3.4l-.5.2c0-.8-.2-.3-.7-.4-1.1-.3-2.2-.5-3.2-.8-1.7-.5-3.8-1.2-5.4-1.8s-3.3-1.8-5.2-2.1v-.5c.3.2.5.2.7.2Z" fill="#8dbcd9"/>
  <path d="M54.6,34.1c-.6.8-1.5,1.3-2.2,1.8s-.2.6-.2.6c-.3.2-2.8.7-2.9.8s0,.3,0,.5c-1.7-.5-2.9-1.4-4.4-2v-.5c.9.3,3.9.8,4.8.7,1.4,0,1.6-1,2.6-1.2s1.2-.6,2.5-.7Z" fill="#63a3c9"/>
  <path d="M24,19.3c-.1.7.4.5.8.5s2.5-1,2.4,0c-.7-.1-1,.5-1.4.7s-1.5.3-1.5.3c-.5.5.9.4.5,1l-2-.2c0-.3-.4-.5-.7-.5s-.5.1-.7.2c-1-.1-2-.3-3-.2s-.3,0-.5,0c-.1-.8.4-.4.9-.5.9-.1,2.1-.2,2.9-.4s1.7-.6,2.4-.9Z" fill="#b2d3e9"/>
  <path d="M66.7,26.7c1.3-1.4,4.4-2.8,6.4-3.6s.9-.5,1.2-.3c.6.4.2.6-.2.9s-1.6.5-2.2.9-.6.8-.8,1-2.9,1.4-3.1,1.4c-.4,0-.8-.4-1.3-.4Z" fill="#e0eef8"/>
  <path d="M26.2,21.5c0,0,0,.5,0,.7.2.2,2.8.7,2.7,1.8-1.4-.3-2.7-1.2-4.2-1-.3-.8.9-2,1.5-1.5Z" fill="#b2d3e9"/>
  <path d="M30.4,27.1c1.1.3,2.1.5,3.2.8s.6-.4.7.4,0,.3,0,.5c-.3-.1-1.3-.1-2-.4s-2-.6-2-1.4Z" fill="#b2d3e9"/>
  <path d="M43.5,30.6c-1.3-1.6,1.6-3.2,1.7-.5-.2,0-.5.2-.7.3-.4.2-.6.2-1,.2Z" fill="#63a3c9"/>
  <path d="M30.2,19s.3,0,.4,0c.2-.2-.3-.9.7-.7l1.1,1.2c0,0-.4,0-.5,0-.5.2-.8.7-1.6.5s-.5-.7-.2-1Z" fill="#b2d3e9"/>
  <path d="M65.9,23.7c0,0,0,.5,0,.7s.9-.2.7.4-1,.8-1.5.6c0-.4-.4-1.6-.3-1.7s.9,0,1,0Z" fill="#e0eef8"/>
  <path d="M30.2,19c-.3.3-.3.8.2,1,.8.3,1.1-.2,1.6-.5.7.6-1.1,1-1.3,1-1.2,0-1.1-1-1.4-1.2.3-.6.4-.6,1-.2Z" fill="#63a3c9"/>
  <path d="M47.5,32.8c.5.2,0,1.2-.6,1.2-1.6.2-.5-1.7.6-1.2Z" fill="#63a3c9"/>
  <path d="M53.1,28.9c0,.2,0,.4,0,.5,0,0-.2.2-.2.2-.3.9-1.8,1.3-2,.5.6,0,1.4,0,1.7-.6s-.7-.3-1-1.1v-.2c0,0,1.4.7,1.5.7Z" fill="#63a3c9"/>
  <path d="M70.1,17.3c.3.3-.2.8-.5.5s.2-.8.5-.5Z" fill="#b2d3e9"/>
  <path d="M69.6,18c.2,0-.1.4-.5.2s.1-.4.5-.2Z" fill="#b2d3e9"/>
  <path d="M54.8,10.9c1.2.1,2.7.3,3.9.5s1.6.6,2.2.7c0,1.3,2.1,1,2.2,2.2-.5,0-2.7,0-3,.2s0,.5,0,.5c-.2.1-3.6.7-4.4.9-1.4.3-3.7.5-5,1-2.2-.8-3.8,1.6-5.8,1.5s-3-.9-3.2-1c-.3-.2-.1-.4-.2-.5,1.9.4,1.9-1.4.4-1.5s-.3.7-.9.5c-.6-.8-2.4-1.7-.3-2.9s2.7-1.3,3-1.3c0,.2,0,.3,0,.5,2-.4,4.7.2,6.7-.8s.9-.9.9-.9c.1,0,2.7.2,3.2.2Z" fill="#fdfefe"/>
  <path d="M47,6.9c1.8-.2,3.6,0,5.4.2-.4,1.6,1,.5.7,1.7-1.2,0-2.5-.2-3.7-.2s-.2,0-.2,0v-.2c-.1,0-.2.2-.2.2-.2,0-.3,0-.5,0-.5-.8-3-.6-3.9-.5,0-1.1,1.6-1.2,2.5-1.2Z" fill="#d0e5f4"/>
  <path d="M53.1,8.9c1,0,2.2,0,3.2,0,.4,1.6-1.4.7-1.5,2-.5,0-3.1-.3-3.2-.2.3-1.6-1.3-1.3-2.2-2,1.2,0,2.5.2,3.7.2Z" fill="#e0eef8"/>
  <path d="M56.3,8.9c1.4.1,1.4.5,2.4.9s2.2.5,2.3.5.2.5-.3.4-2.2-.8-1.9.5c-1.2-.2-2.7-.4-3.9-.5.1-1.3,1.9-.4,1.5-2Z" fill="#d0e5f4"/>
  <path d="M79.8,14.1c-.1-.7.3-.5.8-.4,2.6.4,5.3,1.3,7.8,1.9l-.5.4c.3.1.2.6.2.6-2.8-.8-5.5-2.2-8.4-2.5Z" fill="#63a3c9"/>
  <path d="M72.6,14.1c.7,0,1.6.8,1.9-.2l.4,1c-.9.5-2.3.8-3.3.5s.1-1.2,1.1-1.2Z" fill="#63a3c9"/>
  <path d="M75.6,13.3c-.4.3-5.1-.9-5.8-1.2s-2.3-1.1-1.8-1.5c1.2.2,2.8.2,3.9.6s.8.6,1.2.7c.8.3,2.3.2,2.4,1.4Z" fill="#63a3c9"/>
  <path d="M64.2,9.1c-.3-.4-2.3-.6-2.5-.7-.4-.4,0-.4.4-.5,1.5-.3,4.7-.2,5.3,1.5-.4,0-.8,0-1.2,0s-.2,0-.2,0c-.5-.2-1-.2-1.5-.2s-.2,0-.2,0Z" fill="#e0eef8"/>
  <path d="M69.4,9.6c.2,1.1-1.2.3-1.7.2.4.1.7-.5.7-.5.5-.2.8.2,1,.2Z" fill="#b2d3e9"/>
  <path d="M65.9,9.4c-.4,0-1,.3-1.5-.2.5,0,1,0,1.5.2Z" fill="#63a3c9"/>
  <path d="M90.1,16.5c.2,0-.1.4-.5.2s.1-.4.5-.2Z" fill="#b2d3e9"/>
  <path d="M57.8,33.1l.5.5c-1.4.6-3,1.8-3.9,2.7-1,.3-1.1.4-2,1l-.2-.7s0-.5.2-.6c.8-.6,1.7-1.1,2.2-1.8.8-.1,2.4-.7,3.2-1Z" fill="#d0e5f4"/>
  <path d="M63.7,32.1c0,.4.1,1-.2,1.4-.6.6-.4-.7-.9-.4s-.3.5-.4.7-.8.1-.9.5.4.8.2,1.1-2.3,1-2.4,1.1,0,.3,0,.5,0,.4,0,.5-.3-.2-.6,0-.7.7-.9,1c-.4.8,0,.9,0,1.5s-.5,2.1-.7,2.6-.7.6-.8.8c-.4,1.4.8,2.5.5,3.9s-1.6,1.8-1.9,2.6,0,2-.2,3c-.4,2.7-1.6,5.4-1.2,8.5s.9,1.9.7,2.7-1.9,1.7-1.9,1.8c-.1.5.1,1.4,0,2,0,0,.7-.1.8-.2.4-.3-.1-.9.6-.8-.2,2,.4,4.1-.2,5.9l-1-1.2c0,1.7,0,3.4,0,5.1s-.3.6-.3.6l-.5.2c0-1.4-.2-2.9-.2-4.2-.1-2.3-.6-4.7-.5-6.9.1-3.9.8-4.5-.2-8.6s-.2-.8-.2-1.2c.5-1.4.1-3.2.2-4.7s.2-.5.2-1c0-1.5.4-2.9.2-4.4.4-.3.3-.9.2-1.3-.2-1.7-.4-2.9,0-4.6s1.7-2.8,3-3.9c.2,0,.5,0,.8,0s.9-.8,1.5-1-.4,1.3.5,1,3-2.7,3.8-3.5c.9-.3,1.8-.6,2.7-1v.2Z" fill="#b2d3e9"/>
  <path d="M61,32.8c-.8.8-2.9,3.1-3.8,3.5s.4-1.2-.5-1-1.4,1-1.5,1c-.3,0-.6,0-.8,0,1-.9,2.5-2.1,3.9-2.7s2-.5,2.7-.7Z" fill="#8dbcd9"/>
  <path d="M76.8,25.9c.2.9-.8,1-1.5,1.5-1,.6-1.7.6-2.7,1s-.9.6-1.2.7-.6.3-1,.5c-.6.3-2.5.6-2.5,1.5-.3.2-.7.3-1,.5-.8-.6-1.7.3-2.5.5s-.5,0-.7,0v-.2c2.9-1.2,5.9-2.5,8.6-3.9s.6-.4.7-.5c.3-.2,1-.2,1.5-.5s.2-.2.2-.2c.8-.2.7-.4,1-.5s.7-.1,1-.2Z" fill="#8dbcd9"/>
  <path d="M83.7,23.9c-1.7.7-3.2,1.6-5,1.8s-.8.5-.7-.3c2-.7,3.8-1,5.7-1.5Z" fill="#d0e5f4"/>
  <path d="M83.6,24.9c.2.2-.4.6-.4.4l.4-.4Z" fill="#8dbcd9"/>
  <path d="M74.6,26.9c0-.1.1-.2.2-.2,0,0-.1.2-.2.2Z" fill="#e0eef8"/>
  <path d="M81.2,40.7c.1.7-.4.6-.2,0s.2,0,.2,0Z" fill="#e0eef8"/>
  <path d="M71.4,64.6c.1-.1.8-.7,1-.5.1.9-.5,1.8-1.5,1.7,0,0,.2-.8.2-1,.1,0,.2,0,.2-.2Z" fill="#e0eef8"/>
  <path d="M71.1,64.9c-.6.4-1.2.5-1.5,1.5l.7.4c-.6.3-1.6,2-2,2.2s-.9-.2-1-.1.1.6-.1.8-2,.8-2.1.7c0-2,1.3-3.7,1.6-5.7-.9,1.2-1.4,2.8-1.9,4.3s0,.7,0,.9c-.2.4-2.6,3.4-3,3.4-.9-.2-1-1.1-1.4-1.7s-.6-.3-.9-.6-.3-.9-.5-1c-.4-.3-1.6.5-1.7-.2s.7-.6.7-1.2c0-.9-1.5-2.4-1.7-3.8s.2-3.8.2-5.7-.3-.9-.2-1.2c.1-.7.3-.3.4-1.8.2-2.9.5-5.4.5-8.4s2.1-5.4,4.2-7.9,1.6-1.6,4.3-3.1,3.4-2.7,5.2-2.9,2,.5,3.3.1.9-.8,1.4-1c.9-.4,1.8-.5,2.6-1.1l.2,1.2,1.2-.5v.7c.8,0,.8-.8,1.5-.3,1.4,1.1-.3,2.8.1,3.2s1-.3,1.4.7c.6,1.4-.2,3.2-1.7,3.8,0-.1,0-.5-.1-.5-.3,0,0,.4-.1.5-.6.9-1.1,1.7-1,3,0,.1.9-.3,1-.2.4.4-.4.5-.5.7-.2.5-.1,1.3-.5,1.9s-.8.6-1.2,1.3-1.8,3.9-1.5,4.3l1.5-1-.7,1.8h.7c-.7,1.8-.4,5.3-2.7,5.3l1,.5v.8s-5.6,4.4-5.6,4.4c-.2.3,0,.9,0,1.2,0,0-.2.1-.2.2ZM76.6,38.2v-.7c-.4.2-.6.4-.5.7h.5ZM76.8,40.2c.5.6,1.6-2.4,1.6-2.7-.6.1-1.9,2.4-1.6,2.7ZM75.9,38.5v.2c.2,0,.2-.2,0-.2ZM75.4,39.2v.2c.2,0,.2-.2,0-.2ZM81.4,39.5v.2c.2,0,.2-.2,0-.2ZM75.2,39.7v.2c.2,0,.2-.2,0-.2ZM78.2,39.7v.2c.2,0,.2-.2,0-.2ZM77.9,40.2c-.2.2-.6.7-.5,1,.2-.2.6-.7.5-1ZM73.6,47.1c.5.1.6-.3.8-.6,1.1-1.5,2.2-3.3,2.8-5.1l-3.6,5.7ZM73.3,44.9l1-2c-.4.3-2.3,2.1-1,2ZM72,44.2v.2c.2,0,.2-.2,0-.2ZM70.4,46.4c.4.4,1.2-1.1,1.1-1.5-.2.2-1.4,1.2-1.1,1.5ZM70.3,46.6v.2c.2,0,.2-.2,0-.2ZM72.6,47.9v-.7c-.2.3-.5.8,0,.7ZM60,47.4c-.7-.6-2.2,1.2-2.2,1.9.8,0,.4-1,1.2-1.4s.8.1,1.2.1c-.1-.2-.2-.7-.3-.7ZM71.9,48.4v.7c.2-.3.5-.8,0-.7ZM71.5,49.3v.2c.2,0,.2-.2,0-.2ZM61.3,53c-.7,0-.8,2.1-.7,2.2s1.3,1,1.4,1c.4.1.8,0,1.2-.2s1.3-.9,1.6-1.2c.7-.7.4-.5.7-.9s.5-.2.5-.3-.1-.3,0-.4.4,0,.4-.2c.2-1.3,0-3-1.6-3.1s-1.6.1-1.4.7c-1,.2-1.1,0-1.9,1s-.2.9-.1,1.2ZM69.4,52.6v.7c.2-.3.5-.8,0-.7ZM78,53.3c-.5-.5-.8,1.2-.7,1.2.5.5.8-1.2.7-1.2ZM67.7,56c.4.4,2.4-2,1.4-2.2s-1.5,2.1-1.4,2.2ZM67.6,56.2v.2c.2,0,.2-.2,0-.2ZM67.1,64.1v.2c.2,0,.2-.2,0-.2ZM68.4,67.8c-.3-.3-.8.2-.5.5s.8-.2.5-.5Z" fill="#e0eef8"/>
  <path d="M71.1,76.7c0-.8.6-.7.5,0-.2,0-.3,0-.5,0,0,.6.3,1.1.3,1.9s-.6.2-.5.6c.2,0,.4,0,.5,0l-.7.9-7.7,2.8c3.2,0,6.1-2,9.1-2.7s1.2,0,2,0,1.3-.4,1.9-.6.7-.2.5.3-2.3,1.7-2.7,1.9c-1.6.8-4.9,2-6.6,2.4-3.5.8-8.6,2.1-11.9,2.6s-1.7.5-2.6.4c0-.5-.5-2.9-.2-3.2.7,0,1.3,0,2,0,1.6-.1,4.8-.8,6.1-1.6s.4-.6.7-.8c.5-.3,2.8-1.4,2.9-1.5.4-.6.3-1.6-.6-1.7,0,.2.1.4-.1.5-.4.1-.4-.1-.4-.5.1,0,.4,0,.5,0,.3-.9.6-.6,1.5-1-.4,1.7,2.2-.3,2.5,0,.8.9-1.5.8-1.7,1.4s.1,1.1.5,1.1c0-.2,0-.4.2-.5.9-.5,3.4-1.1,4.1-1.7s-.3-.6.6-.8ZM65.6,79.7v.2c.2,0,.2-.2,0-.2Z" fill="#b2d3e9"/>
  <path d="M76.1,74.5s.7.9.7,1c-.8,1-1.3,3.4-2.7,3.8s-1.5-.1-2,.4c0,0-.6-.4-.7-.5s-.3,0-.5,0c0-.4.5,0,.5-.6s-.2-1.3-.3-1.9c.2,0,.3,0,.5,0,.1-.7-.6-.8-.5,0-.9.1-.2.4-.6.8-.7.6-3.2,1.2-4.1,1.7s-.2.3-.2.5c-.4,0-.5-.9-.5-1.1.2-.6,2.5-.5,1.7-1.4s-2.9,1.7-2.5,0c2.8-1.3,5-1.9,7.9-2.7-.2.7-.8,1.4-.9,2.2-.3,1.2-.3,1.8,1,1.5s3.3-3.4,1.4-3.9c0,0-.2-.7.6-.5s.9.5,1.1.7Z" fill="#8dbcd9"/>
  <path d="M52.4,81.9c4.9,0,5.4,0,9.4-2.7s.4-.4.5-.5c.2-.1.6-.5.7-.5,0,.4,0,.6.4.5s0-.3.1-.5c.9.1,1,1.1.6,1.7s-2.5,1.2-2.9,1.5-.4.7-.7.8c-1.3.8-4.6,1.5-6.1,1.6.4-2.1-1.7-.2-2-.5,0-.5,0-1,0-1.5h-.5c0-1.6-.2-3.1-.2-4.7l.5-.2c0,1.7.1,3.2.2,4.9Z" fill="#8dbcd9"/>
  <path d="M74.3,74.3c2,.5-.3,3.7-1.4,3.9s-1.3-.3-1-1.5.8-1.4.9-2.2c.3,0,1.4-.2,1.5-.2Z" fill="#e0eef8"/>
  <path d="M76.6,31.3c-1.9,2.7-5.1,1.1-7.9,1.7l3.8-1.7c1.4.3,2.6.2,4.1,0Z" fill="#fdfefe"/>
  <path d="M80.7,73.8c.6,0,1.2,0,1.7,0v.5c-1.4-.3-4.1,1.8-4.9-.2,1.1,0,2.1-.2,3.2-.2Z" fill="#8dbcd9"/>
  <path d="M59.8,37c0,1.1-.5,1.7-1.7,1.7-.1-.2-.3-.3-.5-.5.2-.3.6-.8.9-1s.6,0,.6,0c0,0,0-.4,0-.5.4,0,.5.1.7.2Z" fill="#e0eef8"/>
  <path d="M66.9,31.6c-.4.3-1.3,1.5-1.9,1.7s-.4-1-.6-1.2c.8-.2,1.7-1.1,2.5-.5Z" fill="#b2d3e9"/>
  <path d="M56.1,78.2c.2.2-1,1.6-1.7,1.2-.8-1.8.4-1.4,1.7-1.2Z" fill="#b2d3e9"/>
  <path d="M59.8,37c1.2.7-.4,2.5-1.6,2.2s0-.4-.1-.5c1.2,0,1.6-.6,1.7-1.7Z" fill="#8dbcd9"/>
  <path d="M70.4,29.6c.1.5-1.2,1.1-1.7,1.4s-.6,0-.7.1c0-.8,1.8-1.2,2.5-1.5Z" fill="#b2d3e9"/>
  <path d="M61.8,79.2c.2-2.3,2.1-4,.5-.5,0,0-.2.3-.5.5Z" fill="#b2d3e9"/>
  <path d="M72.6,28.4c0,.6-.6.9-1.1,1v-.2c.2-.1.4-.5,1.1-.7Z" fill="#b2d3e9"/>
  <rect x="54.4" y="55.8" width=".5" height=".7" fill="#b2d3e9"/>
  <path d="M63.2,76c0-.5,0-.9.5-1,0,.5,0,.9-.5,1Z" fill="#b2d3e9"/>
  <path d="M53.2,73c.2,0,.2.2,0,.2v-.2Z" fill="#b2d3e9"/>
  <path d="M67.2,84.1c-2.9,2.1-10.1,3.4-10.1,7.8s.5.3.5.5c0,.6-.6.9-.5,1.5l1,.4c-.2,0-.8.5-1.2.2-.5-.4,0-4.4-1.1-4.9-.1,1.9-.2,3.8-.6,5.7-1.1.2-.6-1.6-.7-1.7l-1.2.2c-.1-2.2-.4-4.4-.5-6.7.9,0,1.8-.3,2.6-.4,3.3-.4,8.4-1.7,11.9-2.6Z" fill="#d0e5f4"/>
  <path d="M63.7,88.3c0-1.3.9.3,1.2-.2.3,1.6-.7,2.1-2,2.6s-2.8.9-2.2-.4v-.2c0,0,.2,0,.2,0s0,.2.4,0c1-.2,2.2-.9,2.7-1.8.2-.4-.3,0-.4,0Z" fill="#8dbcd9"/>
  <path d="M76.8,76.5c0,.3,0,.7,0,1l-2.7,2.7c-.8,0-.9-.3-2,0,0-.1,0-.4,0-.5.5-.5,1.3-.1,2-.4,1.4-.4,1.9-2.9,2.7-3.8,0,.2,0,.7,0,1Z" fill="#63a3c9"/>
  <path d="M69.4,85.6c-.8,0-.6,1.7-2,1.5,0,0-.6.2-.5-.3.2-1,2.1-2.9,2.4-1.1Z" fill="#d0e5f4"/>
  <path d="M61,90c.1-1.7,1.1-.6,1.2-.7s0-.8,0-1,1.1,0,1.5,0,.6-.4.4,0c-.5.9-1.7,1.6-2.7,1.8s-.4,0-.4,0Z" fill="#fdfefe"/>
  <path d="M69.4,85.6c0,0,0,.2,0,.2,0,.3,0,.7,0,1-.4.4-1.2.8-1.7.7l-.2-.2s0-.2,0-.2c1.4.2,1.1-1.5,2-1.5Z" fill="#63a3c9"/>
  <path d="M69.4,85.8c.9-.1.4.6,0,1,0-.3,0-.7,0-1Z" fill="#d0e5f4"/>
  <path d="M60.8,90v.2c-.7,0-.8-.2,0-.2Z" fill="#fdfefe"/>
  <path d="M67.7,87.6c-.1,0-.2-.2-.2-.2l.2.2Z" fill="#d0e5f4"/>
  <path d="M49.7,95l1.2,1c0,.3-.1.6-.4.7-.5.1-4.2-.9-5-1h2c.5,0,1.3-.7,1.4-.7s.5,0,.7,0Z" fill="#b2d3e9"/>
  <path d="M51.6,77.2c0,1.6.2,3.1.2,4.7.2,4.7.3,9.4.5,14.1-1,.1-.4-1.6-1-2.2,0-1.4-.3-2.9-.2-4.2,0-2.2.6-4.2.5-6.7s-.2-2.4-.5-3.2c0-1.8-.4-3.5-.5-5.2s0-.3,0-.5c.8.2.3-.6.7-1,0,1.3.2,2.8.2,4.2Z" fill="#fdfefe"/>
  <path d="M16.4,32.1c.8,0,1.6-.2,2.1.5v-.7c1.2,0,1.4.8,1.9,1.1s2.3.8,3,1.2,3.5,2.4,3.8,2.5c.3,0,.8-.3,1.4-.2,2,.3,5,2.1,6.5,2.4s1.1-.2,1.5,0c.7.2,1.7,1.4,2.1,1.6s.8-.2.8-.2c.5,0,1,.4,1.5.2.9.6,1.5,3.7,2,4.2s.4-.6.5-.7.4,0,.6-.2.1-.4.3-.4c.7,0,1.5.6,1.2,1.2s-1.1.3-.9,1l1-.2c-.2.8-.6,2.2-.4,3s.5.7.6,1.1c.2.9,0,2.1.1,3.1s.8,1.7.9,2.6,0,2.6,0,3.8c1,.1.8-.1.7-1,.6-.7,1,2,1,2.4,0,1.8-1.3,5.1,2,4.1,0,.7,0,1.3,0,2,0,2.6-.1,5.3,0,7.9s0,.3,0,.5c-.7,1.9,0,4,0,5.9-4.5,1.2-5.9,0-9.9-1.5s-10.5-3.9-15.8-5.9-3.1-1.6-3.9-1.7-1.2.4-1.8.5-.2,0-.2,0c.4-1.5,1-2.3,1-3.9s0-.3,0-.5c.4-.3.2-.9.3-1.4,0-4.7-1.2-9.2-1.7-13.8s-.1-5.3-1.6-8.3-.3-.8-.9-.7c-.1-.8-.2-1.4-.2-2.2-.3-3.7.3-5.5.5-8.9ZM21.5,38.8c-.7.2-.6,1.7.4,1.4s.8-1.8-.4-1.4ZM26.2,40.7c-.5,0-1.8,0-1.5.9s2,.2,1.5-.9ZM33.9,54c0,.8,0,1.5.4,2.2s1.1,1.2,1.2,2.2-.4,1.4-.3,2,1,.8,1.2,1.2.3,1.4.6,2.1c.5,1,1.7,1.7,2.3,2.6s.9,1.7,1.6,2.6,1.4,1.4,1.5,1.5c.2.1.7.2.7.1.3-.2,1.1-6.5,1.5-6.9s1.3,0,.7-.8-.6.4-.7.2c-.7-.9.6-2.3.5-2.8s-1.2-.3-1.2-.4c-.1,0,.3-.8.2-1.1s-.7-.3-.7-.6c0-.5.3-1.8.2-2.4-.3-2.1-4.1-5.1-5-7.3s.2-.7,0-1.1-1.9-1-2-1.1c-.2-.3,0-.9-.2-1.2s-.5-.2-.7-.3-.2-.5-.4-.5c-.2,0-.5.3-.9.2s-.6-.4-1-.4c-.7,0-1.4.9-2,1s-1.1-.4-1.6-.2c.4.8,0,1.7,0,2.3s.8,2.1.9,2.8-.1,1.4.2,2,2.1,2,2.8,2ZM44.1,45c-.2-.2,0-.5-.3-.4.1.5.1,1.2.7,1,.2-.6-.2-.4-.4-.6ZM40.7,44.9c-.8.2-.2,1.6.5,1.5,1-.2.5-1.7-.5-1.5ZM22,52.3c-.2-.2-1,.6-1,.6,0,1.4,1.7,1,1-.6ZM46.5,63.4c.7.7,2-1.3,1.1-2l-.2,1.2c-.9-.8-1.2.4-.9.7ZM22,67.3c-.3.6-.2,1.1-.2,1.7s-.3.3-.2.6c.3,1,1.7.9,2.4.4,1.6-1.1-.7-4.8-2-2.7ZM31.9,71.5c0,.1,0,.4,0,.5s-.2,0-.1.2c.6,1.1,2.3.3,1.7-.7s-.8-.3-.9-.2-.2,0-.2,0c0-.5-.7,0-.7.1s.2,0,.2.1Z" fill="#d0e5f4"/>
  <path d="M8.2,68.1c0-1.8-.4-2.9.7-4.6s2.1-1.7,2.9-2.6.5-1.3,1.1-1.6c.7,1.6-.6,3.1-.7,4.7h1c.1,0,0,1.6-.3,1.7s-1.2-.2-.9.4c.4.9,1.4-.4,1.7-.1-.2,1.8,1.5,0,1.8,0,.7.1.1,1.7-.3,2s-3.3,1.4-3.9,1.2.1-1.2-1.4-.8c.6,1.4.6,1.5-.2,2.7l-.5-.2c1.3-.8.8-2.6-.5-2.7s-.3,0-.5,0Z" fill="#63a3c9"/>
  <path d="M5,36.3c.8.3,1.6,3.8,1.8,3.9s.8-.1,1,.2c.6.8.3,4,2.2,4.5-.5-1.7,1-1.1,1.2-1.5s.2-1.4.2-1.6-.5-2.9.3-2.1.6,1.9.7,2.2c.1.6,0,1.2,0,1.8l1.2-.2c.1,1.1-.2,4.8-1.4,5.1s-1.8.3-1.9.3c-.5-.1-.8-1.6.3-1.1-.1-1.9-1.2-1.4-2.2-2.5s-1.4-2.4-1.5-3.5c-.1-.2-.9,1.5-2.2.2s-1.1-1.9-1.2-2.7l1.4,1.9,1.1.5c.2-.2-.8-4.7-1-5.4Z" fill="#63a3c9"/>
  <path d="M20.1,67.3c0-2.5-.5-5.2-1-7.6s0-.2,0-.2c-.6-3.2-1.6-6-2-9.2s.3-1-.5-.9c0,0,0-.3,0-.4s.6-.2.6-.5-.2-.4-.2-.6c-.3-1.6-.7-3.1-1-4.7.6,0,.7.3.9.7,1.5,3,1.2,5.2,1.6,8.3.6,4.6,1.8,9.1,1.7,13.8s.2,1.1-.3,1.4Z" fill="#b2d3e9"/>
  <path d="M20.1,67.3c0,.2,0,.3,0,.5-1.1.4-1.7,1.8-2.6,2.5s-.5.2-.6.2c.3-.8-1.3-.5-1-1.1s1-.3,1.4-.6,1.1-1.7,1.2-1.8c.5-1.1,0-1.6,0-2.2s0-.3,0-.5c0-1.1,0-2.1-.2-3.5h.2c0,0,.2-.2.2-.2.3-.3.6-.3.5-1,.5,2.5,1,5.2,1,7.6Z" fill="#63a3c9"/>
  <path d="M15.6,47.9c0-2.6-1.4-5.5-1.3-8s0-1,.5-1.1c0,.5.3,1,.4,1.4s-.2.9.6.8c0,.8.1,1.4.2,2.2.2,1.6.6,3.1,1,4.7h-1.5Z" fill="#63a3c9"/>
  <path d="M5.8,67.3l1.6,1.5c-.4,1.1.4,1.3.4,1.4.2,1.1-1.3,1-2,1.2s-.8.5-1.2.6c-.5,0-.6-.4-.8-.4.6-.7.1-1.7.1-2.5s0-1.4.6-1.2c.1,1,.2,2.3,1.3,2.7,1.1-.2.2-2.5,0-3.2Z" fill="#d0e5f4"/>
  <path d="M9.2,70.8l.5.2c-1.2,1.7-3,3.1-4.8,3.9-.3,0-.7-1.2-.5-1.5s3-1.5,3.6-1.9.7-.5,1.2-.9Z" fill="#b2d3e9"/>
  <path d="M5.3,66.4c.1.3.3.5.5,1,.2.7,1.2,3,0,3.2-1.1-.4-1.2-1.7-1.3-2.7s0-.8,0-1.2l.7-.2Z" fill="#e0eef8"/>
  <path d="M10.4,36.8c0,0,.5,1,.5,1.1,0,.1-.3,0-.4.2-.1.3,0,.6,0,.6s-.3-.2-.4-.2,0,.4-.2.4c-.6.2-1.5-1-1.3-1.6s1.5-.9,1.9-.6Z" fill="#d0e5f4"/>
  <path d="M17.1,47.9c0,.1.3.4.2.6s-.5.3-.6.5,0,.4,0,.4c-.3.3-.9,0-1.1-.2s.1-.9.1-1.2h1.5Z" fill="#e0eef8"/>
  <path d="M19.1,59.5c0,0,0,.2,0,.2.1.7-.2.7-.5,1l-.2.2h-.2c-.2-.9-1.4-2,1-1.5Z" fill="#e0eef8"/>
  <path d="M8.7,68.1c1.5,1-.5,2.7-.8.8s.3-.8.3-.8c.2,0,.3,0,.5,0Z" fill="#e0eef8"/>
  <path d="M18.3,64.9c-2.5,1-1.4-2.2,0-.5,0,.2,0,.3,0,.5Z" fill="#e0eef8"/>
  <path d="M5.3,66.4l-.7.2c0-.4-.4-1,0-1.5.1.3.5.7.7,1.2Z" fill="#d0e5f4"/>
  <path d="M27,31.1c1.6.3,1.6,1.3,2.2,1.6s4.1,1.1,5.2,1.4c-.2.8.4.8.7,1.1s0,.4,0,.4c-4.5-.7-8.7-2.5-12.8-4.2,0-.3-.3-1.1.3-.9,1,.2,2,.3,2.9.5s1.1.1,1.4.2Z" fill="#e0eef8"/>
  <path d="M50.9,38.7c-.5,1-.5,1.8-.5,3s.2,1.5.2,2.2c-.8,1,.2,3,0,3.8s-.7,0-.5,1,.5.3.5.5c0,.4-.2,1.1.3,1.3,0,.5-.2.9-.2,1-.6-.6-.5,0-.5.4,0,1.6,0,2.8.2,4.3s.1.8.2,1.2v3.5c-.9,0-.7.2-.7-.6-.3-4.8-.4-9.7-.7-14.4.7.1.5-.4.5-.9,0-1.2.1-5.6.8-6.3s.4,0,.4,0Z" fill="#d0e5f4"/>
  <path d="M47.5,38c.2,1-1.8,0-2.1,0s-.9-.5-1.1,0c-1.3-.5-2.6-.9-3.9-1.2s-1.6-.9-2.2-.2c-.7-.1-2.5-.6-3-1s0-.3,0-.4c-.2-.3-.9-.3-.7-1.1,3.8,1,6.8,1.8,10.5,3.2s2,.4,2.6.7Z" fill="#d0e5f4"/>
  <path d="M27,31.1c-.3,0-.9-.1-1.4-.2-1-.2-2-.3-2.9-.5s-.2.6-.3.9c-.9-.4-1.7-.8-2.7-1l2-.7c-1.7-.2-3-1.3-4.4-2l.5-.7c3.1,1.4,6.2,2.8,9.4,4.2Z" fill="#d0e5f4"/>
  <path d="M50.9,66.1h-.2c0-.7,0-1.3,0-2v-6.7c1,4.1.4,4.7.2,8.6Z" fill="#fdfefe"/>
  <path d="M39.6,39c0-.3.5-.7.2-1.2h.2s0,.7,0,.7c.2,0,.2-.2.2-.3.3.2.9.4,1,0,.6.3.6.9.2,1.5-.8,0-2,.3-2-.7Z" fill="#8dbcd9"/>
  <path d="M44.2,38c.2-.5.8,0,1.1,0s2.3,1,2.1,0c.5.2.5.4.5,1-.2,0-.5,0-.7,0-1.7-.3-1.6-.4-3-1Z" fill="#e0eef8"/>
  <path d="M47.9,39c.7.2,1.2,1.6.7,2.2-.2-.8-1-1.6-1.5-2.2.2,0,.5,0,.7,0Z" fill="#63a3c9"/>
  <path d="M41.5,39.7c0,0-.5.5-.5.5-.5.1-1-.2-1.5-.2-.5-.5,0-.8,0-1,0,1.1,1.2.7,2,.7Z" fill="#63a3c9"/>
  <path d="M40.3,36.8c-.7,0-1.5,0-2.2-.2.6-.7,1.6,0,2.2.2Z" fill="#e0eef8"/>
  <path d="M41.3,38.2c-.1.4-.7.2-1,0,.3-.2.5-.2,1,0Z" fill="#e0eef8"/>
  <path d="M18.1,76.2l-2.7,6.6c-1.7.5-3.3-2.8-2.8-3.9s3.5-1.7,4.6-2.1.5-.7,1-.6Z" fill="#b2d3e9"/>
  <path d="M16.1,85.1c-1.3-2.4,2.3-6.7,2.7-9.1.4-.4.4,0,.5.4.1,1.2,0,3.4-.4,4.5s-1.3,1.5-1.5,2.7.4.5.5.6,0,1.6.2,2c-.1.1-1.8-.7-2-1Z" fill="#63a3c9"/>
  <path d="M50.7,80.4c.1,0,.3,0,.5,0-.1,1.5,0,2.1-1.9,2s-5.8-2-8.5-2.2v-1.2c3.9,1.6,5.4,2.7,9.9,1.5Z" fill="#b2d3e9"/>
  <path d="M8,81.4c-.3-.2-.6-.2-.5-.7l3-.7c-.2,1.1.4,1.5,1,2.2-.6,1.2-1.2,0-1.8-.3l-1.7-.4Z" fill="#b2d3e9"/>
  <path d="M25,73c0,.8-.2.4-.7.3-.7-.2-3.4-1.3-3.6-1.3-.5,0-.7.5-1,.7l-.4-1c.6,0,1.4-.5,1.8-.5.8.1,3,1.3,3.9,1.7Z" fill="#b2d3e9"/>
  <path d="M51.2,79.7c0,.2,0,.5,0,.7-.2,0-.4,0-.5,0,0-1.9-.7-4,0-5.9,0,1.7.5,3.4.5,5.2Z" fill="#e0eef8"/>
  <path d="M40.8,79.2v1l-1.2.2c-.1-1.4-.1-1.3,1.2-1.2Z" fill="#e0eef8"/>
  <path d="M24.7,74c.8-.1,1.1,1.3.2,1.4s-1.1-1.3-.2-1.4Z" fill="#e0eef8"/>
  <path d="M15.9,85.1c-.2.3-1.4-.1-1.7-.2-.5-.2-1.4-1-2-1.2v-.5c.8.7,2.7,1.5,3.7,2Z" fill="#e0eef8"/>
  <path d="M8,81.4l1.7.4c.6.3,1.2,1.5,1.8.3.2.2.7.9.7,1v.5c-1.2-.6-3.1-1.4-4.2-2.2Z" fill="#d0e5f4"/>
  <path d="M4.8,38.5l-1.5-1.4c0-.9-.3-1.5.6-1.8l.9,3.2Z" fill="#e0eef8"/>
  <path d="M4.8,61.7c.4.4-.5.8-.5.9,0,.2.1,1.7-.5,1.1s-.4-1.9-.3-2c.3,0,1.2,0,1.2,0Z" fill="#8dbcd9"/>
  <path d="M3.3,68.8l-.5-2c1.2,0,.5,1.3.5,2Z" fill="#8dbcd9"/>
  <path d="M46.7,87.6c1.3.5,3.7.8,3.9,2.5s-.2,1.9.2,2.9c0,.2-.2.5-.4.6-.7.1-5.5-2.6-6.3-3.2-1.7-1.4-3.4-3.7-5.4-3.7s-3.7-1.4-3.9-1.9,0-.6,0-.7-1.2-.5-1.3-.5h-3.7c-.3,0-1.5.8-1.4-.2,2.4-.3,5-.6,7.4.2-.5-2.1-3.5-1.4-4.7-2.7,1.2-.3,1.5-.7,3.1-.5,2.2.3,5.9,4.1,8,5.4s3,1.4,4.5,2Z" fill="#d0e5f4"/>
  <path d="M28.2,81.2c2.2-.8,4.1-1.9,6.6-1.3s5.2,3.4,7,4.6,3.4,1.9,4.9,3.1c-1.5-.6-3.1-1.2-4.5-2-2-1.3-5.8-5.1-8-5.4s-1.8.1-3.1.5-2,.7-3,1-.9.4-1.1,0c.5-.2.9-.4,1.2-.5Z" fill="#fdfefe"/>
  <path d="M28.2,81.2c-.3.1-.7.3-1.2.5s-1.1.5-1.9.7c-1.2.2-3.2.1-4.1.4s-1.7,1.8-2.1,2.4c-.2-.5-.4-.5-.1-1.2.8-1.6,5.5-2.3,7.2-2.6s1.8-.5,2.3,0Z" fill="#d0e5f4"/>
  <path d="M20.8,86.8c.9.4,2.1.5,3,1.1,0,.7-2.8-.8-3-.9v-.2Z" fill="#d0e5f4"/>
  <path d="M21.4,78.2c.9-.2,1.4,1,.5,1.2s-1.2-1-.5-1.2Z" fill="#e0eef8"/>
  <path d="M54.4,36.3c-1.3,1.2-2.5,2.2-3,3.9-.8-.2-.4,1-1,1.5,0-1.1,0-1.9.5-3,.2-.2.3-.5.5-.7.9-.3.7-.5,1-.7.8-.5,1-.7,2-1Z" fill="#63a3c9"/>
  <path d="M52.1,36.5l.2.7c-.3.2-.1.5-1,.7s-1.3,0-2.2-.2c0-.1,0-.4,0-.5.1,0,2.6-.5,2.9-.8Z" fill="#e0eef8"/>
  <path d="M22,21c.1,1-.5.3-.7.2.2-.1.5-.2.7-.2Z" fill="#d0e5f4"/>
  <path d="M30.2,30.8c-1-.2-1.1-.1-1.5-1,1,.2,1.1.1,1.5,1Z" fill="#b2d3e9"/>
  <path d="M29,14.8c1,1.7,0,1.3-.2,1.7-1.6-1.1-1.1,0-1.7.4s-.6-.2-.7-.1c-.2.1,0,1-.7,1.1s-1-.2-1.6-.1c-1.8.2-4,1.1-5.8,1.5,0-.9,0-.6.6-.8s2.7-.7,3.2-.9-.3-.7,1.4-1,1.6-.1,2.7-.4,2-1,3-1.3Z" fill="#d0e5f4"/>
  <path d="M29.7,13.1c.2-.4.4-.6.8-.8.7-.4,3.8-1.8,4.5-1.9s.4,0,.4.1c-.4.7-1.5.8-2,1.2s-.2.6-.2.6c-.3.3-2.2,1.2-2.6,1.2s-.8-.5-.9-.5Z" fill="#8dbcd9"/>
  <path d="M28,13.8c.1.5.8.6,1,.7s0,.2,0,.2c-1,.3-2,1-3,1.3s-1.8.3-2.7.4l1-1.5.4.7c.1,0,2.5-1.1,2.7-1.2s-.2-.2.6-.8Z" fill="#8dbcd9"/>
  <path d="M43.8,6.2c-.3.7,1.4.6,2.1.5s.5-.3.6-.3c.2,0,.3,0,.5,0v.5c-.9,0-2.4.1-2.5,1.2,0,0-.3.2-.5.2.1-1.1-2,0-2.3,0-.5.2-.1.5-.9.7,0-1,1.1-2.1,1.5-3,.6.1.9.1,1.5,0Z" fill="#8dbcd9"/>
  <path d="M48.9,4.9s.1.2.2.2v1c-.8,0-1.5.2-2.2.2s-.3,0-.5,0c0-.3,0-.8,0-.9s1.8-.5,1.9-.5.3,0,.5,0Z" fill="#b2d3e9"/>
  <path d="M58.3,6.2c0,0,0,.8,0,1l-3.4-.5c.2-.8,3.3-.7,3.5-.5Z" fill="#b2d3e9"/>
  <path d="M49.4,5.2c.7.3,1.1.8,2.3.5l1.9.5c-1.5,0-3,0-4.4,0v-1c0,0,.2,0,.2,0Z" fill="#8dbcd9"/>
  <path d="M50.9,3.5l-.5,1c-.2,0-.6.6-1,.7,0,0-.2,0-.2,0-.1,0-.2-.2-.2-.2.1-.9,1.2-1.4,2-1.5Z" fill="#d0e5f4"/>
  <path d="M50.9,3.5c1.1,0,.6.4.7.5v.2c-.3,0-.9.1-1.2.2l.5-1Z" fill="#b2d3e9"/>
  <path d="M53.1,3.7c.2,1.4-.7.5-1.5.5v-.2s.6,0,.7,0,.2-.2.2-.2c.2,0,.3,0,.5,0Z" fill="#8dbcd9"/>
  <path d="M40.8,9.1c.8-.2.4-.4.9-.7s2.4-1.2,2.3,0c-1.4.4-2.3,1.3-3.7,1.2,0-.2,0-.3,0-.5.2,0,.4,0,.5,0Z" fill="#d0e5f4"/>
  <path d="M39.8,4.9c.3,0,.8,0,1.1,0,.5,1.1-1,1.5-1.8,1.7l.7-1.7Z" fill="#e0eef8"/>
  <path d="M39.8,4.9l-.7,1.7c-.5.2-.6.2-1.2.2,0-.6,1.3-1.8,2-2Z" fill="#b2d3e9"/>
  <path d="M40.3,9.1c0,.2,0,.3,0,.5,0,.9-.3.2-.5.2,0-.2,0-.7,0-.7s.3,0,.5,0Z" fill="#8dbcd9"/>
  <path d="M48.4,4.9c-.2,0-1.9.4-1.9.5-.1.2,0,.7,0,.9,0,0-.3.2-.6.3-.7,0-2.4.2-2.1-.5.8-.1,1.5-.4,2.2-.7s1.4-.7,2.2-1.5c0,.3.3.6.2,1Z" fill="#d0e5f4"/>
  <path d="M52.4,4l.2-.2c0,0-.2.2-.2.2Z" fill="#b2d3e9"/>
  <path d="M55.8,17.8s.2.2.4.2c.3,0,1.4-.4,1.6-.2.4.4-.2,1-.7.7.7,3.3-3.4,2-4.8,3.7-.7-.3-1.5-.2-1.6-1.2-.4-.4-1,1.6-1.8.5s.3-1.9.9-2.7c2.1.3,4.2-.8,6.2-1Z" fill="#fdfefe"/>
  <path d="M60.3,15.1c.6.5-.8,1.3-1.2,1.4-1.1.6-2.3.6-3.3,1.3-2,.2-4.1,1.3-6.2,1,.3-.4.1-1.2,1.2-1.7s3.6-.7,5-1,4.2-.8,4.4-.9Z" fill="#b2d3e9"/>
  <path d="M46,9.6c1.2-.1,2-.6,3.3-.4s2.2.7,1.7,1.4-5.8.9-6.9,1.2c-.1-1.4.3-.8,1-1.4s.4-.5,1-.9Z" fill="#d0e5f4"/>
  <path d="M48.9,8.6c0,0,.2,0,.2,0s.2,0,.2,0c.9.7,2.5.4,2.2,2,0,0-.4.7-.9.9-2,1-4.7.3-6.7.8,0-.2,0-.3,0-.5,1.1-.3,6.6-.8,6.9-1.2.5-.7-1.1-1.3-1.7-1.4-1.2-.2-2.1.3-3.3.4.8-.6,1.4-.8,2.5-1s.3,0,.5,0Z" fill="#63a3c9"/>
  <path d="M41.8,17c-.2-.4-.4-.8-.5-1,.6.2.4-.5.9-.5,1.6,0,1.5,1.9-.4,1.5Z" fill="#63a3c9"/>
  <path d="M31.7,13.6c0,0,0,.3,0,.5l-.7-.2c.2,0,.4-.4.7-.2Z" fill="#d0e5f4"/>
  <path d="M64.2,13.8c.3.3-.2.8-.5.5s.2-.8.5-.5Z" fill="#fdfefe"/>
  <path d="M51.6,28.4c.2.7,1.3.2,1,1.1s-1.1.7-1.7.6c-.3-1.1.8-1,.7-1.7Z" fill="#8dbcd9"/>
  <path d="M52.9,29.6c0,0,.2-.2.2-.2,0,0-.2.2-.2.2Z" fill="#d0e5f4"/>
  <path d="M49.2,8.6c0,0-.2,0-.2,0v-.2c.1,0,.2.2.2.2Z" fill="#e0eef8"/>
  <path d="M51.4,73c-.5.4,0,1.2-.7,1-.1-2.5,0-5.3,0-7.9h.2c0,2.2.4,4.6.5,6.9Z" fill="#e0eef8"/>
  <path d="M51.2,46.1c.1,1.6-.2,2.9-.2,4.4-.4-.2-.2-.9-.3-1.3s-.4,0-.5-.5c-.1-1,.5-.8.5-1,.1-.8-.8-2.8,0-3.8,0,.7.4,1.6.5,2.2Z" fill="#e0eef8"/>
  <path d="M51.4,40.2c-.4,1.7-.2,2.9,0,4.6s.2,1.1-.2,1.3c0-.6-.4-1.6-.5-2.2s-.2-1.5-.2-2.2c.6-.5.1-1.7,1-1.5Z" fill="#8dbcd9"/>
  <path d="M50.7,51.6c-.1,1.5.3,3.3-.2,4.7-.3-1.5-.3-2.8-.2-4.3s0-1,.5-.4Z" fill="#8dbcd9"/>
  <path d="M63.2,50.8c-.2-.6,1.1-.8,1.4-.7,1.7,0,1.8,1.7,1.6,3.1s-.4.2-.4.2c0,.1.1.3,0,.4s-.4.1-.5.3c-.2.3,0,.2-.7.9s-1.2,1-1.6,1.2-.8.3-1.2.2-1.3-.9-1.4-1c0-.1,0-2.2.7-2.2,0,.2,0,.7,0,1s0,1.2.4,1.2c2.5.6,4.4-4,3.5-4.7-.2,0-.5,0-.7,0-.4,0-.8.2-1.2.2Z" fill="#63a3c9"/>
  <path d="M64.5,50.6c0,1.6-1.5,3.6-3.2,3.5,0-.3,0-.8,0-1-.1-.4-1,0,.1-1.2s.8-.8,1.9-1,.8-.2,1.2-.2ZM61.4,52.3v.2c.2,0,.2-.2,0-.2Z" fill="#d0e5f4"/>
  <path d="M67.7,56c-.1-.1.8-2.3,1.4-2.2,1.1.2-1,2.6-1.4,2.2Z" fill="#d0e5f4"/>
  <path d="M76.8,40.2c-.3-.3,1-2.6,1.6-2.7,0,.3-1.1,3.3-1.6,2.7Z" fill="#d0e5f4"/>
  <path d="M60,47.4s.2.5.3.7c-.5,0-.7-.3-1.2-.1-.8.3-.4,1.4-1.2,1.4,0-.7,1.5-2.5,2.2-1.9Z" fill="#63a3c9"/>
  <path d="M73.3,44.9c-1.3.1.6-1.7,1-2l-1,2Z" fill="#d0e5f4"/>
  <path d="M73.6,47.1l3.6-5.7c-.6,1.8-1.7,3.6-2.8,5.1s-.3.7-.8.6Z" fill="#d0e5f4"/>
  <path d="M70.4,46.4c-.3-.3.9-1.2,1.1-1.5.1.3-.7,1.8-1.1,1.5Z" fill="#d0e5f4"/>
  <path d="M78,53.3c0,0-.3,1.7-.7,1.2s.3-1.7.7-1.2Z" fill="#d0e5f4"/>
  <path d="M76.6,38.2h-.5c0-.4.1-.5.4-.7v.7Z" fill="#d0e5f4"/>
  <path d="M68.4,67.8c.3.3-.2.8-.5.5s.2-.8.5-.5Z" fill="#d0e5f4"/>
  <path d="M69.4,52.6c.5,0,.2.5-.1.7v-.7Z" fill="#d0e5f4"/>
  <path d="M71.9,48.4c.5,0,.2.5-.1.7v-.7Z" fill="#d0e5f4"/>
  <path d="M72.6,47.9c-.5,0-.2-.5.1-.7v.7Z" fill="#d0e5f4"/>
  <path d="M77.9,40.2c0,.3-.3.8-.5,1,0-.3.3-.8.5-1Z" fill="#d0e5f4"/>
  <path d="M72,44.2c.2,0,.2.2,0,.2v-.2Z" fill="#d0e5f4"/>
  <path d="M78.2,39.7c.2,0,.2.2,0,.2v-.2Z" fill="#d0e5f4"/>
  <path d="M75.2,39.7c.2,0,.2.2,0,.2v-.2Z" fill="#d0e5f4"/>
  <path d="M67.1,64.1c.2,0,.2.2,0,.2v-.2Z" fill="#d0e5f4"/>
  <path d="M81.4,39.5c.2,0,.2.2,0,.2v-.2Z" fill="#d0e5f4"/>
  <path d="M75.4,39.2c.2,0,.2.2,0,.2v-.2Z" fill="#d0e5f4"/>
  <path d="M70.3,46.6c.2,0,.2.2,0,.2v-.2Z" fill="#d0e5f4"/>
  <path d="M75.9,38.5c.2,0,.2.2,0,.2v-.2Z" fill="#d0e5f4"/>
  <path d="M67.6,56.2c.2,0,.2.2,0,.2v-.2Z" fill="#d0e5f4"/>
  <path d="M71.5,49.3c.2,0,.2.2,0,.2v-.2Z" fill="#d0e5f4"/>
  <path d="M72.1,79.7c0,0,0,.3,0,.5-3,.7-5.9,2.8-9.1,2.7l7.7-2.8.7-.9c.1,0,.7.5.7.5Z" fill="#d0e5f4"/>
  <path d="M65.6,79.7c.2,0,.2.2,0,.2v-.2Z" fill="#8dbcd9"/>
  <path d="M38.8,86.6c2.1,0,3.7,2.3,5.4,3.7-1.2-.3-2.2-1.1-3.3-1.8l-2.1-1.9Z" fill="#b2d3e9"/>
  <path d="M25,88.8l-.7-.7c.4-.1,1.1,0,1,.6h-.2Z" fill="#d0e5f4"/>
  <path d="M33.9,54c-.7,0-2.6-1.4-2.8-2s0-1.4-.2-2-.9-2.2-.9-2.8.4-1.5,0-2.3c.5-.1,1.1.3,1.6.2s1.3-1,2-1,.7.4,1,.4.7-.2.9-.2.2.3.4.5.5,0,.7.3c.2.4,0,.9.2,1.2s1.6.5,2,1.1,0,.8,0,1.1c.9,2.3,4.7,5.2,5,7.3s-.3,1.9-.2,2.4.6.2.7.6-.3,1-.2,1.1,1.1-.1,1.2.4-1.2,1.9-.5,2.8c.1.1.7-.3.7-.2.6.7-.6.7-.7.8-.4.3-1.3,6.6-1.5,6.9s-.6,0-.7-.1-1.3-1.3-1.5-1.5c-.8-.9-1-1.8-1.6-2.6s-1.9-1.6-2.3-2.6-.3-1.6-.6-2.1-1.1-.5-1.2-1.2.4-1.3.3-2-.9-1.4-1.2-2.2-.3-1.5-.4-2.2h.2c.1,1,1.2.5,1.7,0-.3-2.1-.5,0-1.7-.8,0-1-.3-1.1,1-1,.1-1.1-1.1-.2-1.4.3-.3.8,0,1,.1,1.5Z" fill="#e0eef8"/>
  <path d="M24,70.1c-.7.5-2.2.6-2.4-.4s.2-.5.2-.6c.1,0,.4,0,.5,0s0,.4,0,.4c.3.3,1.3-.3,1.4-.7,0,.2.5.8.2,1.2Z" fill="#8dbcd9"/>
  <path d="M24,70.1c.2-.5-.2-1-.2-1.2s0-.2,0-.2c-.1-.6.4-1-.7-1.2s-.7,0-1,0c1.2-2.1,3.6,1.6,2,2.7Z" fill="#63a3c9"/>
  <path d="M21.5,38.8c1.3-.4,1.4,1.2.4,1.4s-1.1-1.2-.4-1.4Z" fill="#8dbcd9"/>
  <path d="M23,67.3c.2.8,0,1-.7,1.4v.4s-.4,0-.5,0c0-.6,0-1.2.2-1.7.3,0,.7,0,1,0Z" fill="#fdfefe"/>
  <path d="M40.7,44.9c1-.3,1.5,1.3.5,1.5s-1.2-1.3-.5-1.5Z" fill="#b2d3e9"/>
  <path d="M46.5,63.4c-.3-.3,0-1.6.9-.7l.2-1.2c.9.7-.4,2.7-1.1,2Z" fill="#b2d3e9"/>
  <path d="M26.2,40.7c.5,1.1-1.1,1.7-1.5.9s1-.8,1.5-.9Z" fill="#8dbcd9"/>
  <path d="M32.4,71.3c0,0,.2,0,.2,0,.8-.2.4.6.5,1.2-.5,0-1.1,0-1.2-.5,0-.1,0-.3,0-.5,0-.2.3-.2.5-.2Z" fill="#e0eef8"/>
  <path d="M22,52.3c.8,1.7-1,2.1-1,.6s.8-.8,1-.6Z" fill="#fdfefe"/>
  <path d="M31.9,72c.2.6.7.5,1.2.5,0-.7.3-1.4-.5-1.2.1,0,.5-.5.9.2s-1.2,1.8-1.7.7.1-.2.1-.2Z" fill="#b2d3e9"/>
  <path d="M44.1,45c.2.2.6,0,.4.6-.6.2-.6-.4-.7-1,.4,0,.2.2.3.4Z" fill="#b2d3e9"/>
  <path d="M32.4,71.3c-.2,0-.4,0-.5.2,0,0-.2,0-.2-.1,0-.2.7-.6.7-.1Z" fill="#b2d3e9"/>
  <path d="M18.3,60.9l.2-.2c0,0-.2.2-.2.2Z" fill="#8dbcd9"/>
  <path d="M64.5,50.6c.2,0,.5,0,.7,0,.9.6-1,5.3-3.5,4.7s-.4-.9-.4-1.2c1.7.1,3.2-1.8,3.2-3.5Z" fill="#b2d3e9"/>
  <path d="M61.4,52.3c.2,0,.2.2,0,.2v-.2Z" fill="#e0eef8"/>
  <path d="M34.1,53.3c1.3.7,1.4-1.3,1.7.8-.6.4-1.6.9-1.7,0s0-.5,0-.7Z" fill="#8dbcd9"/>
  <path d="M33.9,54c0-.5-.5-.7-.1-1.5s1.5-1.3,1.4-.3c-1.3,0-1,0-1,1s0,.5,0,.7h-.2Z" fill="#63a3c9"/>
  <path d="M23.8,68.6c0,0,0,.2,0,.2-.1.4-1.1,1-1.4.7s0-.4,0-.4l1.5-.5Z" fill="#d0e5f4"/>
  <path d="M23.8,68.6l-1.5.5v-.4c.7-.4.9-.5.7-1.4,1.1.2.6.7.7,1.2Z" fill="#e0eef8"/>
</svg>