<?xml version="1.0" encoding="UTF-8"?>
<svg id="Ebene_1" xmlns="http://www.w3.org/2000/svg" version="1.1" viewBox="0 0 150 150">
  <!-- Generator: Adobe Illustrator 29.1.0, SVG Export Plug-In . SVG Version: 2.1.0 Build 142)  -->
  <g id="_x36_MmHwg">
    <g>
      <path d="M128.91,17.06c3.018,1.244,4.597,2.82,5.843,5.843v107.821c-1.244,3.018-2.82,4.597-5.843,5.843H21.09c-3.023-1.245-4.599-2.824-5.843-5.843V22.902c1.245-3.023,2.824-4.599,5.843-5.843h107.821ZM103.802,45.333c-7.335,1.523-6.682,13.509,2.005,13.728,10.843.273,10.024-16.225-2.005-13.728ZM92.262,108.415l-19.359-60.945-17.746.47-18.664,60.476h14.075l4.568-15.348,17.534.262,4.987,15.087h14.606ZM112.976,64.331h-13.81v44.084h13.81v-44.084Z" fill="#fff"/>
      <polygon points="70.485 82.389 57.207 82.389 64.106 58.488 70.485 82.389" fill="#fff"/>
    </g>
  </g>
</svg>