<?xml version="1.0" encoding="UTF-8"?>
<svg id="Ebene_1" xmlns="http://www.w3.org/2000/svg" version="1.1" viewBox="0 0 150 150">
  <!-- Generator: Adobe Illustrator 29.1.0, SVG Export Plug-In . SVG Version: 2.1.0 Build 142)  -->
  <g id="HxTj3Q">
    <path d="M-969.747-150.402c44.157-3.704,73.629,43.368,49.87,81.077-20.841,33.078-57.512,22.494-90.571,24.186-19.961-1.438-37.427-16.55-41.289-36.226-5.992-30.523,19.193-57.717,49.942-54.092,8.909-7.876,19.954-13.93,32.048-14.945ZM-989.813-128.36c3.046.941,5.514,2.993,8.162,4.657,16.617-11.049,39.907-3.57,46.542,15.306,7.777,22.128-10.232,44.217-33.354,41.407-16.497-2.005-26.052-18.756-37.879-28.562-5.018-1.616-8.317,3.047-5.281,7.295,17.754,18.354,34.971,39.584,63.646,27.073,40.334-17.598,26.105-80.287-20.858-76.561-5.65.448-16.614,4.525-20.621,8.573-.273.276-.482.295-.357.812ZM-993.505-57.887l-9.402-8.886c-9.17.42-17.705-1.958-23.287-9.599-13.955-19.103,5.356-44.395,27.407-36.132,9.105,3.412,14.139,12.977,21.381,18.551,4.644,3.575,10.209-1.48,6.559-6.223-3.154-4.099-14.705-15.22-18.995-17.917-26.752-16.815-59.556,10.648-47.682,39.964,3.901,9.632,15.917,20.241,26.738,20.241h17.282Z" fill="#fff"/>
  </g>
  <g id="MoAwqn">
    <g>
      <path d="M-926.456,13.757c3.093,1.275,4.712,2.89,5.988,5.988v110.51c-1.275,3.093-2.89,4.712-5.988,5.988h-110.51c-3.098-1.276-4.713-2.895-5.988-5.988V19.201c1.583-2.669,3.061-4.267,5.988-5.444h110.51ZM-1007.569,81.26h11.16c16.111,0,27.269-18.281,19.774-32.839-7.818-15.183-32.218-11.105-46.176-10.168v66.959h15.243v-23.953ZM-938.429,57.861c-10.139-4.616-28.164-4.439-32.933,7.617-2.851,7.206-.279,13.312,6.091,17.307,2.925,1.835,12.944,4.638,13.659,7.025,2.811,9.377-15.401,4.572-19.477,2.336l-2.73,10.879c13.832,6.117,39.869,4.919,36.972-16-.438-3.159-3.237-6.565-5.764-8.39-2.879-2.078-14.105-5.398-14.768-7.55-2.559-8.308,12.343-4.936,16.22-2.889l2.73-10.335Z" fill="#fff"/>
      <path d="M-1007.569,69.284v-20.142c7.741-1.354,18.004-.465,17.994,9.527-.01,10.025-9.927,11.668-17.994,10.616Z" fill="#fff"/>
    </g>
  </g>
  <g id="_x36_Fb4mA">
    <g>
      <path d="M-858.664,11.276v-2.795h117.945v2.795l-10.897,116.271-47.237,13.971h-1.677l-47.224-13.984-10.91-116.258ZM-745.191,12.953h-109.001l10.31,111.827,44.191,12.264,44.191-12.264,10.31-111.827Z" fill="#fff"/>
      <path d="M-832.112,79.472c-1.462-.408-1.746-4.852-1.953-6.432-1.475-11.239-2.944-26.213-3.378-37.474-.035-.903.108-2.564.995-3.05l73.153-.098.822.46c.34.661.475,1.339.463,2.085-.055,3.314-.598,9.591-1.1,12.894-.156,1.023-.593,1.862-1.365,2.548h-52.824l.559,10.621h50.588c.098,0,.984.861,1.108,1.126.635,1.358-.118,8.211-.273,10.33-.753,10.283-1.675,21.576-2.862,31.794-.142,1.225-.489,2.495-.774,3.698l-31.257,8.915-30.205-8.929c-.365-.992-.655-2.071-.795-3.118-.763-5.692-1.577-13.853-1.768-19.534-.031-.923.534-3.041,1.425-3.041h15.651c2.175,0,1.54,9.854,2.459,11.516.512.64,12.968,4.122,14.182,4.015,1.139-.101,12.54-3.283,12.984-3.793l1.958-14.532h-47.793ZM-766.432,36.43h-66.519l3.354,38.57h47.234c2.501,0,2.039,4.744,1.978,6.452-.175,4.949-1.266,10.529-1.693,15.495-.479.873-15.644,4.887-17.616,4.927-1.804.037-15.946-3.625-17.223-4.477-1.42-.947-1.001-8.522-1.5-10.659h-10.062l2.016,18.507,26.771,7.205,27.052-7.324,3.413-40.188h-50.867l-1.587-17.52.749-.926h53.383l1.118-10.062Z" fill="#fff"/>
    </g>
  </g>
  <g id="e0oLuy">
    <path d="M-499.539,8.188l-10.58,119.557-46.727,13.374h-1.772l-47.185-13.963-10.713-118.968h116.979ZM-561.573,31.82h-33.085c.575,1.794.734,14.179,2.068,14.179h16.247v50.218c-1.886-.317-4.985-.212-6.672-.713-2.917-.868-1.775-9.626-2.781-12.284h-14.77l1.85,22.962c9.985,2.384,20.125,4.117,30.217,6.023.488.092.396,1.07.697,1.058,2.068-.084,4.018-.214,6.229.089V31.82ZM-514.9,31.82h-38.993v44.31h20.087c-1.143,3.681-.303,15.598-1.94,18.148-1.435,2.234-15.431,2.426-18.147,4.598v14.475l32.207-7.672,3.832-44.319h-20.678v-14.77h21.564c.408,0,.803-.983.889-1.475.714-4.095.024-9.177,1.179-13.295Z" fill="#fff"/>
  </g>
  <g id="_x33_6aOUp">
    <g>
      <path d="M-339.113,36.712c2.363-.326,4.705-.938,7.079-1.206,10.262-1.158,25.27-.347,27.719,12.285,1.92,9.905-6.038,20.079-11.994,27.172-.06.641,2.349,2.971,2.911,3.678,5.935,7.472,13.033,19.026,7.185,28.445-6.338,10.209-22.855,8.334-32.891,6.309-.239,1.186-.629,2.387-1.062,3.515-2.823,7.368-8.062,17.271-15.77,20.34-14.786,5.887-24.512-12.291-27.706-23.855-2.993.483-5.99,1.205-9.02,1.473-9.688.856-23.152-.725-25.68-12.156-2.216-10.02,5.861-20.412,11.905-27.578.06-.641-2.349-2.971-2.911-3.678-5.935-7.473-12.92-18.828-7.282-28.295,6.186-10.388,22.945-8.517,32.996-6.45,2.929-10.261,10.625-25.953,23.37-24.978,11.078.847,18.556,15.526,21.151,24.979ZM-347.275,38.935c-2.732-8.905-11.006-27.232-21.369-14.07-3.186,4.046-5.216,9.074-6.834,13.93l14,5.335,14.204-5.195ZM-322.302,69.113c.515-1.126,1.67-2.104,2.472-3.098,3.933-4.876,12.061-16.691,3.636-20.937-3.897-1.964-9.589-1.839-13.862-1.409-.856.086-5.978.822-6.347,1.073-.285.194-.24.421-.228.715.063,1.505.885,3.908,1.153,5.549.469,2.869.828,5.766,1.115,8.658l12.06,9.449ZM-386.124,44.891c-10.222-2.087-30.241-4.006-22.287,12.767,1.977,4.169,5.165,7.91,8.081,11.441,3.907-3.232,7.67-6.682,11.947-9.436l2.26-14.773ZM-371.761,49.082l-5.946-1.88-1.223,6.082,7.169-4.202ZM-343.816,53.283l-1.221-6.082c-.457-.339-5.164,1.527-5.944,2.001l7.165,4.081ZM-342.649,63.989c-4.857-2.945-9.659-6.086-14.762-8.608-.811-.401-3.181-1.723-3.877-1.783-.681-.059-3.257,1.384-4.048,1.783-1.764.89-14.757,8.122-15.041,8.95-.376,7.187-.517,14.423.084,21.6,5.971,3.921,12.178,7.477,18.611,10.597.366.135.65-.041.979-.149,2.442-.801,6.975-3.583,9.388-4.962,2.9-1.658,5.677-3.536,8.557-5.225l.322-.483c.309-5.54.595-11.169.364-16.728-.048-1.164-.128-3.106-.28-4.182-.041-.29-.096-.583-.298-.809ZM-389.073,70.845l-3.466,2.594-1.463,1.701,1.596,1.635,3.332,2.48v-8.41ZM-333.673,79.254l3.466-2.594,1.463-1.701-1.596-1.635-3.332-2.48v8.41ZM-388.384,90.435c-4.277-2.754-8.04-6.205-11.947-9.436-5.097,5.833-17.235,21.272-3.831,24.846,5.704,1.521,12.571.339,18.303-.622-1.297-4.831-1.902-9.831-2.525-14.787ZM-336.642,105.472c5.191.68,10.43,1.736,15.677.96,11.859-1.755,9.239-10.271,4.363-17.908-1.703-2.668-3.915-5.004-5.699-7.538-4.003,3.114-7.731,6.717-12.063,9.447l-2.278,15.04ZM-371.515,100.776l-7.415-3.961c.124.88.806,6.045,1.375,6.168,1.812-.683,3.758-1.107,5.547-1.844.236-.097.567-.026.493-.364ZM-351.231,101.017c.941.212,5.693,2.253,6.195,1.88l1.221-6.082-7.415,4.202ZM-361.678,106.009l-13.777,5.293c2.795,8.877,11.019,27.057,21.353,13.932,3.173-4.031,5.26-9.072,6.812-13.932l-14.388-5.293Z" fill="#fff"/>
      <path d="M-363.159,62.504c12.964-1.568,19.784,14.869,9.33,22.687-8.881,6.641-21.124-.66-20.154-11.498.484-5.41,5.421-10.535,10.824-11.189ZM-362.18,70.905c-.997.162-2.225,1.097-2.768,1.93-2.377,3.652,2.136,8.167,5.789,5.789,3.968-2.583,1.506-8.453-3.021-7.72Z" fill="#fff"/>
    </g>
  </g>
  <g id="pWF57C">
    <g>
      <path d="M-126.736,9.646c7.619-.595,13.661,5.245,14.106,12.702.692,11.607-.537,23.892,0,35.57-1.098,16.412-24.288,16.986-26.139.618.577-12.016-.746-24.717-.001-36.653.403-6.465,5.578-11.733,12.035-12.237Z" fill="#fff"/>
      <path d="M-197.078,44.584l37.837-.051c16.18,2.46,15.437,25.268-1.545,26.14-11.923.612-24.511-.334-36.474-.18-14.928-2.483-14.8-23.61.182-25.909Z" fill="#fff"/>
      <path d="M-125.964,79.368c11.424-.766,23.557.485,35.054-.052,16.679.916,17.52,23.601,1.52,26.113l-37.553.026c-16.044-2.118-15.689-24.969.979-26.087Z" fill="#fff"/>
      <path d="M-160.903,79.369c6.833-.262,12.771,5.166,13.334,11.929v37.27c-1.908,15.609-24.067,15.619-25.984,0v-37.424c.625-6.562,6.116-11.524,12.65-11.774Z" fill="#fff"/>
      <path d="M-103.98,70.666c.314-4.788-.492-10.195.173-14.901,1.418-10.027,13.502-14.881,21.318-8.214,8.563,7.303,4.655,21.297-6.46,22.918-4.756.694-10.194-.112-15.032.197Z" fill="#fff"/>
      <path d="M-182.359,79.322c-.22,4.484.289,9.236.006,13.689-.548,8.619-8.777,14.498-17.133,11.864-8.23-2.594-11.58-12.781-6.652-19.881,5.616-8.092,15.346-5.1,23.78-5.672Z" fill="#fff"/>
      <path d="M-138.764,114.261h14.455c4.056,0,8.786,3.968,10.413,7.52,5.495,11.999-8.133,23.675-19.041,16.413-2.706-1.801-5.827-6.139-5.827-9.478v-14.455Z" fill="#fff"/>
      <path d="M-147.575,35.726h-14.455c-2.934,0-7.142-2.759-8.863-5.051-8.658-11.528,4.705-26.561,17.122-19.131,2.762,1.653,6.196,6.095,6.196,9.418v14.764Z" fill="#fff"/>
    </g>
  </g>
  <g id="kiLtWm">
    <g>
      <path d="M76.743,19.345l11.784,1.818c19.756,4.95,35.345,20.585,40.31,40.319l1.818,11.786v3.463l-1.818,11.786c-4.96,19.755-20.567,35.333-40.31,40.319l-11.784,1.818h-3.462l-11.784-1.818c-19.756-4.95-35.345-20.585-40.31-40.319l-1.818-11.786c.051-1.143-.074-2.323,0-3.463,1.937-30.02,23.902-51.986,53.912-53.924h3.462ZM78.371,99.626c16.754-13.518,15.008-33.791,2.809-49.841-1.015-1.335-2.697-2.397-3.664-3.756-.99-1.393-1.24-3.465-2.747-4.421.14,3.255-3.264,4.665-5.204,6.92-13.294,15.444-12.573,39.637,4.464,51.944l.738,7.924,1.942-.037,1.662-8.733Z" fill="#fff"/>
      <path d="M75.259,72.526c.028-.204.487-1.415.984-1.234-.235,8.438.869,16.774.495,25.225-.613-.037-1.479-3.036-1.479-3.213,0-6.02-.778-15.206,0-20.778Z" fill="#fff"/>
    </g>
  </g>
</svg>