<?xml version="1.0" encoding="UTF-8"?>
<svg id="Ebene_1" xmlns="http://www.w3.org/2000/svg" version="1.1" viewBox="0 0 150 150">
  <!-- Generator: Adobe Illustrator 29.1.0, SVG Export Plug-In . SVG Version: 2.1.0 Build 142)  -->
  <g id="_x35_ZQkAW">
    <g>
      <path d="M79.583,14.807l11.88,2.292c19.238,5.246,35.982,21.771,41.323,41.05l2.409,12.304v9.096l-2.291,11.887c-5.488,19.618-21.495,35.65-41.023,41.35l-12.298,2.409h-9.09l-11.88-2.292c-19.797-5.507-35.907-21.685-41.441-41.467l-2.291-11.887c.17-2.983-.233-6.135,0-9.096,2.307-29.275,26.382-53.34,55.611-55.646h9.09ZM54.985,63.497v47.62h-8.021v-61.264c0-2.303,5.393-4.308,6.948-1.602l50.526,69.721c32.52-21.76,29.543-71.249-5.248-89.344C58.978,7.714,13.375,44.499,24.546,88.338c7.493,29.405,40.085,46.604,68.681,35.63.998-.383,4.122-1.193,3.95-2.35l-42.192-58.12Z" fill="#fff"/>
      <rect x="95.089" y="46.911" width="8.021" height="48.155" fill="#fff"/>
    </g>
  </g>
</svg>