<?xml version="1.0" encoding="UTF-8"?>
<svg id="Ebene_1" xmlns="http://www.w3.org/2000/svg" version="1.1" viewBox="0 0 150 150">
  <!-- Generator: Adobe Illustrator 29.1.0, SVG Export Plug-In . SVG Version: 2.1.0 Build 142)  -->
  <g id="mJPNCo">
    <g>
      <path d="M44.772,102.741h-19.917c-.366,0-4.323-1.921-5.019-2.335-14.312-8.514-14.306-41.364,0-49.873.696-.414,4.653-2.335,5.019-2.335h45.044v-3.064h-27.578v-16.24c0-.333,1.038-2.942,1.304-3.599,7.728-19.113,51.382-17.926,53.856,4.821.91,8.361.896,29.014-.002,37.389-.452,4.22-2.737,7.165-7.05,7.658-10.291,1.177-28.977-2.136-37.832.777-3.804,1.251-7.824,5.929-7.824,9.948v16.853ZM58.089,25.639c-6.841.896-6.111,11.703.989,11.348,7.989-.399,6.42-12.319-.989-11.348Z" fill="#fff"/>
      <path d="M75.415,102.741v3.064h27.578v16.24c0,.333-1.038,2.942-1.304,3.599-7.728,19.113-51.382,17.926-53.856-4.821-.833-7.661-.867-27.316.003-34.937.497-4.353,3.318-7.164,7.661-7.661,10.969-1.254,25.41,1.636,36.011-.146,3.791-.637,9.033-6.121,9.033-9.965v-19.917h19.917c.366,0,4.323,1.921,5.019,2.335,14.312,8.514,14.306,41.364,0,49.873-.696.414-4.653,2.335-5.019,2.335h-45.044ZM86.235,113.952c-7.565.378-6.784,11.646.421,11.286,7.565-.378,6.784-11.646-.421-11.286Z" fill="#fff"/>
    </g>
  </g>
</svg>