<?xml version="1.0" encoding="UTF-8"?>
<svg id="Ebene_1" xmlns="http://www.w3.org/2000/svg" version="1.1" viewBox="0 0 150 150">
  <!-- Generator: Adobe Illustrator 29.1.0, SVG Export Plug-In . SVG Version: 2.1.0 Build 142)  -->
  <g id="_x33_6aOUp">
    <g>
      <path d="M98.59,36.712c2.363-.326,4.705-.938,7.079-1.206,10.262-1.158,25.27-.347,27.719,12.285,1.92,9.905-6.038,20.079-11.994,27.172-.06.641,2.349,2.971,2.911,3.678,5.935,7.472,13.033,19.026,7.185,28.445-6.338,10.209-22.855,8.334-32.891,6.309-.239,1.186-.629,2.387-1.062,3.515-2.823,7.368-8.062,17.271-15.77,20.34-14.786,5.887-24.512-12.291-27.706-23.855-2.993.483-5.99,1.205-9.02,1.473-9.688.856-23.152-.725-25.68-12.156-2.216-10.02,5.861-20.412,11.905-27.578.06-.641-2.349-2.971-2.911-3.678-5.935-7.473-12.92-18.828-7.282-28.295,6.186-10.388,22.945-8.517,32.996-6.45,2.929-10.261,10.625-25.953,23.37-24.978,11.078.847,18.556,15.526,21.151,24.979ZM90.428,38.935c-2.732-8.905-11.006-27.232-21.369-14.07-3.186,4.046-5.216,9.074-6.834,13.93l14,5.335,14.204-5.195ZM115.401,69.113c.515-1.126,1.67-2.104,2.472-3.098,3.933-4.876,12.061-16.691,3.636-20.937-3.897-1.964-9.589-1.839-13.862-1.409-.856.086-5.978.822-6.347,1.073-.285.194-.24.421-.228.715.063,1.505.885,3.908,1.153,5.549.469,2.869.828,5.766,1.115,8.658l12.06,9.449ZM51.578,44.891c-10.222-2.087-30.241-4.006-22.287,12.767,1.977,4.169,5.165,7.91,8.081,11.441,3.907-3.232,7.67-6.682,11.947-9.436l2.26-14.773ZM65.941,49.082l-5.946-1.88-1.223,6.082,7.169-4.202ZM93.886,53.283l-1.221-6.082c-.457-.339-5.164,1.527-5.944,2.001l7.165,4.081ZM95.053,63.989c-4.857-2.945-9.659-6.086-14.762-8.608-.811-.401-3.181-1.723-3.877-1.783-.681-.059-3.257,1.384-4.048,1.783-1.764.89-14.757,8.122-15.041,8.95-.376,7.187-.517,14.423.084,21.6,5.971,3.921,12.178,7.477,18.611,10.597.366.135.65-.041.979-.149,2.442-.801,6.975-3.583,9.388-4.962,2.9-1.658,5.677-3.536,8.557-5.225l.322-.483c.309-5.54.595-11.169.364-16.728-.048-1.164-.128-3.106-.28-4.182-.041-.29-.096-.583-.298-.809ZM48.629,70.845l-3.466,2.594-1.463,1.701,1.596,1.635,3.332,2.48v-8.41ZM104.029,79.254l3.466-2.594,1.463-1.701-1.596-1.635-3.332-2.48v8.41ZM49.319,90.435c-4.277-2.754-8.04-6.205-11.947-9.436-5.097,5.833-17.235,21.272-3.831,24.846,5.704,1.521,12.571.339,18.303-.622-1.297-4.831-1.902-9.831-2.525-14.787ZM101.06,105.472c5.191.68,10.43,1.736,15.677.96,11.859-1.755,9.239-10.271,4.363-17.908-1.703-2.668-3.915-5.004-5.699-7.538-4.003,3.114-7.731,6.717-12.063,9.447l-2.278,15.04ZM66.187,100.776l-7.415-3.961c.124.88.806,6.045,1.375,6.168,1.812-.683,3.758-1.107,5.547-1.844.236-.097.567-.026.493-.364ZM86.471,101.017c.941.212,5.693,2.253,6.195,1.88l1.221-6.082-7.415,4.202ZM76.024,106.009l-13.777,5.293c2.795,8.877,11.019,27.057,21.353,13.932,3.173-4.031,5.26-9.072,6.812-13.932l-14.388-5.293Z" fill="#fff"/>
      <path d="M74.543,62.504c12.964-1.568,19.784,14.869,9.33,22.687-8.881,6.641-21.124-.66-20.154-11.498.484-5.41,5.421-10.535,10.824-11.189ZM75.522,70.905c-.997.162-2.225,1.097-2.768,1.93-2.377,3.652,2.136,8.167,5.789,5.789,3.968-2.583,1.506-8.453-3.021-7.72Z" fill="#fff"/>
    </g>
  </g>
</svg>