<?xml version="1.0" encoding="UTF-8"?>
<svg id="Ebene_1" xmlns="http://www.w3.org/2000/svg" baseProfile="tiny" version="1.2" viewBox="0 0 164.5 164.7">
  <!-- Generator: Adobe Illustrator 30.0.0, SVG Export Plug-In . SVG Version: 2.1.1 Build 123)  -->
  <g id="oTQlrY">
    <g>
      <path d="M164.4,78.3c.1,2.7.2,6.1,0,8.8-3.3,58-64.9,94.8-117.7,69.6S-16.3,45.9,39.3,12.1c53.4-32.5,122.1,4.2,125.1,66.2ZM84.1,159.5c4.2,0,8.3-.7,12.1-1.2,15.2-2.1,32.6-12.5,42.9-23.8,34.5-38,23.1-98.7-22.8-121.3C70.8-9.2,17.2,17.4,6.7,66.4c-8.9,41.7,18.4,83.1,59.8,91.6s4.8,1,6.8,1.1.7,0,1.1,0c3.2.6,6.4.5,9.7.4Z" fill="#040302"/>
      <path d="M66.5,158C25.1,149.5-2.3,108.1,6.7,66.4,17.2,17.4,70.8-9.2,116.3,13.2c45.9,22.6,57.3,83.4,22.8,121.3-10.3,11.4-27.7,21.7-42.9,23.8s-7.9,1.1-12.1,1.2c-.8-.7-1.8-.2-2.8-.2s-.8-.2-.9-.2h-3.3c-.9,0-1.9,0-2.7,0s-.7,0-1.1,0c.1-.6-.3-.4-.7-.5-1.5-.3-3.1-.4-4.6-.6s-1.6-.9-1.5,0ZM64.2,27.6c-2.9-2.7-5.7-1.7-7.9,1.3-6.4,8.5-6.6,35,.3,43.1,2.1,2.5,4.3,3.4,7,1.1,5.8-4.7,6.8-20.1,6.4-27-.3-5-2-15-5.8-18.5ZM103.4,74.5c1.5.6,4.3-1.6,5.2-2.7,6.6-8.5,7-35.4-.3-43.6s-8.5-.1-10.3,4.4c-3.9,9.6-4.1,26.7.3,36.2,1.1,2.5,2.4,4.2,4.9,5.4s.2.3.2.4ZM140.7,88.2c1.1.1,2.1,1.1,3.1,1,2.4,0,3.4-2.9,1.4-4.4-2.7-2.1-9.5-2.5-12.8-2s-3.2,2.2-1.8,3.9,2.8.2,4.1,1c.1,3.2-.4,6.3-1.2,9.4-6.5,25.6-33.3,40.6-58.8,37.3s-31.4-10.9-39.9-26.6c-3.2-5.9-5.9-12.9-6.1-19.7.9-.3,2,0,2.7,0,2.6-.2,3.1-4.5-.6-4.8s-9.7.1-12.4,2.1-.4,5,2.3,4.5,1.3-1,2.1-.8c.6,9.6,4.9,19.3,10.3,27.2,8.7,12.7,20.1,19.8,35.1,23.1,31,6.8,64.2-10.2,71.5-42.1.7-2.9,1.2-5.8,1-8.8Z" fill="#f97316"/>
      <path d="M84.1,159.5c-3.2,0-6.5.1-9.7-.4.9,0,1.9,0,2.7,0h3.3c0,0,.5.2.9.2.9,0,2-.5,2.8.2Z" fill="#f97316"/>
      <path d="M66.5,158c-.1-.9,1.1-.1,1.5,0,1.5.2,3.1.3,4.6.6s.8,0,.7.5c-2,0-4.8-.7-6.8-1.1Z" fill="#f97316"/>
      <path d="M140.7,88.2c.2,3-.3,5.9-1,8.8-7.3,31.9-40.5,48.9-71.5,42.1s-26.4-10.3-35.1-23.1c-5.4-7.9-9.7-17.6-10.3-27.2-.8-.2-1.5.7-2.1.8-2.6.6-4.6-2.7-2.3-4.5s9.1-2.4,12.4-2.1,3.2,4.6.6,4.8-1.8-.2-2.7,0c.2,6.8,2.9,13.8,6.1,19.7,8.6,15.7,22.2,24.3,39.9,26.6,25.5,3.4,52.4-11.6,58.8-37.3.8-3.1,1.3-6.2,1.2-9.4-1.2-.8-3.1.2-4.1-1s-.2-3.6,1.8-3.9c3.3-.5,10,0,12.8,2s.9,4.3-1.4,4.4-2.1-.9-3.1-1Z" fill="#040302"/>
      <path d="M103.4,74.5c0,0,0-.3-.2-.4-2.5-1.1-3.8-2.9-4.9-5.4-4.3-9.4-4.2-26.6-.3-36.2s5.7-9.5,10.3-4.4c7.3,8.2,6.9,35,.3,43.6-.9,1.2-3.7,3.3-5.2,2.7Z" fill="#040302"/>
      <path d="M64.2,27.6c3.7,3.5,5.5,13.5,5.8,18.5.4,6.9-.6,22.3-6.4,27s-4.9,1.4-7-1.1c-6.9-8.1-6.7-34.7-.3-43.1s5-4,7.9-1.3Z" fill="#040302"/>
    </g>
  </g>
</svg>